<svg xmlns="http://www.w3.org/2000/svg" viewBox="0 0 50 50"><defs><style>.cls-1{fill:#fff;}.cls-2{fill:#003aaa;}</style></defs><title>01</title><g id="Layer_2" data-name="Layer 2"><g id="Layer_1-2" data-name="Layer 1"><circle class="cls-1" cx="25" cy="25" r="25"/><path class="cls-2" d="M20.65,33.23c-5.69,0-6-5.69-6-8.83s.19-8.83,6-8.83,6,5.69,6,8.83S26.33,33.23,20.65,33.23Zm-1.9-8.83c0,2.42,0,4.7,1.9,4.7s1.9-2.28,1.9-4.7,0-4.71-1.9-4.71S18.75,22,18.75,24.4Z"/><path class="cls-2" d="M34.08,16a.64.64,0,0,1,.72.72V32.08a.65.65,0,0,1-.72.72H31.42a.66.66,0,0,1-.72-.72V21.52A.64.64,0,0,0,30,20.8h-1a.66.66,0,0,1-.72-.72v-1.3a.89.89,0,0,1,.48-.86l3.07-1.85a.67.67,0,0,1,.31-.07Z"/></g></g></svg>
