<svg xmlns="http://www.w3.org/2000/svg" viewBox="0 0 50 50"><defs><style>.cls-1{fill:#fff;}.cls-2{fill:#003aaa;}</style></defs><title>02</title><g id="Layer_2" data-name="Layer 2"><g id="Layer_1-2" data-name="Layer 1"><circle class="cls-1" cx="25" cy="25" r="25"/><path class="cls-2" d="M18.36,33.23c-5.69,0-6-5.69-6-8.83s.19-8.83,6-8.83,6,5.69,6,8.83S24.05,33.23,18.36,33.23Zm-1.9-8.83c0,2.42,0,4.7,1.9,4.7s1.9-2.28,1.9-4.7,0-4.71-1.9-4.71S16.47,22,16.47,24.4Z"/><path class="cls-2" d="M36.92,28.67a.64.64,0,0,1,.72.72v2.69a.64.64,0,0,1-.72.72H26.69a.66.66,0,0,1-.72-.72V30c0-5.52,7.06-7.08,7.44-9a1.07,1.07,0,0,0-1.18-1.34,1.71,1.71,0,0,0-1.85,1.61c-.07.48-.31.7-.79.6l-2.74-.6a.7.7,0,0,1-.62-.79c.14-1.73,1.06-4.94,6-4.94,5.38,0,5.57,4.25,5.54,5,0,4.7-6.29,5.45-7.13,7.87,0,.17,0,.26.22.26Z"/></g></g></svg>
