<svg xmlns="http://www.w3.org/2000/svg" viewBox="0 0 50 50"><defs><style>.cls-1{fill:#fff;}.cls-2{fill:#003aaa;}</style></defs><title>03</title><g id="Layer_2" data-name="Layer 2"><g id="Layer_1-2" data-name="Layer 1"><circle class="cls-1" cx="25" cy="25" r="25"/><path class="cls-2" d="M18.13,33.23c-5.69,0-6-5.69-6-8.83s.19-8.83,6-8.83,6,5.69,6,8.83S23.81,33.23,18.13,33.23Zm-1.9-8.83c0,2.42,0,4.7,1.9,4.7S20,26.82,20,24.4s0-4.71-1.9-4.71S16.23,22,16.23,24.4Z"/><path class="cls-2" d="M26.86,21.3a.7.7,0,0,1-.62-.79c.14-1.73,1.06-4.94,6-4.94,3.86,0,5.71,2.47,5.59,5.26a4.18,4.18,0,0,1-1.7,3.46c-.17.07-.17.17,0,.24A4.18,4.18,0,0,1,37.83,28c.12,2.78-1.73,5.26-5.59,5.26-4.94,0-5.86-3.22-6-4.94a.7.7,0,0,1,.62-.79l2.74-.6c.48-.1.72.12.79.6a1.71,1.71,0,0,0,1.85,1.61,1.3,1.3,0,0,0,1.2-1.92,2.94,2.94,0,0,0-2.35-1.25c-.48,0-.72-.26-.72-.72V23.58c0-.46.24-.67.72-.72a2.94,2.94,0,0,0,2.35-1.25,1.29,1.29,0,0,0-1.2-1.92,1.71,1.71,0,0,0-1.85,1.61c-.07.48-.31.7-.79.6Z"/></g></g></svg>
