<svg xmlns="http://www.w3.org/2000/svg" viewBox="0 0 50 50"><defs><style>.cls-1{fill:#fff;}.cls-2{fill:#003aaa;}</style></defs><title>04</title><g id="Layer_2" data-name="Layer 2"><g id="Layer_1-2" data-name="Layer 1"><circle class="cls-1" cx="25" cy="25" r="25"/><path class="cls-2" d="M18,33.23c-5.69,0-6-5.69-6-8.83s.19-8.83,6-8.83,6,5.69,6,8.83S23.69,33.23,18,33.23Zm-1.9-8.83c0,2.42,0,4.7,1.9,4.7s1.9-2.28,1.9-4.7,0-4.71-1.9-4.71S16.11,22,16.11,24.4Z"/><path class="cls-2" d="M38.62,26.32a.65.65,0,0,1-.72.72h-.29a.65.65,0,0,0-.72.72v4.32a.65.65,0,0,1-.72.72H33.49a.66.66,0,0,1-.72-.72V27.76A.64.64,0,0,0,32,27H26a.66.66,0,0,1-.72-.72V23s.07-.22.14-.48l2.06-4.1a.82.82,0,0,1,.82-.58h2.64c.53,0,.84.34.6.82l-2,4c0,.17,0,.26.19.26H32a.65.65,0,0,0,.72-.72v-6a.65.65,0,0,1,.72-.72h2.69a.64.64,0,0,1,.72.72v6a.66.66,0,0,0,.72.72h.29a.64.64,0,0,1,.72.72Z"/></g></g></svg>