<svg xmlns="http://www.w3.org/2000/svg" viewBox="0 0 32 32"><defs><style>.cls-1{fill:#fff;}</style></defs><title>1st</title><g id="Layer_2" data-name="Layer 2"><g id="Layer_1-2" data-name="Layer 1"><path class="cls-1" d="M17.53,4.06H16a.5.5,0,0,0-.23.05L13.49,5.5a.67.67,0,0,0-.36.65v1a.49.49,0,0,0,.54.54h.77A.48.48,0,0,1,15,8.2v7.92a.49.49,0,0,0,.54.54h2a.48.48,0,0,0,.54-.54V4.6A.48.48,0,0,0,17.53,4.06Z"/><path class="cls-1" d="M25,2V.5a.5.5,0,0,0-.5-.5H7.5A.5.5,0,0,0,7,.5V2H0V8.5A5.51,5.51,0,0,0,5.5,14H7.06A9,9,0,0,0,14,21.77v4.29A4,4,0,0,0,12.05,29H9v3H23V29H19.95A4,4,0,0,0,18,26.06V21.77A9,9,0,0,0,24.94,14H26.5A5.51,5.51,0,0,0,32,8.5V2Zm4,3V8.5A2.5,2.5,0,0,1,26.5,11H25V5ZM5.5,11A2.5,2.5,0,0,1,3,8.5V5H7v6ZM17,25.64a3.59,3.59,0,0,0-2,0v-3.7a8.5,8.5,0,0,0,2,0ZM16,21a8,8,0,0,1-8-8V1H24V13A8,8,0,0,1,16,21Z"/></g></g></svg>