<svg xmlns="http://www.w3.org/2000/svg" viewBox="0 0 26.17 31.52"><defs><style>.cls-1{fill:#02b8ef;}</style></defs><title>2nd</title><g id="Layer_2" data-name="Layer 2"><g id="Layer_1-2" data-name="Layer 1"><path class="cls-1" d="M4.75,3.05a.5.5,0,0,0-.23.67l3.13,6.39a.5.5,0,0,0,.9-.44L5.42,3.28A.5.5,0,0,0,4.75,3.05Z"/><path class="cls-1" d="M6.31,12.89a.5.5,0,0,0,.45-.72L1.3,1H6.19l4,8.22,0,0a.48.48,0,0,0,.66.21.52.52,0,0,0,.22-.69L6.95.28A.5.5,0,0,0,6.5,0H.5A.5.5,0,0,0,.05.72L5.86,12.61A.5.5,0,0,0,6.31,12.89Z"/><path class="cls-1" d="M18.08,10.39a.5.5,0,0,0,.45-.28l3.13-6.39a.5.5,0,1,0-.9-.44L17.63,9.67a.5.5,0,0,0,.45.72Z"/><path class="cls-1" d="M26.1.24A.5.5,0,0,0,25.67,0h-6a.5.5,0,0,0-.45.28L15.05,8.82a.48.48,0,0,0,.24.65A.52.52,0,0,0,16,9.22L20,1h4.89L19.41,12.17a.5.5,0,0,0,.9.44L26.12.72A.5.5,0,0,0,26.1.24Z"/><path class="cls-1" d="M22.63,19.13c-.42-.3-.89-.65-1-.91a3,3,0,0,1,.26-1.37c.27-.82.54-1.68.08-2.31s-1.37-.64-2.24-.64a3,3,0,0,1-1.37-.17,3,3,0,0,1-.58-1.24c-.27-.84-.55-1.7-1.31-1.95s-1.45.28-2.15.79a3,3,0,0,1-1.25.68,3,3,0,0,1-1.25-.68c-.69-.5-1.41-1-2.15-.79s-1,1.11-1.31,1.95a3,3,0,0,1-.58,1.24,3,3,0,0,1-1.37.17c-.87,0-1.77,0-2.24.64S4,16,4.27,16.84a3,3,0,0,1,.26,1.37c-.09.26-.56.61-1,.91-.68.49-1.46,1.06-1.46,1.87s.77,1.38,1.46,1.87c.42.3.89.65,1,.91a3,3,0,0,1-.26,1.37c-.27.82-.54,1.68-.08,2.31s1.37.64,2.24.64a3,3,0,0,1,1.37.17,3,3,0,0,1,.58,1.24c.27.83.55,1.7,1.31,1.95s1.45-.28,2.15-.78A3,3,0,0,1,13.09,30a3,3,0,0,1,1.25.68,3.36,3.36,0,0,0,1.77.84,1.22,1.22,0,0,0,.38-.06c.76-.25,1-1.11,1.31-1.95a3,3,0,0,1,.58-1.24,3,3,0,0,1,1.37-.17c.88,0,1.77,0,2.24-.64s.19-1.49-.08-2.31a3,3,0,0,1-.26-1.37c.09-.26.56-.61,1-.91.68-.49,1.46-1.06,1.46-1.87S23.31,19.62,22.63,19.13ZM16.22,19c0,2.55-3.41,3-3.86,4.26,0,.09,0,.14.12.14h3.28a.35.35,0,0,1,.39.39v1.46a.35.35,0,0,1-.39.39H10.21a.36.36,0,0,1-.39-.39V24.16c0-3,3.82-3.83,4-4.86a.58.58,0,0,0-.64-.73.93.93,0,0,0-1,.87c0,.26-.17.38-.43.32l-1.48-.32A.38.38,0,0,1,10,19c.08-.94.57-2.68,3.25-2.68C16.13,16.33,16.23,18.63,16.22,19Z"/></g></g></svg>