<svg xmlns="http://www.w3.org/2000/svg" viewBox="0 0 26.17 31.52"><defs><style>.cls-1{fill:#02b8ef;}</style></defs><title>3rd</title><g id="Layer_2" data-name="Layer 2"><g id="Layer_1-2" data-name="Layer 1"><path class="cls-1" d="M4.75,3.05a.5.5,0,0,0-.23.67l3.13,6.39a.5.5,0,0,0,.9-.44L5.42,3.28A.5.5,0,0,0,4.75,3.05Z"/><path class="cls-1" d="M6.31,12.89a.5.5,0,0,0,.45-.72L1.3,1H6.19l4,8.25.88-.47L6.95.28A.5.5,0,0,0,6.5,0H.5A.5.5,0,0,0,.05.72L5.86,12.61A.5.5,0,0,0,6.31,12.89Z"/><path class="cls-1" d="M18.08,10.39a.5.5,0,0,0,.45-.28l3.13-6.39a.5.5,0,1,0-.9-.44L17.63,9.67a.5.5,0,0,0,.45.72Z"/><path class="cls-1" d="M26.1.24A.5.5,0,0,0,25.67,0h-6a.5.5,0,0,0-.45.28l-4.15,8.5,0,0,.91.41L20,1h4.89L19.41,12.17a.5.5,0,0,0,.9.44L26.12.72A.5.5,0,0,0,26.1.24Z"/><path class="cls-1" d="M22.63,19.13c-.42-.3-.89-.65-1-.91a3,3,0,0,1,.26-1.37c.27-.82.54-1.68.08-2.31s-1.37-.64-2.24-.64a3,3,0,0,1-1.37-.17,3,3,0,0,1-.58-1.24c-.27-.83-.55-1.7-1.31-1.95s-1.45.28-2.15.79a3,3,0,0,1-1.25.68,3,3,0,0,1-1.25-.68c-.69-.5-1.41-1-2.15-.79s-1,1.11-1.31,1.95a3,3,0,0,1-.58,1.24,3,3,0,0,1-1.37.17c-.87,0-1.77,0-2.24.64S4,16,4.27,16.84a3,3,0,0,1,.26,1.37c-.09.26-.56.61-1,.91-.68.5-1.46,1.06-1.46,1.87s.77,1.38,1.46,1.87c.42.3.89.65,1,.91a3,3,0,0,1-.26,1.37c-.27.82-.54,1.68-.08,2.31s1.37.64,2.24.64a3,3,0,0,1,1.37.17,3,3,0,0,1,.58,1.24c.27.84.55,1.7,1.31,1.95s1.45-.28,2.15-.78A3,3,0,0,1,13.09,30a3,3,0,0,1,1.25.68,3.36,3.36,0,0,0,1.77.84,1.22,1.22,0,0,0,.38-.06c.76-.25,1-1.11,1.31-1.95a3,3,0,0,1,.58-1.24,2.9,2.9,0,0,1,1.37-.17c.83,0,1.77,0,2.24-.64s.19-1.49-.08-2.31a3,3,0,0,1-.26-1.37c.09-.26.56-.61,1-.91.68-.49,1.46-1.06,1.46-1.87S23.31,19.62,22.63,19.13ZM22,22.06a3.32,3.32,0,0,0-1.34,1.41,3.42,3.42,0,0,0,.26,2c.16.5.39,1.19.22,1.41s-.85.23-1.41.23h0a3.35,3.35,0,0,0-1.94.37,3.37,3.37,0,0,0-.94,1.74c-.17.54-.39,1.21-.67,1.3s-.83-.34-1.25-.64A3.45,3.45,0,0,0,13.09,29a3.45,3.45,0,0,0-1.84.87c-.42.31-1,.72-1.25.64s-.49-.76-.67-1.3a3.37,3.37,0,0,0-.94-1.74,3.39,3.39,0,0,0-2-.37c-.56,0-1.26,0-1.43-.23s.06-.91.22-1.41a3.42,3.42,0,0,0,.26-2,3.32,3.32,0,0,0-1.34-1.41c-.47-.34-1-.76-1-1.06s.58-.72,1-1.06a3.32,3.32,0,0,0,1.34-1.41,3.42,3.42,0,0,0-.26-2c-.16-.5-.39-1.19-.22-1.41s.87-.23,1.43-.23a3.38,3.38,0,0,0,2-.37,3.36,3.36,0,0,0,.94-1.74c.17-.54.39-1.21.67-1.3s.83.34,1.25.64a3.45,3.45,0,0,0,1.84.87,3.45,3.45,0,0,0,1.84-.87c.42-.31,1-.72,1.25-.64s.49.76.67,1.3a3.37,3.37,0,0,0,.94,1.74,3.39,3.39,0,0,0,2,.37c.56,0,1.26,0,1.43.23s-.06.91-.22,1.41a3.42,3.42,0,0,0-.26,2A3.32,3.32,0,0,0,22,19.94c.47.34,1,.76,1,1.06S22.51,21.72,22,22.06Z"/><path class="cls-1" d="M16.25,19.18a2.7,2.7,0,0,0-3-2.85C10.54,16.33,10,18.07,10,19a.38.38,0,0,0,.34.43l1.48.32c.26.05.39-.06.43-.32a.93.93,0,0,1,1-.87.7.7,0,0,1,.65,1,1.59,1.59,0,0,1-1.27.68c-.26,0-.39.14-.39.39v.88c0,.25.13.36.39.39a1.59,1.59,0,0,1,1.27.68.7.7,0,0,1-.65,1,.93.93,0,0,1-1-.87c0-.26-.17-.38-.43-.33l-1.48.33a.38.38,0,0,0-.34.43c.08.94.57,2.68,3.25,2.68a2.7,2.7,0,0,0,3-2.85,2.26,2.26,0,0,0-.92-1.87c-.09,0-.09-.09,0-.13A2.26,2.26,0,0,0,16.25,19.18Z"/></g></g></svg>