<svg xmlns="http://www.w3.org/2000/svg" viewBox="0 0 21.83 21.83"><defs><style>.cls-1{fill:#fff;}</style></defs><title>account_icon</title><g id="Layer_2" data-name="Layer 2"><g id="Layer_1-2" data-name="Layer 1"><path class="cls-1" d="M17.41,21.83h-13A4.43,4.43,0,0,1,0,17.41v-13A4.43,4.43,0,0,1,4.42,0h13a4.43,4.43,0,0,1,4.42,4.42v13A4.43,4.43,0,0,1,17.41,21.83ZM4.42,1A3.42,3.42,0,0,0,1,4.42v13a3.42,3.42,0,0,0,3.42,3.42h13a3.42,3.42,0,0,0,3.42-3.42v-13A3.42,3.42,0,0,0,17.41,1Z"/><path class="cls-1" d="M11.09,3.81C8,3.81,5.57,6.62,5.57,10.08a6.66,6.66,0,0,0,1.82,4.64V16.6a.5.5,0,0,0,.21.41,6,6,0,0,0,7,0,.5.5,0,0,0,.21-.41V14.73a6.66,6.66,0,0,0,1.82-4.64C16.61,6.62,14.14,3.81,11.09,3.81ZM8.44,11.86a1.49,1.49,0,1,1,1.49-1.49A1.49,1.49,0,0,1,8.44,11.86Zm3.45,2.59a.25.25,0,0,1-.31,0l-.49-.49-.49.49a.25.25,0,0,1-.42-.25l.63-2.07a.25.25,0,0,1,.24-.18h0a.25.25,0,0,1,.24.17l.7,2.07A.25.25,0,0,1,11.89,14.45Zm1.85-2.59a1.49,1.49,0,1,1,1.49-1.49A1.49,1.49,0,0,1,13.74,11.86Z"/></g></g></svg>