<svg xmlns="http://www.w3.org/2000/svg" viewBox="0 0 25.48 25.48"><defs><style>.cls-1{fill:#02b8ef;}.cls-2{fill:#fff;}</style></defs><title>admin_gear_icon</title><g id="Layer_2" data-name="Layer 2"><g id="Layer_1-2" data-name="Layer 1"><circle class="cls-1" cx="12.74" cy="12.74" r="12.74"/><path class="cls-2" d="M19.28,10.89H18.4a5.91,5.91,0,0,0-.35-.83l.62-.62a1,1,0,0,0,0-1.38L17.44,6.81a1,1,0,0,0-1.38,0l-.62.62a5.91,5.91,0,0,0-.83-.35V6.2a1,1,0,0,0-1-1H11.86a1,1,0,0,0-1,1v.88a5.91,5.91,0,0,0-.83.35l-.62-.62A1,1,0,0,0,8,6.81L6.81,8a1,1,0,0,0,0,1.38l.62.62a5.91,5.91,0,0,0-.35.83H6.2a1,1,0,0,0-1,1v1.76a1,1,0,0,0,1,1h.88a5.91,5.91,0,0,0,.35.83l-.62.62a1,1,0,0,0,0,1.38L8,18.68a1,1,0,0,0,1.38,0l.62-.62a5.91,5.91,0,0,0,.83.35v.88a1,1,0,0,0,1,1h1.76a1,1,0,0,0,1-1V18.4a5.91,5.91,0,0,0,.83-.35l.62.62a1,1,0,0,0,1.38,0l1.24-1.24a1,1,0,0,0,0-1.38l-.62-.62a5.91,5.91,0,0,0,.35-.83h.88a1,1,0,0,0,1-1V11.86A1,1,0,0,0,19.28,10.89Zm-6.54,4.86a3,3,0,1,1,3-3A3,3,0,0,1,12.74,15.75Z"/><circle class="cls-2" cx="12.74" cy="12.74" r="1.25"/></g></g></svg>