<svg xmlns="http://www.w3.org/2000/svg" viewBox="0 0 30.41 30.42"><defs><style>.cls-1{fill:#00259a;}.cls-2{fill:#02b8ef;}</style></defs><title>attentionicon</title><g id="Layer_2" data-name="Layer 2"><g id="Layer_1-2" data-name="Layer 1"><path class="cls-1" d="M14.94,30.42A14.72,14.72,0,0,1,4.51,26.14,15.3,15.3,0,0,1,15.2,0,14.77,14.77,0,0,1,25.9,4.27a15.27,15.27,0,0,1,4.51,10.67h0A15.35,15.35,0,0,1,15.21,30.41ZM15.47,1h-.25a14.3,14.3,0,0,0-10,24.43,13.62,13.62,0,0,0,10,4A14.3,14.3,0,0,0,25.2,5,13.72,13.72,0,0,0,15.47,1Z"/><path class="cls-2" d="M17.35,5.31c.57,0,.88.28.85.85L17.64,18c0,.54-.28.85-.85.85H13.62a.79.79,0,0,1-.85-.85L12.21,6.16a.75.75,0,0,1,.85-.85Zm-.57,14.93a.75.75,0,0,1,.85.85v3.17a.76.76,0,0,1-.85.85H13.62a.77.77,0,0,1-.85-.85V21.09a.76.76,0,0,1,.85-.85Z"/></g></g></svg>