<svg xmlns="http://www.w3.org/2000/svg" viewBox="0 0 32 32"><defs><style>.cls-1{fill:#02b8ef;}</style></defs><title>change_lightblue</title><g id="Layer_2" data-name="Layer 2"><g id="Layer_1-2" data-name="Layer 1"><path class="cls-1" d="M16,0A16,16,0,1,0,32,16,16,16,0,0,0,16,0Zm0,28.13A12.13,12.13,0,0,1,3.9,16.52h-2a.5.5,0,0,1-.35-.86L4,13.23a.59.59,0,0,1,.35-.14.5.5,0,0,1,.35.15l2.42,2.45a.5.5,0,0,1-.36.85H4.9A11.13,11.13,0,0,0,16,27.13a.5.5,0,0,1,0,1Zm0-5.42A6.71,6.71,0,1,1,22.71,16,6.71,6.71,0,0,1,16,22.71Zm12-4.18a.46.46,0,0,1-.35.15.5.5,0,0,1-.35-.15L24.84,16.1a.5.5,0,0,1,.35-.85h1.9A11.13,11.13,0,0,0,16,4.87a.5.5,0,0,1,0-1A12.13,12.13,0,0,1,28.09,15.24h2a.5.5,0,0,1,.35.85Z"/><circle class="cls-1" cx="16" cy="16" r="1.29"/></g></g></svg>