<svg xmlns="http://www.w3.org/2000/svg" viewBox="0 0 32.08 32.08"><defs><style>.cls-1{fill:#c0c0c0;}</style></defs><title>clock_gray</title><g id="Layer_2" data-name="Layer 2"><g id="Layer_1-2" data-name="Layer 1"><path class="cls-1" d="M16,0a16,16,0,1,0,16,16A16.06,16.06,0,0,0,16,0Zm0,31.08a15,15,0,1,1,15-15A15,15,0,0,1,16,31.08Z"/><path class="cls-1" d="M16,2.15A13.89,13.89,0,1,0,29.93,16,13.91,13.91,0,0,0,16,2.15Zm0,26.79A12.89,12.89,0,1,1,28.93,16,12.89,12.89,0,0,1,16,28.93Z"/><path class="cls-1" d="M18.72,18.12a3.37,3.37,0,0,0-2.18-5.44V5.82a.5.5,0,1,0-1,0v6.86A3.4,3.4,0,1,0,18,18.82l3.55,3.72a.5.5,0,1,0,.72-.69ZM18.45,16A2.39,2.39,0,0,1,18,17.4l-1.49-1.56V13.69A2.41,2.41,0,0,1,18.45,16ZM16,18.45a2.41,2.41,0,0,1-.5-4.76V16a.5.5,0,0,0,.14.35l1.62,1.7A2.39,2.39,0,0,1,16,18.45Z"/></g></g></svg>
