<svg xmlns="http://www.w3.org/2000/svg" viewBox="0 0 21.83 21.83"><defs><style>.cls-1{fill:#02B8EF;}</style></defs><title>Asset 59</title><g id="Layer_2" data-name="Layer 2"><g id="Layer_1-2" data-name="Layer 1"><path class="cls-1" d="M17.41,21.83h-13A4.43,4.43,0,0,1,0,17.41v-13A4.43,4.43,0,0,1,4.42,0h13a4.43,4.43,0,0,1,4.42,4.42v13A4.43,4.43,0,0,1,17.41,21.83ZM4.42,1A3.42,3.42,0,0,0,1,4.42v13a3.42,3.42,0,0,0,3.42,3.42h13a3.42,3.42,0,0,0,3.42-3.42v-13A3.42,3.42,0,0,0,17.41,1Z"/><path class="cls-1" d="M6.85,13a1,1,0,0,1-.71-1.71l4.07-4.07a1,1,0,0,1,1.41,0l4.07,4.07a1,1,0,0,1-1.41,1.41L10.92,9.3,7.55,12.66A1,1,0,0,1,6.85,13Z"/></g></g></svg>
