<svg xmlns="http://www.w3.org/2000/svg" viewBox="0 0 32 32"><defs><style>.cls-1{fill:#00259a;}</style></defs><title>completed_league_icon</title><g id="Layer_2" data-name="Layer 2"><g id="Layer_1-2" data-name="Layer 1"><path class="cls-1" d="M16,0A16,16,0,1,0,32,16,16,16,0,0,0,16,0Zm0,3a12.94,12.94,0,0,1,9.54,4.21l-.71.71A12,12,0,0,0,16,4a.5.5,0,0,1,0-1Zm0,2.88a10.07,10.07,0,0,1,7.5,3.36L22.8,10A9.08,9.08,0,0,0,16,6.89a.5.5,0,0,1,0-1ZM16,29A13,13,0,0,1,3,16a.5.5,0,0,1,1,0A12,12,0,0,0,16,28a.5.5,0,0,1,0,1Zm0-2.88A10.12,10.12,0,0,1,5.89,16a.5.5,0,0,1,1,0A9.12,9.12,0,0,0,16,25.11a.5.5,0,0,1,0,1Zm0-3.4a6.71,6.71,0,1,1,5.11-11.06L16,16.76l-2.33-2.33a1.5,1.5,0,0,0-2.12,2.12l3.39,3.39a1.5,1.5,0,0,0,2.12,0l5.47-5.47A6.69,6.69,0,0,1,16,22.71Zm9.61-6.21a.5.5,0,0,1-.5-.5,9,9,0,0,0-.68-3.43l.76-.76A10,10,0,0,1,26.11,16,.5.5,0,0,1,25.61,16.5Zm2.88,0A.5.5,0,0,1,28,16a11.91,11.91,0,0,0-1.39-5.59l.74-.74A12.9,12.9,0,0,1,29,16,.5.5,0,0,1,28.49,16.5Z"/></g></g></svg>