<svg xmlns="http://www.w3.org/2000/svg" viewBox="0 0 21.83 21.83"><defs><style>.cls-1{fill:none;}.cls-2{fill:#fff;}</style></defs><title>downpoints</title><g id="Layer_2" data-name="Layer 2"><g id="Layer_1-2" data-name="Layer 1"><path class="cls-1" d="M17.41,1h-13A3.42,3.42,0,0,0,1,4.42v13a3.42,3.42,0,0,0,3.42,3.42h13a3.42,3.42,0,0,0,3.42-3.42v-13A3.42,3.42,0,0,0,17.41,1Zm-2.3,10.92H6.72a1,1,0,1,1,0-2h8.4a1,1,0,1,1,0,2Z"/><path class="cls-2" d="M17.41,0h-13A4.43,4.43,0,0,0,0,4.42v13a4.43,4.43,0,0,0,4.42,4.42h13a4.43,4.43,0,0,0,4.42-4.42v-13A4.43,4.43,0,0,0,17.41,0Zm3.42,17.41a3.42,3.42,0,0,1-3.42,3.42h-13A3.42,3.42,0,0,1,1,17.41v-13A3.42,3.42,0,0,1,4.42,1h13a3.42,3.42,0,0,1,3.42,3.42Z"/><path class="cls-2" d="M15.12,9.92H6.72a1,1,0,1,0,0,2h8.4a1,1,0,1,0,0-2Z"/></g></g></svg>