<svg xmlns="http://www.w3.org/2000/svg" viewBox="0 0 32.99 32.99"><defs><style>.cls-1{fill:#ed1c24;stroke:#fff;stroke-miterlimit:10;}.cls-2{fill:#fff;}.cls-3{fill:none;}</style></defs><title>downvote</title><g id="Layer_2" data-name="Layer 2"><g id="Layer_1-2" data-name="Layer 1"><circle class="cls-1" cx="16.5" cy="16.5" r="16"/><path class="cls-2" d="M16.5,33A16.5,16.5,0,1,1,33,16.5,16.52,16.52,0,0,1,16.5,33Zm0-32A15.5,15.5,0,1,0,32,16.5,15.51,15.51,0,0,0,16.5,1Z"/><path class="cls-3" d="M13.23,16.76h6.54A1.24,1.24,0,0,0,21,15.53v-.21a1.24,1.24,0,0,0-1.24-1.24H13.23A1.24,1.24,0,0,0,12,15.32v.21A1.24,1.24,0,0,0,13.23,16.76Z"/><path class="cls-3" d="M11.72,20.45h9.55a1.24,1.24,0,0,0,1.24-1.24V19a1.24,1.24,0,0,0-1.24-1.24H11.72A1.24,1.24,0,0,0,10.48,19v.21A1.24,1.24,0,0,0,11.72,20.45Z"/><path class="cls-3" d="M16.74,10.42a4.24,4.24,0,0,0-1.39,2.66h2A6.92,6.92,0,0,1,16.74,10.42Z"/><rect class="cls-3" x="8.98" y="21.45" width="15.03" height="2.68" rx="1.24" ry="1.24"/><path class="cls-2" d="M23.11,20.49a2.22,2.22,0,0,0,.4-1.28V19a2.24,2.24,0,0,0-1.9-2.2,2.22,2.22,0,0,0,.4-1.27v-.21a2.24,2.24,0,0,0-2.24-2.24h-1.3a6,6,0,0,1-.69-3.6l.12-1L17,9a5.25,5.25,0,0,0-2.69,4.1H13.23A2.24,2.24,0,0,0,11,15.32v.21a2.22,2.22,0,0,0,.4,1.27A2.24,2.24,0,0,0,9.48,19v.21a2.22,2.22,0,0,0,.4,1.28A2.24,2.24,0,0,0,8,22.69v.21a2.24,2.24,0,0,0,2.24,2.24H22.77A2.24,2.24,0,0,0,25,22.9v-.21A2.24,2.24,0,0,0,23.11,20.49ZM16.74,10.42a6.92,6.92,0,0,0,.6,2.66h-2A4.24,4.24,0,0,1,16.74,10.42ZM12,15.32a1.24,1.24,0,0,1,1.24-1.24h6.54A1.24,1.24,0,0,1,21,15.32v.21a1.24,1.24,0,0,1-1.24,1.24H13.23A1.24,1.24,0,0,1,12,15.53ZM10.48,19a1.24,1.24,0,0,1,1.24-1.24h9.55A1.24,1.24,0,0,1,22.51,19v.21a1.24,1.24,0,0,1-1.24,1.24H11.72a1.24,1.24,0,0,1-1.24-1.24ZM24,22.9a1.24,1.24,0,0,1-1.24,1.24H10.22A1.24,1.24,0,0,1,9,22.9v-.21a1.24,1.24,0,0,1,1.24-1.24H22.77A1.24,1.24,0,0,1,24,22.69Z"/><path class="cls-2" d="M24.71,12.36a.59.59,0,0,1,.19-.44,1.59,1.59,0,0,0,0-2.13.59.59,0,0,1-.19-.44.5.5,0,1,0-1,0,1.55,1.55,0,0,0,.41,1.06.6.6,0,0,1,0,.88,1.58,1.58,0,0,0,0,2.13.6.6,0,0,1,0,.87,1.54,1.54,0,0,0-.41,1.06.5.5,0,1,0,1,0,.59.59,0,0,1,.19-.44,1.58,1.58,0,0,0,0-2.12A.59.59,0,0,1,24.71,12.36Z"/><path class="cls-2" d="M20.71,11.36a.5.5,0,0,0,1,0,.59.59,0,0,1,.19-.44,1.58,1.58,0,0,0,0-2.13.59.59,0,0,1-.19-.44.5.5,0,0,0-1,0,1.55,1.55,0,0,0,.41,1.06.6.6,0,0,1,0,.88A1.55,1.55,0,0,0,20.71,11.36Z"/><path class="cls-2" d="M11.29,11.36a.5.5,0,0,0,1,0,1.55,1.55,0,0,0-.41-1.06.6.6,0,0,1,0-.88,1.55,1.55,0,0,0,.41-1.06.5.5,0,1,0-1,0,.59.59,0,0,1-.19.44,1.58,1.58,0,0,0,0,2.13A.59.59,0,0,1,11.29,11.36Z"/><path class="cls-2" d="M7.68,13.86a1.55,1.55,0,0,0,.41,1.06.59.59,0,0,1,.19.44.5.5,0,0,0,1,0,1.55,1.55,0,0,0-.41-1.06.6.6,0,0,1,0-.88,1.58,1.58,0,0,0,0-2.13.6.6,0,0,1,0-.87,1.54,1.54,0,0,0,.41-1.06.5.5,0,0,0-1,0,.59.59,0,0,1-.19.44,1.58,1.58,0,0,0,0,2.12.6.6,0,0,1,0,.88A1.55,1.55,0,0,0,7.68,13.86Z"/></g></g></svg>