<svg xmlns="http://www.w3.org/2000/svg" viewBox="0 0 21.83 21.83"><defs><style>.cls-1{fill:#02B8EF;}</style></defs><title>expand_icon</title><g id="Layer_2" data-name="Layer 2"><g id="Layer_1-2" data-name="Layer 1"><path class="cls-1" d="M17.41,21.83h-13A4.43,4.43,0,0,1,0,17.41v-13A4.43,4.43,0,0,1,4.42,0h13a4.43,4.43,0,0,1,4.42,4.42v13A4.43,4.43,0,0,1,17.41,21.83ZM4.42,1A3.42,3.42,0,0,0,1,4.42v13a3.42,3.42,0,0,0,3.42,3.42h13a3.42,3.42,0,0,0,3.42-3.42v-13A3.42,3.42,0,0,0,17.41,1Z"/><path class="cls-1" d="M11.07,15a1,1,0,0,1-.71-.29L6.3,10.59A1,1,0,0,1,7.71,9.17l3.36,3.36,3.36-3.36a1,1,0,0,1,1.41,1.41l-4.07,4.07A1,1,0,0,1,11.07,15Z"/></g></g></svg>
