<svg xmlns="http://www.w3.org/2000/svg" viewBox="0 0 21.84 21.84"><defs><style>.cls-1{fill:none;}.cls-2{fill:#fff;}</style></defs><title>gear_icon_2</title><g id="Layer_2" data-name="Layer 2"><g id="Layer_1-2" data-name="Layer 1"><g id="Layer_1-2-2" data-name="Layer 1-2"><path class="cls-1" d="M17.41,1h-13A3.42,3.42,0,0,0,1,4.42v13a3.42,3.42,0,0,0,3.42,3.42h13a3.42,3.42,0,0,0,3.42-3.42v-13A3.42,3.42,0,0,0,17.42,1Z"/><path class="cls-2" d="M17.41,0h-13A4.43,4.43,0,0,0,0,4.42v13a4.43,4.43,0,0,0,4.42,4.42h13a4.43,4.43,0,0,0,4.42-4.42v-13A4.43,4.43,0,0,0,17.41,0Zm3.42,17.41a3.42,3.42,0,0,1-3.42,3.42h-13A3.42,3.42,0,0,1,1,17.41v-13A3.42,3.42,0,0,1,4.42,1h13a3.42,3.42,0,0,1,3.42,3.42Z"/></g><path class="cls-2" d="M16.48,9.35h-.74a5,5,0,0,0-.3-.7L16,8.12A.85.85,0,0,0,16,7l-1-1.06a.85.85,0,0,0-1.17,0l-.52.52a5,5,0,0,0-.7-.3V5.38a.85.85,0,0,0-.85-.85H10.21a.85.85,0,0,0-.85.85v.74a5,5,0,0,0-.7.3L8.13,5.9a.85.85,0,0,0-1.19,0l-1,1a.85.85,0,0,0,0,1.17l.52.52a5,5,0,0,0-.3.7H5.42a.85.85,0,0,0-.85.85v1.49a.85.85,0,0,0,.85.85h.74a5,5,0,0,0,.3.7l-.52.52a.85.85,0,0,0,0,1.17l1,1.07a.85.85,0,0,0,1.17,0l.52-.52a5,5,0,0,0,.7.3v.74a.85.85,0,0,0,.85.85h1.49a.85.85,0,0,0,.85-.85V15.7a5,5,0,0,0,.7-.3l.52.52a.85.85,0,0,0,1.17,0l1-1a.85.85,0,0,0,0-1.17l-.52-.52a5,5,0,0,0,.3-.7h.74a.85.85,0,0,0,.85-.85V10.17A.85.85,0,0,0,16.48,9.35Zm-5.53,4.11a2.54,2.54,0,1,1,2.54-2.54,2.54,2.54,0,0,1-2.54,2.54Z"/><circle class="cls-2" cx="10.95" cy="10.91" r="1.06"/></g></g></svg>