<svg xmlns="http://www.w3.org/2000/svg" viewBox="0 0 29.42 29.42"><defs><style>.cls-1{fill:#fff;}</style></defs><title>leaguesrocked_icon</title><g id="Layer_2" data-name="Layer 2"><g id="Layer_1-2" data-name="Layer 1"><path class="cls-1" d="M6.35,25a.24.24,0,0,0-.2-.17l-.82-.12L5,24a.25.25,0,0,0-.44,0l-.37.75-.82.12a.24.24,0,0,0-.13.41l.6.58-.14.82A.24.24,0,0,0,4,27l.74-.39.74.39.11,0a.24.24,0,0,0,.24-.28l-.14-.82.6-.58A.24.24,0,0,0,6.35,25Z"/><path class="cls-1" d="M26.28,25a.24.24,0,0,0-.2-.17l-.82-.12L24.89,24a.25.25,0,0,0-.44,0l-.37.75-.82.12a.24.24,0,0,0-.13.41l.6.58-.14.82a.24.24,0,0,0,.35.26l.74-.39.74.39.11,0a.24.24,0,0,0,.24-.28l-.14-.82.6-.58A.24.24,0,0,0,26.28,25Z"/><path class="cls-1" d="M6.35,3.59a.24.24,0,0,0-.2-.17L5.33,3.3,5,2.56a.25.25,0,0,0-.44,0l-.37.75-.82.12a.24.24,0,0,0-.13.41l.6.58-.14.82A.24.24,0,0,0,4,5.49l.74-.39.74.39.11,0a.24.24,0,0,0,.24-.28l-.14-.82.6-.58A.24.24,0,0,0,6.35,3.59Z"/><path class="cls-1" d="M26.28,3.59a.24.24,0,0,0-.2-.17l-.82-.12-.37-.75a.25.25,0,0,0-.44,0l-.37.75-.82.12a.24.24,0,0,0-.13.41l.6.58-.14.82a.24.24,0,0,0,.35.26l.74-.39.74.39.11,0a.24.24,0,0,0,.24-.28l-.14-.82.6-.58A.24.24,0,0,0,26.28,3.59Z"/><path class="cls-1" d="M24.3,1a4.12,4.12,0,0,1,4.12,4.12V24.3a4.12,4.12,0,0,1-4.12,4.12H5.12A4.12,4.12,0,0,1,1,24.3V5.12A4.12,4.12,0,0,1,5.12,1H24.3m0-1H5.12A5.13,5.13,0,0,0,0,5.12V24.3a5.13,5.13,0,0,0,5.12,5.12H24.3a5.13,5.13,0,0,0,5.12-5.12V5.12A5.13,5.13,0,0,0,24.3,0Z"/><circle class="cls-1" cx="14.71" cy="14.71" r="2.56"/><path class="cls-1" d="M14.71,7.39a7.31,7.31,0,1,1-7.31,7.31,7.32,7.32,0,0,1,7.31-7.31m0-1A8.31,8.31,0,1,0,23,14.71a8.31,8.31,0,0,0-8.31-8.31Z"/><path class="cls-1" d="M14.71,4.2A10.51,10.51,0,1,1,4.2,14.71,10.52,10.52,0,0,1,14.71,4.2m0-1A11.51,11.51,0,1,0,26.22,14.71,11.51,11.51,0,0,0,14.71,3.2Z"/></g></g></svg>