<svg xmlns="http://www.w3.org/2000/svg" viewBox="0 0 10.35 10.35"><defs><style>.cls-1{fill:#fff;}</style></defs><title>logout_icon</title><g id="Layer_2" data-name="Layer 2"><g id="Layer_1-2" data-name="Layer 1"><path class="cls-1" d="M7.25,5.17l2.86-2.86a.81.81,0,0,0,0-1.14L9.17.24A.81.81,0,0,0,8,.24L5.17,3.09,2.32.24a.81.81,0,0,0-1.14,0l-.94.94a.81.81,0,0,0,0,1.14L3.09,5.17.24,8a.81.81,0,0,0,0,1.14l.94.94a.81.81,0,0,0,1.14,0L5.17,7.25,8,10.11a.81.81,0,0,0,1.14,0l.94-.94a.81.81,0,0,0,0-1.14Z"/></g></g></svg>