<svg xmlns="http://www.w3.org/2000/svg" viewBox="0 0 21.83 21.83"><defs><style>.cls-1{fill:#02b8ef;}</style></defs><title>manual_playlist_icon</title><g id="Layer_2" data-name="Layer 2"><g id="Layer_1-2" data-name="Layer 1"><path class="cls-1" d="M17.41,21.83h-13A4.43,4.43,0,0,1,0,17.41v-13A4.43,4.43,0,0,1,4.42,0h13a4.43,4.43,0,0,1,4.42,4.42v13A4.43,4.43,0,0,1,17.41,21.83ZM4.42,1A3.42,3.42,0,0,0,1,4.42v13a3.42,3.42,0,0,0,3.42,3.42h13a3.42,3.42,0,0,0,3.42-3.42v-13A3.42,3.42,0,0,0,17.41,1Z"/><path class="cls-1" d="M10.92,4.7a6.37,6.37,0,1,0,6.37,6.37A6.37,6.37,0,0,0,10.92,4.7Zm0,11.31A5,5,0,0,1,6,11.07a.5.5,0,0,1,1,0A4,4,0,0,0,10.92,15a.5.5,0,0,1,0,1Zm0-2.27a2.67,2.67,0,1,1,2.67-2.67A2.67,2.67,0,0,1,10.92,13.74Zm4.44-2.17a.5.5,0,0,1-.5-.5,4,4,0,0,0-3.94-3.94.5.5,0,0,1,0-1,5,5,0,0,1,4.94,4.94A.5.5,0,0,1,15.36,11.57Z"/><circle class="cls-1" cx="10.92" cy="11.07" r="0.56"/></g></g></svg>