<svg xmlns="http://www.w3.org/2000/svg" viewBox="0 0 394.84 652.18"><defs><style>.cls-1{fill:#fff;}</style></defs><title>ml_fulllockup.svg</title><g id="Layer_2" data-name="Layer 2"><g id="Layer_1-2" data-name="Layer 1"><path class="cls-1" d="M90.65,532.65a2.5,2.5,0,0,1,2.6,2.2L99,558.52c.16.81.81.81,1,0l5.78-23.68a2.5,2.5,0,0,1,2.6-2.2h16.84a2.16,2.16,0,0,1,2.44,2.44v52.08a2.19,2.19,0,0,1-2.44,2.44h-9.11a2.23,2.23,0,0,1-2.44-2.44V555.11a.45.45,0,0,0-.9-.08l-7.89,32.47a2.51,2.51,0,0,1-2.69,2.12H96.83a2.51,2.51,0,0,1-2.69-2.12L86.25,555a.45.45,0,0,0-.89.08v32.06a2.19,2.19,0,0,1-2.44,2.44H73.8a2.19,2.19,0,0,1-2.44-2.44V535.09a2.16,2.16,0,0,1,2.44-2.44Z"/><path class="cls-1" d="M155,532.65a2.16,2.16,0,0,1,2.44,2.44V567c0,6.27.41,10.09,6.43,10.09s6.43-3.82,6.43-10.09v-31.9a2.19,2.19,0,0,1,2.44-2.44h9.11a2.16,2.16,0,0,1,2.44,2.44V571.3c0,5.37-1.14,19.77-20.42,19.77s-20.43-14.4-20.43-19.77V535.09a2.19,2.19,0,0,1,2.44-2.44Z"/><path class="cls-1" d="M228.49,552.83c-1.63.33-2.44-.41-2.69-2-.57-3.34-3.25-5.45-7.08-5.45-3.17,0-5.13,1.87-4.8,3.74,1.14,6.35,26.85,6.18,26.85,24.9,0,2.44-2.77,16.84-22.05,16.84-17.09,0-20.75-11.23-21.16-17.58a2.39,2.39,0,0,1,2.12-2.69l9.2-2c1.63-.33,2.52.41,2.69,2.12.33,3.91,3.34,6.18,7.16,6.18,4,0,6.92-2.36,6.43-4.56-1.55-6.92-26-5.37-26-24.09-.08-2.44,1.38-16.84,19.61-16.84,16.76,0,20.67,10.9,21.16,16.76a2.39,2.39,0,0,1-2.12,2.69Z"/><path class="cls-1" d="M266.16,532.65a2.16,2.16,0,0,1,2.44,2.44v52.08a2.19,2.19,0,0,1-2.44,2.44h-9a2.23,2.23,0,0,1-2.44-2.44V535.09a2.19,2.19,0,0,1,2.44-2.44Z"/><path class="cls-1" d="M284.06,551c0-5.37,1.14-19.77,20.42-19.77,17.33,0,20,11.64,20.34,17.9a2.13,2.13,0,0,1-1.79,2.28l-9,2a2.73,2.73,0,0,1-3.25-2.52c-.41-3.58-1.87-5.7-6.27-5.7-6,0-6.43,3.82-6.43,10.09V567c0,6.27.41,10.09,6.43,10.09,4.48,0,5.7-2.12,6.18-5.86a2.54,2.54,0,0,1,3.17-2.36l9.2,2a2.16,2.16,0,0,1,1.79,2.36c-.33,6.18-3,17.82-20.34,17.82-19.29,0-20.42-14.4-20.42-19.77Z"/><path class="cls-1" d="M36.38,615.29a1.36,1.36,0,0,1,1.54,1.54v24a1.41,1.41,0,0,0,1.54,1.54H50.92A1.36,1.36,0,0,1,52.46,644v5.75a1.36,1.36,0,0,1-1.54,1.54H30.63a1.41,1.41,0,0,1-1.54-1.54V616.83a1.38,1.38,0,0,1,1.54-1.54Z"/><path class="cls-1" d="M112.15,615.29a1.36,1.36,0,0,1,1.54,1.54v5.75a1.38,1.38,0,0,1-1.54,1.54H99.72a1.38,1.38,0,0,0-1.54,1.54v1.64a1.41,1.41,0,0,0,1.54,1.54h8a1.36,1.36,0,0,1,1.54,1.54v5.75a1.38,1.38,0,0,1-1.54,1.54h-8a1.38,1.38,0,0,0-1.54,1.54v1.64a1.41,1.41,0,0,0,1.54,1.54h12.43a1.36,1.36,0,0,1,1.54,1.54v5.75a1.36,1.36,0,0,1-1.54,1.54H90.58A1.41,1.41,0,0,1,89,649.71V616.83a1.38,1.38,0,0,1,1.54-1.54Z"/><path class="cls-1" d="M176,649.5c0,1.13-.51,1.75-1.54,1.75h-5.75a1.38,1.38,0,0,1-1.54-1.54v-4.47a1.36,1.36,0,0,0-1.54-1.54h-4.42a1.38,1.38,0,0,0-1.54,1.54v4.47a1.36,1.36,0,0,1-1.54,1.54h-5.75c-1,0-1.54-.62-1.54-1.75V627.72c0-6.47,1-13.36,12.59-13.36S176,621.25,176,627.72Zm-8.84-21.78c0-2.47-.36-3.7-3.75-3.7s-3.75,1.23-3.75,3.7v5.6a1.41,1.41,0,0,0,1.54,1.54h4.42a1.42,1.42,0,0,0,1.54-1.59Z"/><path class="cls-1" d="M213.7,626.85c0-3.39.72-12.48,12.9-12.48,10.79,0,12.59,7.09,12.84,11.1a1.51,1.51,0,0,1-1.34,1.7l-5.81,1.28c-1,.21-1.59-.26-1.7-1.34-.21-2.47-1.08-3.9-4-3.9-3.8,0-4.06,2.41-4.06,6.37V637c0,4,.26,6.37,4.06,6.37s4.06-2.41,4.06-4.93h-3a1.41,1.41,0,0,1-1.54-1.54v-4.11a1.38,1.38,0,0,1,1.54-1.54H238a1.36,1.36,0,0,1,1.54,1.54v6.94c0,3.39-.72,12.48-12.9,12.48s-12.9-9.09-12.9-12.48Z"/><path class="cls-1" d="M284.39,615.29a1.36,1.36,0,0,1,1.54,1.54V637c0,4,.26,6.37,4.06,6.37S294,640.92,294,637V616.83a1.38,1.38,0,0,1,1.54-1.54h5.75a1.36,1.36,0,0,1,1.54,1.54v22.86c0,3.39-.72,12.48-12.9,12.48s-12.9-9.09-12.9-12.48V616.83a1.38,1.38,0,0,1,1.54-1.54Z"/><path class="cls-1" d="M364.22,615.29a1.36,1.36,0,0,1,1.54,1.54v5.75a1.38,1.38,0,0,1-1.54,1.54H351.78a1.38,1.38,0,0,0-1.54,1.54v1.64a1.41,1.41,0,0,0,1.54,1.54h8a1.36,1.36,0,0,1,1.54,1.54v5.75a1.38,1.38,0,0,1-1.54,1.54h-8a1.38,1.38,0,0,0-1.54,1.54v1.64a1.41,1.41,0,0,0,1.54,1.54h12.43a1.36,1.36,0,0,1,1.54,1.54v5.75a1.36,1.36,0,0,1-1.54,1.54H342.64a1.41,1.41,0,0,1-1.54-1.54V616.83a1.38,1.38,0,0,1,1.54-1.54Z"/><path class="cls-1" d="M181.84,230.53v33.73h-11.6L111.53,467.07l-.07.23v0h0a11.23,11.23,0,0,0,20.09,9.43l45.84-62.52c2.81-3.52,9.86-10.8,20-10.8s17.22,7.29,20,10.8l45.84,62.52a11.23,11.23,0,0,0,20.09-9.43h0v0l-.07-.23L224.6,264.26H212.28V229.95l-14.87-12.32Zm0,98.21H213v24H181.8Zm38.72,44.45a5,5,0,0,1-5,5h-36.2a5,5,0,0,1,0-10h36.2A5,5,0,0,1,220.52,373.19ZM213,294.63v24H181.8v-24H213Z"/><polygon class="cls-1" points="213.74 110.69 213.74 72.84 183.3 72.84 183.3 110.06 198.89 123.03 213.74 110.69"/><polygon class="cls-1" points="213.74 0 183.3 0 183.3 62.69 228.52 62.69 213.74 0"/><path class="cls-1" d="M391,298.27a10.61,10.61,0,0,0-14.94,1.38l-41.77-34.7,20.95-25.22h0a10.61,10.61,0,1,0-15.8.57l-6.61,8L238.8,170.32l77.48-64.24,23.34-53.7-57.07,13.1-50.27,41.66-20,16.57L197.42,136l-15.58-12.91-24.4-20.23L112.3,65.48,55.23,52.39l23.34,53.7L156,170.32,62,248.27l-6.61-8a10.6,10.6,0,1,0-15.8-.57h0l20.95,25.22-41.77,34.7A10.61,10.61,0,0,0,2.45,313.2L21,335.53A10.61,10.61,0,0,0,37.31,322l41.77-34.7L100,312.49h0a10.61,10.61,0,1,0,2.33-15.64l-6.6-7.94,47-39,39.08-32.4,15.58-12.92,14.86,12.32,39.81,33,47,39-6.6,7.94a10.6,10.6,0,1,0,2.33,15.64h0l20.95-25.22L357.54,322a10.61,10.61,0,0,0,16.32,13.55L392.4,313.2A10.61,10.61,0,0,0,391,298.27Zm-102.1-204a5,5,0,0,1-.64,7l-66.16,55.15L214.28,150l67.59-56.34A5,5,0,0,1,288.91,94.3ZM106.64,251.23a5,5,0,0,1-3.2-8.84l69.58-58,7.83,6.49-71,59.19A5,5,0,0,1,106.64,251.23ZM292,249.44a5,5,0,0,1-7,.64l-71-59.19-1.72-1.43-14.86-12.38-7.81-6.51-7.77-6.48-9.11-7.59-66.16-55.15a5,5,0,1,1,6.4-7.68L180.57,150l1.28,1.06,15.58,13,7.81,6.51,7,5.87,9.55,8,69.58,58A5,5,0,0,1,292,249.44Z"/></g></g></svg>