<svg xmlns="http://www.w3.org/2000/svg" viewBox="0 0 32.04 31.93"><defs><style>.cls-1{fill:none;}.cls-2{fill:#fff;}</style></defs><title>news_icon</title><g id="Layer_2" data-name="Layer 2"><g id="Layer_1-2" data-name="Layer 1"><path class="cls-1" d="M23.72,19.92V16.25h-1v2.67a3.5,3.5,0,0,1-3.5,3.5h-6.4a3.5,3.5,0,0,1-3.5-3.5V16.25h-1v3.67a3.4,3.4,0,0,0,3.5,3.5h8.4A3.44,3.44,0,0,0,23.72,19.92Z"/><rect class="cls-1" x="15.4" y="24.42" width="1.25" height="3.66"/><path class="cls-1" d="M13,8.71a.5.5,0,0,1,0,1h-2.7v1H13a.5.5,0,0,1,0,1h-2.7v1H13a.5.5,0,0,1,0,1h-2.7v5.21a2.5,2.5,0,0,0,2.5,2.5h.7V15.67a.5.5,0,0,1,1,0v5.75h1V15.67a.5.5,0,0,1,1,0v5.75h1V15.67a.5.5,0,1,1,1,0v5.75h.7a2.5,2.5,0,0,0,2.5-2.5V13.71H19a.5.5,0,1,1,0-1h2.7v-1H19a.5.5,0,0,1,0-1h2.7v-1H19a.5.5,0,0,1,0-1h2.7V3.5A2.5,2.5,0,0,0,19.22,1h-.7V6.75a.5.5,0,0,1-1,0V1h-1V6.75a.5.5,0,1,1-1,0V1h-1V6.75a.5.5,0,0,1-1,0V1h-.7a2.5,2.5,0,0,0-2.5,2.5V8.71Zm1.4,2.11a.24.24,0,0,1,.2-.17l.82-.12.37-.75a.25.25,0,0,1,.43,0l.37.75.82.12a.24.24,0,0,1,.13.41l-.6.58.14.82a.24.24,0,0,1-.24.28l-.11,0L16,12.34l-.74.39a.24.24,0,0,1-.35-.26l.14-.82-.6-.58A.24.24,0,0,1,14.42,10.82Z"/><path class="cls-2" d="M15.07,11.65l-.14.82a.24.24,0,0,0,.35.26l.74-.39.74.39.11,0a.24.24,0,0,0,.24-.28L17,11.65l.6-.58a.24.24,0,0,0-.13-.41l-.82-.12-.37-.75a.25.25,0,0,0-.43,0l-.37.75-.82.12a.24.24,0,0,0-.13.41Z"/><path class="cls-2" d="M23.54,28.08h-5.9V24.42h2.58a4.47,4.47,0,0,0,4.5-4.5v-2.5a1.82,1.82,0,0,0,0-3.51V11.21a.5.5,0,1,0-1,0v4h-1V3.5A3.5,3.5,0,0,0,19.22,0h-6.4a3.5,3.5,0,0,0-3.5,3.5V15.25h-1v-4a.5.5,0,1,0-1,0v2.71a1.82,1.82,0,0,0,0,3.51v2.5a4.43,4.43,0,0,0,4.5,4.5H14.4v3.66H8.5A2.49,2.49,0,0,0,6,30.56v1.36H26V30.56A2.49,2.49,0,0,0,23.54,28.08ZM12.82,1h.7V6.75a.5.5,0,0,0,1,0V1h1V6.75a.5.5,0,1,0,1,0V1h1V6.75a.5.5,0,0,0,1,0V1h.7a2.5,2.5,0,0,1,2.5,2.5V8.71H19a.5.5,0,0,0,0,1h2.7v1H19a.5.5,0,0,0,0,1h2.7v1H19a.5.5,0,1,0,0,1h2.7v5.21a2.5,2.5,0,0,1-2.5,2.5h-.7V15.67a.5.5,0,1,0-1,0v5.75h-1V15.67a.5.5,0,0,0-1,0v5.75h-1V15.67a.5.5,0,0,0-1,0v5.75h-.7a2.5,2.5,0,0,1-2.5-2.5V13.71H13a.5.5,0,0,0,0-1h-2.7v-1H13a.5.5,0,0,0,0-1h-2.7v-1H13a.5.5,0,0,0,0-1h-2.7V3.5A2.5,2.5,0,0,1,12.82,1ZM8.32,19.92V16.25h1v2.67a3.5,3.5,0,0,0,3.5,3.5h6.4a3.5,3.5,0,0,0,3.5-3.5V16.25h1v3.67a3.44,3.44,0,0,1-3.5,3.5h-8.4A3.4,3.4,0,0,1,8.32,19.92Zm7.08,4.5h1.25v3.66H15.4Z"/><path class="cls-2" d="M24,8.33a.5.5,0,0,0,.68-.18L27.07,4l1.48,2a.49.49,0,0,0,.43.2A.5.5,0,0,0,29.39,6L32,1.5a.5.5,0,1,0-.87-.5l-2.2,3.83-1.48-2a.5.5,0,0,0-.83,0l-2.8,4.78A.5.5,0,0,0,24,8.33Z"/><path class="cls-2" d="M2.87,6.29a.5.5,0,0,0,.41.25.47.47,0,0,0,.43-.2l1.48-2,2.2,3.83a.5.5,0,1,0,.87-.5L5.67,3.14a.5.5,0,0,0-.84,0l-1.48,2L.93,1a.5.5,0,0,0-.86.51Z"/><path class="cls-2" d="M29.39,20.69a.5.5,0,0,0-.41-.25.48.48,0,0,0-.43.2l-1.48,2-.74-1.25a.5.5,0,1,0-.86.51l1.12,1.91a.5.5,0,0,0,.41.25.48.48,0,0,0,.43-.2l1.48-2,2.2,3.83a.5.5,0,0,0,.87-.5Z"/><path class="cls-2" d="M6.42,21.23a.5.5,0,0,0-.68.19l-.55,1-1.48-2a.49.49,0,0,0-.43-.2.5.5,0,0,0-.41.25L.07,25.19a.5.5,0,1,0,.86.51l2.42-4.13,1.48,2a.5.5,0,0,0,.84,0l.94-1.63A.5.5,0,0,0,6.42,21.23Z"/></g></g></svg>