<svg xmlns="http://www.w3.org/2000/svg" viewBox="0 0 32.99 32.99"><defs><style>.cls-1{fill:#00259a;}.cls-2{fill:#fff;}.cls-3{fill:#02b8ef;}</style></defs><title>novote</title><g id="Layer_2" data-name="Layer 2"><g id="Layer_1-2" data-name="Layer 1"><circle class="cls-1" cx="16.5" cy="16.5" r="16"/><path class="cls-2" d="M16.5,33A16.5,16.5,0,1,1,33,16.5,16.52,16.52,0,0,1,16.5,33Zm0-32A15.5,15.5,0,1,0,32,16.5,15.51,15.51,0,0,0,16.5,1Z"/><path class="cls-3" d="M11,18.77a.43.43,0,0,1-.47-.55c.4-2.28,2.08-2,2.43-3.75a.87.87,0,0,0-.82-1.1,1.2,1.2,0,0,0-1.29,1.12c-.05.33-.22.49-.55.42l-1.91-.42A.49.49,0,0,1,8,13.94c.1-1.21.74-3.45,4.19-3.45,3.75,0,3.88,3,3.87,3.46,0,2.78-1.94,3-2.54,4.4a.56.56,0,0,1-.57.42Zm0,.85a.45.45,0,0,0-.5.5V22a.46.46,0,0,0,.5.5h1.87a.45.45,0,0,0,.5-.5V20.13a.44.44,0,0,0-.5-.5Z"/><path class="cls-3" d="M20,18.77a.43.43,0,0,1-.47-.55c.4-2.28,2.08-2,2.43-3.75a.87.87,0,0,0-.82-1.1,1.2,1.2,0,0,0-1.29,1.12c-.05.33-.22.49-.55.42l-1.91-.42a.49.49,0,0,1-.44-.55c.1-1.21.74-3.45,4.19-3.45,3.75,0,3.88,3,3.87,3.46,0,2.78-1.94,3-2.54,4.4a.56.56,0,0,1-.57.42Zm0,.85a.45.45,0,0,0-.5.5V22a.46.46,0,0,0,.5.5h1.87a.45.45,0,0,0,.5-.5V20.13a.44.44,0,0,0-.5-.5Z"/></g></g></svg>