<svg xmlns="http://www.w3.org/2000/svg" viewBox="0 0 31.84 31.58"><defs><style>.cls-1{fill:#fff;}</style></defs><title>owned_icon</title><g id="Layer_2" data-name="Layer 2"><g id="Layer_1-2" data-name="Layer 1"><path class="cls-1" d="M1.86,17.06v9.23c0,2.43,1,3.42,3.42,3.42h13c2.43,0,3.42-1,3.42-3.42V17.06c0-.24,0-.46,0-.67a.48.48,0,0,0,0-.08c-.2-1.88-1.22-2.67-3.38-2.67h-13C2.85,13.64,1.86,14.63,1.86,17.06Zm1,9.23V17.06c0-.13,0-.23,0-.35L9.7,21.08l0,.09H7a.5.5,0,0,0-.48.64l.61,2.06,0,0L3.92,25.73a.5.5,0,0,0-.22.61l.85,2.32C3.27,28.51,2.86,27.88,2.86,26.28Zm17.87-5.11H17.25l-.43-1.74,3.91-2.2ZM5.63,28.7l-.85-2.31,5.51-3.14.11.09L7,28.7Zm2-6.53h2a2.16,2.16,0,0,0,.08.24L8,23.39Zm4.13-1.69a1.19,1.19,0,1,1-1.19,1.19A1.19,1.19,0,0,1,11.8,20.48Zm-.49,3.31.15,0V28.7H8.2Zm1.15,4.44,2.31-.66.66,1.13h-3Zm0-1V23.74l.08,0,1.71,3Zm1.47-5h2.22l-.46,1.23-1.77-1.19Zm0-1,0-.09,2-1.14.3,1.23Zm-.51-1-.1-.11,2.21-3.44,1.37,1.59Zm-1-.61-.14,0,.13-4.91h3.19Zm-1.14-.05-.16,0-2.75-5h3Zm-1,.55-.1.11L7,18.14l1.42-1.48Zm8,8.61H16.57l-3.2-5.53.06-.08,2.2,1.49a.5.5,0,0,0,.28.09l.15,0a.5.5,0,0,0,.32-.3l.81-2.18h3.53v4.11C20.73,28.16,20.19,28.7,18.31,28.7Zm2.34-12.58-2.87,1.62-1.7-2,.73-1.14h1.49C19.82,14.64,20.46,15,20.65,16.12ZM5.28,14.64h2l.61,1.11L6.1,17.59l-3-1.95C3.36,14.9,4,14.64,5.28,14.64Z"/><path class="cls-1" d="M26.48,29.7h0c2.43,0,3.42-1,3.42-3.42V22.06c0-2.43-1-3.42-3.44-3.42s-3.42,1-3.42,3.42v4.22C23.06,28.71,24.05,29.7,26.48,29.7Zm-2.42-7.64c0-1.88.54-2.42,2.44-2.42s2.42.54,2.42,2.42v4.22c0,1.88-.54,2.42-2.42,2.42h0c-1.88,0-2.42-.54-2.42-2.42Z"/><circle class="cls-1" cx="24.87" cy="16.39" r="1.38"/><circle class="cls-1" cx="28.1" cy="16.39" r="1.38"/><path class="cls-1" d="M21.32,9.09A3.49,3.49,0,0,0,24.77,6h4.07a1.54,1.54,0,0,0,3-.5v-2a1.54,1.54,0,0,0-3-.5H24.77A3.49,3.49,0,0,0,21.32,0H3.5A3.5,3.5,0,0,0,0,3.5V5.59a3.5,3.5,0,0,0,3.5,3.5H10l1.16,1.16A2.3,2.3,0,0,0,10,11.75H4.42A4.43,4.43,0,0,0,0,16.17v11a4.43,4.43,0,0,0,4.42,4.42h23a4.43,4.43,0,0,0,4.42-4.42v-11a4.43,4.43,0,0,0-4.42-4.42H14.55a2.3,2.3,0,0,0-1.13-1.51l1.16-1.16Zm9.52,7.09v11a3.42,3.42,0,0,1-3.42,3.42h-23A3.42,3.42,0,0,1,1,27.16v-11a3.42,3.42,0,0,1,3.42-3.42h23A3.42,3.42,0,0,1,30.84,16.17ZM3.5,8.09A2.5,2.5,0,0,1,1,5.59V3.5A2.5,2.5,0,0,1,3.5,1H21.32a2.5,2.5,0,0,1,2.5,2.5V5.59a2.5,2.5,0,0,1-2.5,2.5H15.58l2.33-2.33A1.32,1.32,0,1,0,17.2,5l-3,3H10.43l-3-3a1.32,1.32,0,1,0-.71.71L9,8.09Zm8.81,1.86h0l-.86-.86h1.74Z"/></g></g></svg>