<svg xmlns="http://www.w3.org/2000/svg" viewBox="0 0 32 31.85"><defs><style>.cls-1{fill:#02B8EF;}</style></defs><title>playlist_icon_blue</title><g id="Layer_2" data-name="Layer 2"><g id="Layer_1-2" data-name="Layer 1"><path class="cls-1" d="M30,12.85V9.35a.5.5,0,0,0-.5-.5H2.5a.5.5,0,0,0-.5.5v3.5H0v19H32v-19Zm-27-3H5v1H27v-1h2v3H3Zm28,21H1v-17H31Z"/><path class="cls-1" d="M13,26.85h6v-6H13Zm1-5h4v4H14Z"/><path class="cls-1" d="M7,29.85a5,5,0,1,0-5-5A5,5,0,0,0,7,29.85Zm0-9a4,4,0,1,1-4,4A4,4,0,0,1,7,20.85Z"/><circle class="cls-1" cx="7" cy="24.85" r="2.5"/><path class="cls-1" d="M25,19.85a5,5,0,1,0,5,5A5,5,0,0,0,25,19.85Zm0,9a4,4,0,1,1,4-4A4,4,0,0,1,25,28.85Z"/><circle class="cls-1" cx="25" cy="24.85" r="2.5"/><path class="cls-1" d="M18.5,27.85h-5a.5.5,0,0,0,0,1h5a.5.5,0,0,0,0-1Z"/><circle class="cls-1" cx="4" cy="16.85" r="1.5"/><circle class="cls-1" cx="28" cy="16.85" r="1.5"/><rect class="cls-1" x="15" y="22.85" width="2" height="2" rx="0.5" ry="0.5"/><rect class="cls-1" x="7" y="14.85" width="18" height="4" rx="0.5" ry="0.5"/><path class="cls-1" d="M20.9,4.07a.5.5,0,0,0-.37-.6,19.28,19.28,0,0,0-8.12-.19.5.5,0,1,0,.18,1,18.3,18.3,0,0,1,7.72.18h.11A.5.5,0,0,0,20.9,4.07Z"/><path class="cls-1" d="M12.13,1.33a23.07,23.07,0,0,1,8.63.16h.1a.5.5,0,0,0,.1-1,24.21,24.21,0,0,0-9-.17.5.5,0,0,0-.41.57A.49.49,0,0,0,12.13,1.33Z"/><path class="cls-1" d="M20.08,6.4a17.06,17.06,0,0,0-7.23-.21.5.5,0,0,0,.18,1,16.13,16.13,0,0,1,6.81.19H20a.5.5,0,0,0,.12-1Z"/></g></g></svg>
