<svg xmlns="http://www.w3.org/2000/svg" viewBox="0 0 11.05 14.32"><defs><style>.cls-1{fill:#02b8ef;}</style></defs><title>profile_icon_blue</title><g id="Layer_2" data-name="Layer 2"><g id="Layer_1-2" data-name="Layer 1"><path class="cls-1" d="M5.52,0C2.47,0,0,2.81,0,6.28a6.66,6.66,0,0,0,1.82,4.64v1.87A.5.5,0,0,0,2,13.2a6,6,0,0,0,7,0,.5.5,0,0,0,.21-.41V10.92A6.66,6.66,0,0,0,11,6.28C11,2.81,8.57,0,5.52,0ZM2.87,8.06A1.49,1.49,0,1,1,4.37,6.56,1.49,1.49,0,0,1,2.87,8.06Zm3.45,2.59a.25.25,0,0,1-.31,0l-.49-.49L5,10.61a.25.25,0,0,1-.42-.25l.63-2.07a.25.25,0,0,1,.24-.18h0a.25.25,0,0,1,.24.17l.7,2.07A.25.25,0,0,1,6.32,10.64ZM8.17,8.06A1.49,1.49,0,1,1,9.67,6.56,1.49,1.49,0,0,1,8.17,8.06Z"/></g></g></svg>