<svg xmlns="http://www.w3.org/2000/svg" viewBox="0 0 31.88 31.44"><defs><style>.cls-1{fill:#00259a;}</style></defs><title>weeklyresultsicon</title><g id="Layer_2" data-name="Layer 2"><g id="Layer_1-2" data-name="Layer 1"><path class="cls-1" d="M31.2,26H22.6a.5.5,0,0,0-.5.5v4.44a.5.5,0,0,0,.5.5H31.2a.5.5,0,0,0,.5-.5V26.5A.5.5,0,0,0,31.2,26Zm-.5,4.44H23.1V27H30.7Z"/><path class="cls-1" d="M20.28,18.31H11.68a.5.5,0,0,0-.5.5V30.94a.5.5,0,0,0,.5.5h8.61a.5.5,0,0,0,.5-.5V18.81A.5.5,0,0,0,20.28,18.31Zm-.5,12.13H12.18V19.31h7.61Z"/><path class="cls-1" d="M9.37,22H.76a.5.5,0,0,0-.5.5v8.44a.5.5,0,0,0,.5.5H9.37a.5.5,0,0,0,.5-.5V22.5A.5.5,0,0,0,9.37,22Zm-.5,8.44H1.26V23H8.87Z"/><path class="cls-1" d="M20.21,0a.76.76,0,0,0-.75.75V3.26L18.07,4.64a2.41,2.41,0,0,0-4.18,0L12.51,3.26V.75A.75.75,0,0,0,11,.75V3.52a.74.74,0,0,0,.08.32.73.73,0,0,0,.17.29l2.29,2.29V8.13a2.41,2.41,0,0,0,.53,1.49v6.84a.85.85,0,0,0,1.7,0V10.55l.21,0,.21,0v5.92a.85.85,0,0,0,1.7,0V9.62a2.41,2.41,0,0,0,.53-1.49V6.42l2.29-2.29a.73.73,0,0,0,.17-.29A.74.74,0,0,0,21,3.52V.75A.76.76,0,0,0,20.21,0Z"/><circle class="cls-1" cx="15.98" cy="1.5" r="1.5"/><path class="cls-1" d="M31.88,8.41a.75.75,0,0,0-1.51,0v2.51L29,12.29a2.42,2.42,0,0,0-4.36.37l-1.88,1.88a1.14,1.14,0,0,0-.25.61v2.77a.75.75,0,0,0,1.51,0V15.41l.45-.45v.83A2.41,2.41,0,0,0,25,17.28v6.84a.85.85,0,1,0,1.7,0V18.2l.21,0,.21,0v5.92a.85.85,0,1,0,1.7,0V17.28a2.41,2.41,0,0,0,.53-1.49V14.08l2.29-2.29a.73.73,0,0,0,.17-.29.74.74,0,0,0,.08-.32Z"/><circle class="cls-1" cx="26.9" cy="9.15" r="1.5"/><path class="cls-1" d="M2.54,10.13v1.71a2.41,2.41,0,0,0,.53,1.49v6.84a.85.85,0,0,0,1.7,0V14.25l.21,0,.21,0v5.92a.85.85,0,0,0,1.7,0V13.33a2.41,2.41,0,0,0,.53-1.49V11l.45.45V14a.75.75,0,1,0,1.51,0V11.2a.74.74,0,0,0-.08-.32.73.73,0,0,0-.17-.29L7.25,8.71a2.42,2.42,0,0,0-4.36-.37L1.51,7V4.46A.75.75,0,0,0,0,4.46V7.23a.74.74,0,0,0,.08.32.73.73,0,0,0,.17.29Z"/><circle class="cls-1" cx="4.98" cy="5.2" r="1.5"/></g></g></svg>