<svg xmlns="http://www.w3.org/2000/svg" viewBox="0 0 50 50"><defs><style>.cls-1{fill:#fff;}.cls-2{fill:#02b8ef;}</style></defs><title>save_icon</title><g id="Layer_2" data-name="Layer 2"><g id="Layer_1-2" data-name="Layer 1"><circle class="cls-1" cx="25" cy="25" r="25"/><path class="cls-2" d="M38.47,25a2.34,2.34,0,0,0-1.91-2.3,2.34,2.34,0,0,0-1.76-4.25,2.34,2.34,0,0,0-3.25-3.25,2.34,2.34,0,0,0-4.25-1.76,2.34,2.34,0,0,0-4.6,0,2.34,2.34,0,0,0-4.25,1.76,2.34,2.34,0,0,0-3.25,3.25,2.34,2.34,0,0,0-1.76,4.25,2.34,2.34,0,0,0,0,4.6,2.34,2.34,0,0,0,1.76,4.25,2.34,2.34,0,0,0,3.25,3.25,2.34,2.34,0,0,0,4.25,1.76,2.34,2.34,0,0,0,4.6,0,2.34,2.34,0,0,0,4.25-1.76,2.34,2.34,0,0,0,3.25-3.25,2.34,2.34,0,0,0,1.76-4.25A2.34,2.34,0,0,0,38.47,25Zm-6.94-2.91-8.5,8a1.5,1.5,0,0,1-2.09,0l-2.5-2.5a1.5,1.5,0,0,1,2.12-2.12L22,26.91l7.44-7a1.5,1.5,0,1,1,2.06,2.18Z"/></g></g></svg>