<svg xmlns="http://www.w3.org/2000/svg" viewBox="0 0 12 12"><defs><style>.cls-1{fill:#02b8ef;}</style></defs><title>settings_icon_blue</title><g id="Layer_2" data-name="Layer 2"><g id="Layer_1-2" data-name="Layer 1"><path class="cls-1" d="M11.22,4.52h-.7a4.72,4.72,0,0,0-.28-.67l.5-.5a.78.78,0,0,0,0-1.1l-1-1a.78.78,0,0,0-1.1,0l-.5.5a4.72,4.72,0,0,0-.67-.28V.78A.78.78,0,0,0,6.7,0H5.3a.78.78,0,0,0-.78.78v.7a4.72,4.72,0,0,0-.67.28l-.5-.5a.78.78,0,0,0-1.1,0l-1,1a.78.78,0,0,0,0,1.1l.5.5a4.72,4.72,0,0,0-.28.67H.78A.78.78,0,0,0,0,5.3V6.7a.78.78,0,0,0,.78.78h.7a4.72,4.72,0,0,0,.28.67l-.5.5a.78.78,0,0,0,0,1.1l1,1a.78.78,0,0,0,1.1,0l.5-.5a4.72,4.72,0,0,0,.67.28v.7A.78.78,0,0,0,5.3,12H6.7a.78.78,0,0,0,.78-.78v-.7a4.72,4.72,0,0,0,.67-.28l.5.5a.78.78,0,0,0,1.1,0l1-1a.78.78,0,0,0,0-1.1l-.5-.5a4.72,4.72,0,0,0,.28-.67h.7A.78.78,0,0,0,12,6.7V5.3A.78.78,0,0,0,11.22,4.52ZM6,8.4A2.4,2.4,0,1,1,8.4,6,2.4,2.4,0,0,1,6,8.4Z"/><circle class="cls-1" cx="6" cy="6" r="1"/></g></g></svg>