<svg xmlns="http://www.w3.org/2000/svg" viewBox="0 0 37.55 45.81"><defs><style>.cls-1{fill:#fff;}</style></defs><title>site_logo</title><g id="Layer_2" data-name="Layer 2"><g id="Layer_1-2" data-name="Layer 1"><path class="cls-1" d="M17.29,21.93v3.21h-1.1L10.61,44.42v0h0a1.07,1.07,0,0,0,1.91.9l4.36-5.95a2.55,2.55,0,0,1,1.91-1,2.55,2.55,0,0,1,1.91,1L25,45.34a1.07,1.07,0,0,0,1.91-.9h0v0L21.36,25.13H20.19V21.87L18.77,20.7Zm0,9.34h3v2.28h-3ZM21,35.49a.48.48,0,0,1-.48.48H17.05a.48.48,0,0,1,0-1H20.5A.48.48,0,0,1,21,35.49ZM20.26,28V30.3h-3V28h3Z"/><polygon class="cls-1" points="20.33 10.53 20.33 6.93 17.43 6.93 17.43 10.47 18.92 11.7 20.33 10.53"/><polygon class="cls-1" points="20.33 0 17.43 0 17.43 5.96 21.73 5.96 20.33 0"/><path class="cls-1" d="M37.19,28.37a1,1,0,0,0-1.42.13l-4-3.3,2-2.4h0a1,1,0,1,0-1.5.05l-.63.76L22.71,16.2l7.37-6.11L32.3,5,26.87,6.23l-4.78,4-1.9,1.58-1.41,1.17-1.48-1.23L15,9.79,10.68,6.23,5.25,5l2.22,5.11,7.37,6.11L5.9,23.61l-.63-.76a1,1,0,1,0-1.5-.05h0l2,2.4-4,3.3A1,1,0,1,0,.23,29.79L2,31.91a1,1,0,0,0,1.55-1.29l4-3.3,2,2.4h0a1,1,0,1,0,.22-1.49l-.63-.76,4.47-3.71,3.72-3.08,1.48-1.23,1.41,1.17L24,23.77l4.47,3.71-.63.76A1,1,0,1,0,28,29.72h0l2-2.4,4,3.3a1,1,0,0,0,1.55,1.29l1.76-2.12A1,1,0,0,0,37.19,28.37ZM27.48,9a.48.48,0,0,1-.06.67l-6.29,5.24-.74-.62,6.43-5.36A.48.48,0,0,1,27.48,9ZM10.14,23.89a.48.48,0,0,1-.3-.84l6.62-5.52.74.62-6.75,5.63A.47.47,0,0,1,10.14,23.89Zm17.63-.17a.48.48,0,0,1-.67.06l-6.75-5.63L20.19,18l-1.41-1.18L18,16.22l-.74-.62-.87-.72L10.14,9.64a.48.48,0,1,1,.61-.73l6.43,5.36.12.1,1.48,1.24.74.62.67.56.91.76,6.62,5.52A.48.48,0,0,1,27.78,23.72Z"/></g></g></svg>