<svg xmlns="http://www.w3.org/2000/svg" viewBox="0 0 163.38 49"><defs><style>.cls-1{fill:#fff;fill-rule:evenodd;}</style></defs><title>spotifylogo.svg</title><g id="Layer_2" data-name="Layer 2"><g id="Layer_1-2" data-name="Layer 1"><path class="cls-1" d="M24.5,0A24.5,24.5,0,1,0,49,24.5,24.5,24.5,0,0,0,24.5,0ZM35.74,35.34a1.53,1.53,0,0,1-2.1.51c-5.75-3.51-13-4.31-21.52-2.36a1.53,1.53,0,0,1-.68-3c9.33-2.13,17.34-1.21,23.8,2.73A1.53,1.53,0,0,1,35.74,35.34Zm3-6.67a1.91,1.91,0,0,1-2.63.63c-6.59-4-16.62-5.22-24.41-2.86a1.91,1.91,0,1,1-1.11-3.66c8.9-2.7,20-1.39,27.52,3.26a1.91,1.91,0,0,1,.63,2.63ZM39,21.72C31.1,17,18.07,16.6,10.53,18.89A2.29,2.29,0,1,1,9.2,14.5c8.65-2.63,23-2.12,32.13,3.28A2.29,2.29,0,1,1,39,21.72Zm27.67.9c-4.23-1-5-1.72-5-3.2S63,17.06,65,17.06a9.62,9.62,0,0,1,5.78,2.2.28.28,0,0,0,.39-.06l2.07-2.91a.28.28,0,0,0-.05-.38A12.5,12.5,0,0,0,65,13.09c-4.57,0-7.76,2.74-7.76,6.66,0,4.21,2.75,5.7,7.51,6.84,4,.93,4.73,1.71,4.73,3.11,0,1.55-1.38,2.51-3.6,2.51a9.73,9.73,0,0,1-6.74-2.78.29.29,0,0,0-.2-.07.28.28,0,0,0-.19.1l-2.32,2.76a.28.28,0,0,0,0,.39,13.81,13.81,0,0,0,9.33,3.58c4.92,0,8.1-2.69,8.1-6.85,0-3.51-2.09-5.46-7.25-6.71ZM85,18.45A6.64,6.64,0,0,0,79.72,21V19.07a.28.28,0,0,0-.28-.28H75.66a.28.28,0,0,0-.28.28V40.6a.28.28,0,0,0,.28.28h3.79a.28.28,0,0,0,.28-.28v-6.8A6.81,6.81,0,0,0,85,36.22c4,0,8-3.05,8-8.88s-4-8.89-8-8.89Zm3.57,8.89c0,3-1.83,5-4.45,5s-4.54-2.17-4.54-5,2-5,4.54-5,4.45,2.12,4.45,5Zm14.69-8.89a8.9,8.9,0,1,0,9.07,8.89,8.93,8.93,0,0,0-9.07-8.89Zm0,14a4.82,4.82,0,0,1-4.76-5.07,4.7,4.7,0,0,1,4.7-5A4.83,4.83,0,0,1,108,27.39,4.72,4.72,0,0,1,103.31,32.4Zm20-13.61h-4.17V14.53a.28.28,0,0,0-.28-.28h-3.79a.28.28,0,0,0-.28.28v4.26H113a.28.28,0,0,0-.27.28v3.26a.28.28,0,0,0,.27.28h1.82V31c0,3.4,1.69,5.13,5,5.13a6.9,6.9,0,0,0,3.55-.88.27.27,0,0,0,.14-.24v-3.1a.28.28,0,0,0-.13-.23.27.27,0,0,0-.27,0,4.78,4.78,0,0,1-2.22.54c-1.21,0-1.76-.55-1.76-1.79V22.6h4.17a.28.28,0,0,0,.27-.28V19.07a.27.27,0,0,0-.27-.28Zm14.52,0v-.52c0-1.54.59-2.23,1.91-2.23a6.4,6.4,0,0,1,2.14.39.28.28,0,0,0,.36-.26V13a.27.27,0,0,0-.2-.27,10.38,10.38,0,0,0-3.15-.45c-3.5,0-5.35,2-5.35,5.7v.8h-1.82a.28.28,0,0,0-.28.28v3.27a.28.28,0,0,0,.28.28h1.82v13a.28.28,0,0,0,.28.28h3.79a.28.28,0,0,0,.28-.28v-13h3.54l5.42,13c-.61,1.36-1.22,1.64-2,1.64a4.34,4.34,0,0,1-2.09-.59.3.3,0,0,0-.22,0,.28.28,0,0,0-.16.15L141,39.58a.28.28,0,0,0,.12.36,8,8,0,0,0,4,1c2.8,0,4.34-1.3,5.71-4.81l6.57-17a.28.28,0,0,0-.25-.38h-3.94A.28.28,0,0,0,153,19l-4,11.54L144.54,19a.28.28,0,0,0-.26-.18h-6.47Zm-8.42,0H125.6a.28.28,0,0,0-.28.28V35.59a.28.28,0,0,0,.28.28h3.79a.28.28,0,0,0,.28-.28V19.07a.28.28,0,0,0-.28-.28Zm-1.87-7.52A2.72,2.72,0,1,0,130.23,14,2.72,2.72,0,0,0,127.51,11.27ZM160.7,24.1a2.67,2.67,0,1,1,2.68-2.68A2.66,2.66,0,0,1,160.7,24.1Zm0-5.08a2.41,2.41,0,1,0,2.38,2.4A2.38,2.38,0,0,0,160.71,19Zm.59,2.67.75,1.06h-.64l-.68-1h-.58v1h-.53V20h1.25c.65,0,1.08.33,1.08.89a.83.83,0,0,1-.65.85Zm-.45-1.26h-.69v.89h.69c.35,0,.55-.17.55-.44S161.2,20.44,160.85,20.44Z"/></g></g></svg>