<svg xmlns="http://www.w3.org/2000/svg" viewBox="0 0 31.81 32.29"><defs><style>.cls-1{fill:#fff;}</style></defs><title>submit_white</title><g id="Layer_2" data-name="Layer 2"><g id="Layer_1-2" data-name="Layer 1"><path class="cls-1" d="M19.64,28.14a.5.5,0,0,0,.39-.19l9-11.49a.5.5,0,0,0,0-.62L20,4.34a.5.5,0,0,0-.89.31V13h-.49a9.57,9.57,0,1,0,.08,6h.41v8.62a.5.5,0,0,0,.34.47ZM9.58,8.16A8,8,0,0,1,16.94,13H15.83A7,7,0,0,0,9.58,9.16a.5.5,0,0,1,0-1Zm0,1.73A6.25,6.25,0,0,1,15,13H13.8a5.24,5.24,0,0,0-4.22-2.15.5.5,0,0,1,0-1Zm0,14.23a8,8,0,0,1-8-8,.5.5,0,0,1,1,0,7,7,0,0,0,7,7,.5.5,0,0,1,0,1Zm0-1.73a6.26,6.26,0,0,1-6.25-6.25.5.5,0,0,1,1,0A5.26,5.26,0,0,0,9.58,21.4a.5.5,0,0,1,0,1ZM19,18H13.12A4,4,0,1,1,13,14h6.64a.5.5,0,0,0,.5-.5V6.1l7.85,10-7.85,10V18.52a.5.5,0,0,0-.5-.5Z"/><path class="cls-1" d="M31.31,0H19.88a.5.5,0,0,0,0,1H30.81V31.29H19.88a.5.5,0,0,0,0,1H31.31a.5.5,0,0,0,.5-.5V.5A.5.5,0,0,0,31.31,0Z"/><path class="cls-1" d="M10.17,5.15h6.69a.5.5,0,0,0,0-1H10.17a.5.5,0,0,0,0,1Z"/><path class="cls-1" d="M6.11,5.15H7.74a.5.5,0,0,0,0-1H6.11a.5.5,0,0,0,0,1Z"/><path class="cls-1" d="M3,5.15h.88a.5.5,0,0,0,0-1H3a.5.5,0,0,0,0,1Z"/><path class="cls-1" d="M16.86,27.14H10.17a.5.5,0,0,0,0,1h6.69a.5.5,0,0,0,0-1Z"/><path class="cls-1" d="M7.74,27.14H6.11a.5.5,0,1,0,0,1H7.74a.5.5,0,0,0,0-1Z"/><path class="cls-1" d="M3.92,27.14H3a.5.5,0,1,0,0,1h.88a.5.5,0,0,0,0-1Z"/><circle class="cls-1" cx="9.47" cy="16.25" r="0.62"/></g></g></svg>