<svg xmlns="http://www.w3.org/2000/svg" viewBox="0 0 30.31 31.8"><defs><style>.cls-1{fill:#d4d4d4;}</style></defs><title>swords_gray</title><g id="Layer_2" data-name="Layer 2"><g id="Layer_1-2" data-name="Layer 1"><path class="cls-1" d="M20.74,21.53,6.06,6.85a.5.5,0,0,0-.71.71L20,22.23a.5.5,0,0,0,.71-.71Z"/><path class="cls-1" d="M29.86,27.78a1.58,1.58,0,0,0-1.76-.29l-3.33-3.33,2-2a1.07,1.07,0,1,0-1.15-.26l-.35.35L5.3,2.39A.5.5,0,0,0,5,2.25L.58,1.56a.51.51,0,0,0-.43.14A.5.5,0,0,0,0,2.13L.7,6.58a.5.5,0,0,0,.14.28l20,19.85-.41.41a1.07,1.07,0,1,0,.26,1.15l2-2L26,29.59a1.54,1.54,0,0,0,2.47,1.76l1.4-1.4A1.54,1.54,0,0,0,29.86,27.78ZM1.66,6.26,1.1,2.65l3.61.56L24.57,22.94,21.51,26Z"/><path class="cls-1" d="M13,21.86,8.81,26,5.75,22.94l4.19-4.17a.5.5,0,1,0-.71-.71L5,22.23l-.35-.35a1.07,1.07,0,1,0-1.15.26l2,2L2.21,27.48a1.58,1.58,0,0,0-1.76.29A1.54,1.54,0,0,0,.45,30l1.4,1.4a1.54,1.54,0,0,0,2.47-1.76l3.33-3.33,2,2a1.07,1.07,0,1,0,.26-1.15l-.41-.41,4.16-4.14a.5.5,0,0,0-.71-.71Z"/><path class="cls-1" d="M16.42,11.63a.5.5,0,0,0,.71,0L25.6,3.21l3.61-.56-.56,3.61-8.13,8.08a.5.5,0,1,0,.71.71l8.24-8.19a.5.5,0,0,0,.14-.28l.69-4.45a.5.5,0,0,0-.57-.57l-4.45.69a.5.5,0,0,0-.28.14l-8.59,8.53A.5.5,0,0,0,16.42,11.63Z"/><path class="cls-1" d="M25,6.85a.5.5,0,0,0-.71,0l-5.78,5.78a.5.5,0,1,0,.71.71L25,7.55A.5.5,0,0,0,25,6.85Z"/><path class="cls-1" d="M9.57,22.23a.5.5,0,0,0,.71,0l1.52-1.52a.5.5,0,0,0-.71-.71L9.57,21.53A.5.5,0,0,0,9.57,22.23Z"/><path class="cls-1" d="M13.2,4.09l-.29,1.69a.5.5,0,0,0,.73.53l1.52-.8,1.52.8a.5.5,0,0,0,.73-.53l-.29-1.69,1.23-1.2A.5.5,0,0,0,18.06,2l-1.7-.25L15.61.26a.52.52,0,0,0-.9,0L14,1.79,12.25,2a.5.5,0,0,0-.28.85Z"/></g></g></svg>