<svg xmlns="http://www.w3.org/2000/svg" viewBox="0 0 21.83 21.83"><defs><style>.cls-1{fill:#02b8ef;}</style></defs><title>trash_icon</title><g id="Layer_2" data-name="Layer 2"><g id="Layer_1-2" data-name="Layer 1"><path class="cls-1" d="M17.41,21.83h-13A4.43,4.43,0,0,1,0,17.41v-13A4.43,4.43,0,0,1,4.42,0h13a4.43,4.43,0,0,1,4.42,4.42v13A4.43,4.43,0,0,1,17.41,21.83ZM4.42,1A3.42,3.42,0,0,0,1,4.42v13a3.42,3.42,0,0,0,3.42,3.42h13a3.42,3.42,0,0,0,3.42-3.42v-13A3.42,3.42,0,0,0,17.41,1Z"/><path class="cls-1" d="M16.17,6.86H13.09V4.93a.5.5,0,0,0-.5-.5H8.77a.5.5,0,0,0-.5.5V6.86H5.67a.5.5,0,0,0,0,1h.69v9a.5.5,0,0,0,.5.5H14.5a.5.5,0,0,0,.5-.5v-9h1.17a.5.5,0,0,0,0-1Zm-7.4,8.23a.5.5,0,1,1-1,0V9.36a.5.5,0,0,1,1,0Zm2.41,0a.5.5,0,0,1-1,0V9.36a.5.5,0,0,1,1,0Zm.91-8.23H9.27V5.43h2.82Zm1.5,8.23a.5.5,0,0,1-1,0V9.36a.5.5,0,0,1,1,0Z"/></g></g></svg>