<svg xmlns="http://www.w3.org/2000/svg" viewBox="0 0 32.99 32.99"><defs><style>.cls-1{fill:#5fcc34;}.cls-2{fill:#fff;}</style></defs><title>upvote</title><g id="Layer_2" data-name="Layer 2"><g id="Layer_1-2" data-name="Layer 1"><circle class="cls-1" cx="16.5" cy="16.5" r="16"/><path class="cls-2" d="M16.5,33A16.5,16.5,0,1,1,33,16.5,16.52,16.52,0,0,1,16.5,33Zm0-32A15.5,15.5,0,1,0,32,16.5,15.51,15.51,0,0,0,16.5,1Z"/><path class="cls-2" d="M16.5,24.69a1,1,0,0,1-.59-.19C15.1,23.91,8,18.62,8,14.18a4.93,4.93,0,0,1,4.21-5.12,4.54,4.54,0,0,1,4.31,2.11A4.52,4.52,0,0,1,20.8,9.06h0A4.93,4.93,0,0,1,25,14.18c0,4.43-7.12,9.73-7.93,10.32A1,1,0,0,1,16.5,24.69ZM12.67,10l-.37,0A4,4,0,0,0,9,14.18c0,3.21,4.92,7.63,7.52,9.51C19.1,21.8,24,17.38,24,14.18a4,4,0,0,0-3.33-4.13,3.62,3.62,0,0,0-3.74,2.34.52.52,0,0,1-.91,0A3.74,3.74,0,0,0,12.67,10Z"/><path class="cls-2" d="M22.28,14.65a.5.5,0,0,1-.5-.5A1.74,1.74,0,0,0,20,12.42a.5.5,0,0,1,0-1,2.74,2.74,0,0,1,2.73,2.73A.5.5,0,0,1,22.28,14.65Z"/></g></g></svg>