<svg xmlns="http://www.w3.org/2000/svg" viewBox="0 0 31.44 31.44"><defs><style>.cls-1{fill:#fff;}</style></defs><title>vote_white</title><g id="Layer_2" data-name="Layer 2"><g id="Layer_1-2" data-name="Layer 1"><path class="cls-1" d="M30.94,0H.5A.5.5,0,0,0,0,.5V30.94a.5.5,0,0,0,.5.5H30.94a.5.5,0,0,0,.5-.5V.5A.5.5,0,0,0,30.94,0Zm-.5,30.44H1V1H30.44Z"/><path class="cls-1" d="M22.53,14.56a4.79,4.79,0,1,0-4.79-4.79A4.79,4.79,0,0,0,22.53,14.56Zm0-8.65a3.86,3.86,0,0,1,3.86,3.86.5.5,0,1,1-1,0,2.86,2.86,0,0,0-2.86-2.86.5.5,0,0,1,0-1Zm0,1.85a2,2,0,1,1-2,2A2,2,0,0,1,22.53,7.75ZM19.17,9.26a.5.5,0,0,1,.5.5,2.86,2.86,0,0,0,2.86,2.86.5.5,0,0,1,0,1,3.86,3.86,0,0,1-3.86-3.86A.5.5,0,0,1,19.17,9.26Z"/><path class="cls-1" d="M7,14.6a.5.5,0,0,0,.71,0L15,7.24a.5.5,0,0,0,0-.71L13.43,4.93a.51.51,0,0,0-.71,0L7.33,10.32,6.08,9.07a.5.5,0,0,0-.71,0L3.76,10.67a.5.5,0,0,0,0,.71ZM5.72,10.13,7,11.38a.51.51,0,0,0,.71,0L13.08,6l.9.9L7.33,13.54,4.82,11Z"/><path class="cls-1" d="M22.53,26.47a4.79,4.79,0,1,0-4.79-4.79A4.79,4.79,0,0,0,22.53,26.47Zm0-8.65a3.86,3.86,0,0,1,3.86,3.86.5.5,0,0,1-1,0,2.86,2.86,0,0,0-2.86-2.86.5.5,0,0,1,0-1Zm0,1.85a2,2,0,1,1-2,2A2,2,0,0,1,22.53,19.67Zm-3.36,1.51a.5.5,0,0,1,.5.5,2.86,2.86,0,0,0,2.86,2.86.5.5,0,0,1,0,1,3.86,3.86,0,0,1-3.86-3.86A.5.5,0,0,1,19.17,21.17Z"/><path class="cls-1" d="M7,26.51a.5.5,0,0,0,.71,0L15,19.15a.5.5,0,0,0,0-.71l-1.61-1.61a.51.51,0,0,0-.71,0L7.33,22.23,6.08,21a.5.5,0,0,0-.71,0L3.76,22.59a.5.5,0,0,0,0,.71ZM5.72,22,7,23.29a.51.51,0,0,0,.71,0l5.39-5.39.9.9L7.33,25.45,4.82,22.94Z"/></g></g></svg>