<svg xmlns="http://www.w3.org/2000/svg" viewBox="0 0 222.53 222.53"><defs><style>.cls-1{fill:#fbb03b;}.cls-2{fill:#00259a;}.cls-3{fill:#02b8ef;}.cls-4{fill:#fff;}</style></defs><title>bowie_avatar</title><g id="Layer_2" data-name="Layer 2"><g id="Layer_1-2" data-name="Layer 1"><circle class="cls-1" cx="111.26" cy="111.26" r="111.26"/><path class="cls-2" d="M150.1,132.09a25.5,25.5,0,0,1,2-9.89h0a39.67,39.67,0,0,0,3.29-13.94h.05v-23c0-23-19.72-41.72-44.16-42-24.43.27-44.16,19-44.16,42v23h.05a39.67,39.67,0,0,0,3.29,13.94h0a25.5,25.5,0,0,1,2,9.89c0,10.7-6.62,19.95-16.23,24.32,4,10,14,17.21,25.8,17.81v0h58.52v0c11.85-.6,21.82-7.83,25.8-17.81C156.72,152,150.1,142.79,150.1,132.09Z"/><path class="cls-3" d="M146.76,109.26a10,10,0,0,0-9-9.95c-.32,0-.65-.05-1-.05h-51c-.33,0-.66,0-1,.05a10,10,0,0,0-9,9.95v22c0,26.51,15.89,48,35.5,48s35.5-21.49,35.5-48v-22Z"/><path class="cls-4" d="M98.67,99.26,86,124.35a1.93,1.93,0,0,0,1.72,2.79h10L88.68,155.4a1.93,1.93,0,0,0,3.4,1.71l29.33-40.93a1.93,1.93,0,0,0-1.57-3h-9.37l7-13.87Z"/></g></g></svg>