<svg xmlns="http://www.w3.org/2000/svg" viewBox="0 0 278.16 278.16"><defs><style>.cls-1{fill:#fbb03b;}.cls-2{fill:#00259a;}.cls-3{fill:#02b8ef;}.cls-4{fill:#fff;}</style></defs><title>bowie_avatar</title><g id="Layer_2" data-name="Layer 2"><g id="Layer_1-2" data-name="Layer 1"><circle class="cls-1" cx="139.08" cy="139.08" r="139.08"/><path class="cls-2" d="M177.92,159.91a25.5,25.5,0,0,1,2-9.89h0a39.67,39.67,0,0,0,3.29-13.94h.05v-23c0-23-19.72-41.72-44.16-42-24.43.27-44.16,19-44.16,42v23H95A39.67,39.67,0,0,0,98.26,150h0a25.5,25.5,0,0,1,2,9.89c0,10.7-6.62,19.95-16.23,24.32,4,10,14,17.21,25.8,17.81v0h58.52v0c11.85-.6,21.82-7.83,25.8-17.81C184.54,179.85,177.92,170.61,177.92,159.91Z"/><path class="cls-3" d="M174.58,137.07a10,10,0,0,0-9-9.95c-.32,0-.65-.05-1-.05h-51c-.33,0-.66,0-1,.05a10,10,0,0,0-9,9.95v22c0,26.51,15.89,48,35.5,48s35.5-21.49,35.5-48v-22Z"/><path class="cls-4" d="M126.49,127.07l-12.66,25.09a1.93,1.93,0,0,0,1.72,2.79h10l-9.06,28.26a1.93,1.93,0,0,0,3.4,1.71L149.22,144a1.93,1.93,0,0,0-1.57-3h-9.37l7-13.87Z"/></g></g></svg>