<svg xmlns="http://www.w3.org/2000/svg" viewBox="0 0 222.53 222.53"><defs><style>.cls-1{fill:#fbb03b;}.cls-2{fill:#02b8ef;}.cls-3{fill:#fff;}.cls-4{fill:#00259a;}</style></defs><title>daft_avatar</title><g id="Layer_2" data-name="Layer 2"><g id="Layer_1-2" data-name="Layer 1"><circle class="cls-1" cx="111.26" cy="111.26" r="111.26"/><ellipse class="cls-2" cx="111.15" cy="131.13" rx="37.56" ry="47.68"/><ellipse class="cls-2" cx="111.15" cy="88.64" rx="41.69" ry="44.93"/><path class="cls-3" d="M83.14,111c0-27.17,9.9-50.82,24.5-63.05C89.68,57.47,76.89,82.1,76.89,111s12.8,53.52,30.76,63.05C93,161.81,83.14,138.16,83.14,111Z"/><rect class="cls-2" x="62.43" y="79.87" width="97.43" height="59.18" rx="10" ry="10"/><rect class="cls-2" x="54.76" y="96.02" width="113" height="26.89" rx="10" ry="10"/><rect class="cls-4" x="69.49" y="95.33" width="83.35" height="32.32" rx="10" ry="10"/><path class="cls-3" d="M99,95.33,95.37,99c0,.06,0,.14-24.09,24.34A10.1,10.1,0,0,0,75,126.56l31.14-31.23Z"/><polygon class="cls-3" points="80.2 95.33 69.49 106.13 69.49 117.52 91.62 95.33 80.2 95.33"/><path class="cls-3" d="M110,95.33l-32.1,32.19a9.92,9.92,0,0,0,1.54.13h1.39l32.23-32.32Z"/><circle class="cls-3" cx="81.14" cy="70.34" r="2.5"/><circle class="cls-3" cx="84.64" cy="63.82" r="1.38" transform="translate(14.45 143.25) rotate(-85.55)"/><circle class="cls-3" cx="87.68" cy="59.3" r="1.12"/></g></g></svg>