<svg xmlns="http://www.w3.org/2000/svg" viewBox="0 0 278.16 278.16"><defs><style>.cls-1{fill:#fbb03b;}.cls-2{fill:#02b8ef;}.cls-3{fill:#fff;}.cls-4{fill:#00259a;}</style></defs><title>daft_avatar</title><g id="Layer_2" data-name="Layer 2"><g id="Layer_1-2" data-name="Layer 1"><circle class="cls-1" cx="139.08" cy="139.08" r="139.08"/><ellipse class="cls-2" cx="138.96" cy="158.95" rx="37.56" ry="47.68"/><ellipse class="cls-2" cx="138.96" cy="116.46" rx="41.69" ry="44.93"/><path class="cls-3" d="M111,138.81c0-27.17,9.9-50.82,24.5-63.05-18,9.53-30.76,34.16-30.76,63.05s12.8,53.52,30.76,63.05C120.86,189.62,111,166,111,138.81Z"/><rect class="cls-2" x="90.25" y="107.69" width="97.43" height="59.18" rx="10" ry="10"/><rect class="cls-2" x="82.58" y="123.83" width="113" height="26.89" rx="10" ry="10"/><rect class="cls-4" x="97.3" y="123.15" width="83.35" height="32.32" rx="10" ry="10"/><path class="cls-3" d="M126.86,123.15l-3.67,3.67c0,.06,0,.14-24.09,24.34a10.1,10.1,0,0,0,3.69,3.22l31.14-31.23Z"/><polygon class="cls-3" points="108.02 123.15 97.3 133.95 97.3 145.34 119.43 123.15 108.02 123.15"/><path class="cls-3" d="M137.86,123.15l-32.1,32.19a9.92,9.92,0,0,0,1.54.13h1.39l32.23-32.32Z"/><circle class="cls-3" cx="108.96" cy="98.15" r="2.5"/><circle class="cls-3" cx="112.46" cy="91.63" r="1.38" transform="translate(12.37 196.64) rotate(-85.55)"/><circle class="cls-3" cx="115.5" cy="87.11" r="1.12"/></g></g></svg>