<svg xmlns="http://www.w3.org/2000/svg" viewBox="0 0 222.53 222.53"><defs><style>.cls-1{fill:#fbb03b;}.cls-2{fill:red;}.cls-3{fill:#00259a;}.cls-4{fill:#02b8ef;}.cls-5{fill:none;}.cls-6{fill:#fff;}</style></defs><title>DMC_avatar</title><g id="Layer_2" data-name="Layer 2"><g id="Layer_1-2" data-name="Layer 1"><circle class="cls-1" cx="111.26" cy="111.26" r="111.26"/><path class="cls-2" d="M59.67,150.12a7.33,7.33,0,0,1,.47,2,6,6,0,0,1,0,1.11,7,7,0,0,1-.17,1.06,6.88,6.88,0,0,1-.62,1.59,6,6,0,0,0,.34-5.72Z"/><path class="cls-3" d="M163.77,87.82a54.2,54.2,0,0,1-108.4,0c0-29.93,24.27,0,54.2,0S163.77,57.89,163.77,87.82Z"/><path class="cls-4" d="M148.62,86.61a11.09,11.09,0,0,0-9.92-11c-.36,0-.72,0-1.08,0l-56.1.06c-.37,0-.73,0-1.08,0a11,11,0,0,0-9.92,10.94v40.71c0,29.16,17.48,52.8,39,52.8s39.05-23.64,39.05-52.8V86.61Z"/><rect class="cls-5" x="75.11" y="106.27" width="24.69" height="24.69" rx="7.28" ry="7.28"/><rect class="cls-5" x="119.34" y="106.27" width="24.69" height="24.69" rx="7.28" ry="7.28"/><path class="cls-3" d="M136.75,100.71H126.62A12.87,12.87,0,0,0,115,108.2h-10.8a12.87,12.87,0,0,0-11.65-7.49H82.38a12.88,12.88,0,0,0-12.84,12.84v10.13a12.88,12.88,0,0,0,12.84,12.84H92.52a12.88,12.88,0,0,0,12.84-12.84v-9.92h8.42v9.92a12.88,12.88,0,0,0,12.84,12.84h10.13a12.88,12.88,0,0,0,12.84-12.84V113.55A12.88,12.88,0,0,0,136.75,100.71Zm-37,23A7.29,7.29,0,0,1,92.52,131H82.38a7.29,7.29,0,0,1-7.28-7.28V113.55a7.29,7.29,0,0,1,7.28-7.28H92.52a7.29,7.29,0,0,1,7.28,7.28Zm44.24,0a7.29,7.29,0,0,1-7.28,7.28H126.62a7.29,7.29,0,0,1-7.28-7.28V113.55a7.29,7.29,0,0,1,7.28-7.28h10.13a7.29,7.29,0,0,1,7.28,7.28Z"/><path class="cls-5" d="M104,164.2H115.1a9.92,9.92,0,1,0,0-19.83H104a9.92,9.92,0,1,0,0,19.83Z"/><path class="cls-3" d="M130.72,154.34v-.77l0,0A15.67,15.67,0,0,0,115.1,138.8H104a15.67,15.67,0,0,0-15.58,14.82l0-.06v14c0,7.06,8.56,15,15.62,15H115.1c7.06,0,15.62-7.06,15.62-14.13Zm-26.68-10H115.1a9.92,9.92,0,1,1,0,19.83H104a9.92,9.92,0,1,1,0-19.83Z"/><path class="cls-3" d="M151.88,72.92c-2.84-18-9.86-55.75-18.32-50.41a43.73,43.73,0,0,1-24,6.56h0a43.73,43.73,0,0,1-24-6.56c-8.46-5.34-15.49,32.37-18.32,50.41-17.85,1.79-29.46,4.68-29.46,8,0,5.44,32.13,9.85,71.78,9.85s71.78-4.41,71.78-9.85C181.34,77.61,169.74,74.71,151.88,72.92Z"/><polygon class="cls-6" points="147.79 112.2 147.79 112.2 147.79 112.2 147.79 112.2"/><path class="cls-6" d="M165.28,149.81a6,6,0,1,0-10.09,6.46,6.49,6.49,0,0,0-1,1.28,6.69,6.69,0,0,0-.81,1.93,7.15,7.15,0,0,0-.15,2.07,7.58,7.58,0,0,0,.45,1.93,6.46,6.46,0,0,0-1.48,1.3,5.75,5.75,0,0,0-1.11,1.78,6.76,6.76,0,0,0-.34,4,6.73,6.73,0,0,0-3,2.63,5.73,5.73,0,0,0-.79,1.93,6.77,6.77,0,0,0-.18,2,7.66,7.66,0,0,0-1.82.76,7.15,7.15,0,0,0-1.6,1.35,6.71,6.71,0,0,0-1.55,3.71,6.71,6.71,0,0,0-3.72,1.55,7.22,7.22,0,0,0-.73.75,5.83,5.83,0,0,0-.62.85,7.69,7.69,0,0,0-.77,1.83,6.74,6.74,0,0,0-2,.18,5.76,5.76,0,0,0-1.94.79,6.72,6.72,0,0,0-2.61,3l-.36-.18.09.18a6.69,6.69,0,0,0-3.75.39,5.73,5.73,0,0,0-1.77,1.1,6.54,6.54,0,0,0-1.31,1.49,7.57,7.57,0,0,0-1.92-.45,7.14,7.14,0,0,0-2.08.15,6.66,6.66,0,0,0-1.92.81,6.54,6.54,0,0,0-1.52,1.28,6.91,6.91,0,0,0-1.83-.75,6.82,6.82,0,0,0-1-.16,5.63,5.63,0,0,0-1.06,0,6.75,6.75,0,0,0-3.72,1.53,6.76,6.76,0,0,0-3.73-1.53l-.42,0a5.68,5.68,0,0,0-.63,0,6.48,6.48,0,0,0-2.86.92,6.55,6.55,0,0,0-1.52-1.28,6.68,6.68,0,0,0-1.93-.81,7.14,7.14,0,0,0-2.07-.15,7.51,7.51,0,0,0-1.91.45l-.14-.28,0,.07a6.37,6.37,0,0,0-1.15-1.26,5.74,5.74,0,0,0-1.77-1.11,6.76,6.76,0,0,0-4-.35l-.08-.34-.06.11a6.65,6.65,0,0,0-2.51-2.81,5.72,5.72,0,0,0-1.93-.79,6.68,6.68,0,0,0-2-.18l-.06-.26v0a7.42,7.42,0,0,0-.69-1.58,7.14,7.14,0,0,0-1.35-1.6,6.71,6.71,0,0,0-3.5-1.52,6.91,6.91,0,0,0-1.6-3.88,7.43,7.43,0,0,0-.77-.75,6,6,0,0,0-.88-.64,7.72,7.72,0,0,0-1.72-.74,6.88,6.88,0,0,0-.19-1.85,5.92,5.92,0,0,0-.81-2,6.88,6.88,0,0,0-3-2.63l.11-.53,0,0a6.76,6.76,0,0,0-.45-3.46,5.89,5.89,0,0,0-1.14-1.82,6.68,6.68,0,0,0-1.37-1.24l.27-.55-.16.05a7,7,0,0,0,.26-1.35,7.37,7.37,0,0,0-.15-2.14,6.86,6.86,0,0,0-.84-2,6.73,6.73,0,0,0-1.2-1.46l.07-.15a6.88,6.88,0,0,0,.62-1.59,7,7,0,0,0,.17-1.06,6,6,0,0,0,0-1.11,7.33,7.33,0,0,0-.47-2,6,6,0,1,0-10.28,6.09,7.27,7.27,0,0,0-.23,1.11l-.06.68h0a8.44,8.44,0,0,0,.13,1.59,7.17,7.17,0,0,0,.92,2.44,7.87,7.87,0,0,0,.73,1,7.25,7.25,0,0,0,.7.69,7.62,7.62,0,0,0-.27,1.18,7.46,7.46,0,0,0-.08.77c0,.25,0,.51,0,.76a8.51,8.51,0,0,0,.43,2.08,7.47,7.47,0,0,0,3,3.73,6.39,6.39,0,0,0,0,2.42h0l.2.8h0a6.32,6.32,0,0,0,.62,1.49,8.18,8.18,0,0,0,1.62,2,7.77,7.77,0,0,0,1.9,1.19,7.28,7.28,0,0,0,.53,2.66,6.87,6.87,0,0,0,1.06,1.84,7.42,7.42,0,0,0,4,2.64,7.89,7.89,0,0,0,.93,2.55l.26.46.17-.18a8.19,8.19,0,0,0,1,1.21,7,7,0,0,0,2.11,1.38,7.63,7.63,0,0,0,1.17.4,6.83,6.83,0,0,0,1.08.15,6.73,6.73,0,0,0,1.32,2.44,8.28,8.28,0,0,0,1.53,1.39,8,8,0,0,0,2.3,1,6.68,6.68,0,0,0,2.31.19,6.68,6.68,0,0,0,.68,1.13,7.75,7.75,0,0,0,1,1.07,6.65,6.65,0,0,0,1.73,1.13,7.7,7.7,0,0,0,2.43.67,7.47,7.47,0,0,0,2.31-.18,7,7,0,0,0,2,1.9,6.62,6.62,0,0,0,1.89.84,7.22,7.22,0,0,0,4.76-.25,7.1,7.1,0,0,0,4.29,2.09,6.44,6.44,0,0,0,2.52-.13,6.8,6.8,0,0,0,2.14-.87,7.63,7.63,0,0,0,2.51,1.2,8.21,8.21,0,0,0,1.83.21h.21a6.71,6.71,0,0,0,1.27-.14,8.16,8.16,0,0,0,1.2-.37,6.61,6.61,0,0,0,2-1.19,7.26,7.26,0,0,0,2.66.79,8.25,8.25,0,0,0,2.05-.11,7,7,0,0,0,2.36-.9,7.64,7.64,0,0,0,1-.71,7.09,7.09,0,0,0,.76-.78,7.3,7.3,0,0,0,1.27.31,7.13,7.13,0,0,0,.74.08h.74l.26,0h0a8.3,8.3,0,0,0,1.77-.4,7.21,7.21,0,0,0,3.69-3,7.41,7.41,0,0,0,1.31.12h0a7.57,7.57,0,0,0,1.3-.16h0l.13,0h0l.25-.06h0a6.53,6.53,0,0,0,1.68-.67,7.94,7.94,0,0,0,2-1.58,7.51,7.51,0,0,0,1.21-2,6.93,6.93,0,0,0,2.58-.46h0l.12,0,.06,0,.19-.07h0a6.92,6.92,0,0,0,1.54-.93,7.2,7.2,0,0,0,2.59-4,7.63,7.63,0,0,0,2.62-.93,8.21,8.21,0,0,0,1.59-1.3,7,7,0,0,0,1.38-2.11,7.64,7.64,0,0,0,.4-1.17,6.87,6.87,0,0,0,.15-1.08,6.73,6.73,0,0,0,2.44-1.32,8.27,8.27,0,0,0,1.39-1.53,8,8,0,0,0,1-2.3,6.69,6.69,0,0,0,.19-2.31,6.69,6.69,0,0,0,1.13-.68,7.75,7.75,0,0,0,1.07-1,6.67,6.67,0,0,0,1.13-1.73,7.71,7.71,0,0,0,.67-2.43,7.48,7.48,0,0,0-.17-2.31,7,7,0,0,0,1.9-2,6.61,6.61,0,0,0,.84-1.89,7.22,7.22,0,0,0-.25-4.76,7.11,7.11,0,0,0,2.09-4.29,8.06,8.06,0,0,0,0-.88,6,6,0,0,0-.36-4.91Z"/></g></g></svg>