<svg xmlns="http://www.w3.org/2000/svg" viewBox="0 0 222.53 222.53"><defs><style>.cls-1{fill:#fbb03b;}.cls-2{fill:#00259a;}.cls-3{fill:#02b8ef;}.cls-4{fill:#fff;}</style></defs><title>elvis_avatar</title><g id="Layer_2" data-name="Layer 2"><g id="Layer_1-2" data-name="Layer 1"><circle class="cls-1" cx="111.26" cy="111.26" r="111.26"/><path class="cls-2" d="M113.68,107.18C110.07,91,98.41,79.85,87.63,82.26s-16.6,17.46-13,33.63a44.17,44.17,0,0,0,2.52,7.82v34.83a10,10,0,0,0,20,0V141.12a13.63,13.63,0,0,0,3.53-.31C111.47,138.41,117.29,123.35,113.68,107.18Z"/><ellipse class="cls-3" cx="118.66" cy="129.54" rx="35.5" ry="48"/><path class="cls-2" d="M170,109.24c-4.09-18.32-16.49-31.46-28.8-31.38C136.21,67,125,56.6,110.12,50.37,85.4,40,59.79,45,52.9,61.51S60.48,99.72,85.2,110c12.37,5.17,25,6.5,35.33,4.47a56.06,56.06,0,0,0,1,5.56c2.22,10,6.9,18.37,12.68,24v14.49a10,10,0,0,0,20,0V151C167.37,147.77,174.46,129.19,170,109.24Z"/><path class="cls-4" d="M71,61.63c2.26-4.65,6.27-8.38,11.5-11.1-9.72,1.9-17.31,6.41-20.6,13.2C55,77.91,69.48,96.61,94.2,105.49a80.4,80.4,0,0,0,10.8,3C78.5,97.88,63.37,77.35,71,61.63Z"/><path class="cls-4" d="M143.56,90.95a11.78,11.78,0,0,0-1.5.23c-9.38,2.09-14.44,15.19-11.3,29.27,1.6,7.19,5,13.23,9.26,17.15a49,49,0,0,1-4.36-12C132.43,111.07,135.9,97.36,143.56,90.95Z"/></g></g></svg>