<svg xmlns="http://www.w3.org/2000/svg" viewBox="0 0 278.16 278.16"><defs><style>.cls-1{fill:#fbb03b;}.cls-2{fill:#00259a;}.cls-3{fill:#02b8ef;}.cls-4{fill:#fff;}</style></defs><title>elvis_avatar</title><g id="Layer_2" data-name="Layer 2"><g id="Layer_1-2" data-name="Layer 1"><circle class="cls-1" cx="139.08" cy="139.08" r="139.08"/><path class="cls-2" d="M141.5,135c-3.61-16.17-15.27-27.33-26.05-24.93s-16.6,17.46-13,33.63a44.17,44.17,0,0,0,2.52,7.82v34.83a10,10,0,0,0,20,0V168.94a13.63,13.63,0,0,0,3.53-.31C139.29,166.23,145.1,151.17,141.5,135Z"/><ellipse class="cls-3" cx="146.47" cy="157.35" rx="35.5" ry="48"/><path class="cls-2" d="M197.83,137.06c-4.09-18.32-16.49-31.46-28.8-31.38-5-10.88-16.18-21.26-31.1-27.49C113.22,67.86,87.6,72.85,80.72,89.33s7.58,38.2,32.29,48.53c12.37,5.17,25,6.5,35.33,4.47a56.06,56.06,0,0,0,1,5.56c2.22,10,6.9,18.37,12.68,24v14.49a10,10,0,0,0,20,0v-7.57C195.18,175.59,202.28,157,197.83,137.06Z"/><path class="cls-4" d="M98.82,89.45c2.26-4.65,6.27-8.38,11.5-11.1-9.72,1.9-17.31,6.41-20.6,13.2-6.88,14.18,7.58,32.87,32.29,41.76a80.4,80.4,0,0,0,10.8,3C106.31,125.69,91.19,105.17,98.82,89.45Z"/><path class="cls-4" d="M171.38,118.76a11.78,11.78,0,0,0-1.5.23c-9.38,2.09-14.44,15.19-11.3,29.27,1.6,7.19,5,13.23,9.26,17.15a49,49,0,0,1-4.36-12C160.25,138.88,163.72,125.17,171.38,118.76Z"/></g></g></svg>