<svg xmlns="http://www.w3.org/2000/svg" viewBox="0 0 222.53 222.53"><defs><style>.cls-1{fill:#fbb03b;}.cls-2{fill:#00259a;}.cls-3{fill:#02b8ef;}.cls-4{fill:#fff;}</style></defs><title>HENDRIX_avatar</title><g id="Layer_2" data-name="Layer 2"><g id="Layer_1-2" data-name="Layer 1"><circle class="cls-1" cx="111.26" cy="111.26" r="111.26"/><circle class="cls-2" cx="164.98" cy="104.43" r="14.22"/><circle class="cls-2" cx="92.63" cy="140.11" r="20.17"/><ellipse class="cls-3" cx="131.62" cy="136.99" rx="39.04" ry="52.78"/><path class="cls-3" d="M181.87,152.22H148.53c-5.5,0-16.1-21.06-16.1-26.56L120.89,95.51c0-5.5,6-11.3,11.53-11.3h24.66c5.5,0,11.68,5.8,13.72,11.3l17.33,46.71C190.19,147.72,187.37,152.22,181.87,152.22Z"/><rect class="cls-3" x="87.36" y="125.38" width="17.44" height="26.75" rx="8.72" ry="8.72"/><path class="cls-2" d="M166.47,84.21s11.33-5.33,8.67-20.66-11.33-35-45.67-30-110.36,44.28-62,98c0,0,32.71,8.34,50.67,0,20.17-9.37,27.33-20,26-36.67Z"/><path class="cls-4" d="M164.8,97.17c5.73,2.62,8.92-.84,10.21-3,1.83-3.12-2.35-17.74-7.69-23.82-4.27-4.86-8.51-5.47-22.18,1.53S110.2,91,82.8,116.83C82.8,116.83,145.14,88.17,164.8,97.17Z"/><circle class="cls-4" cx="70.63" cy="136.72" r="10.17"/><path class="cls-2" d="M170.76,152.13s-4.44,0-11.87.69c-6.38.59-15.09,5.74-15.75,21.4h4.33s2.49-11,23.29-11.21a1.5,1.5,0,0,0,1.49-1.49v-7.91A1.49,1.49,0,0,0,170.76,152.13Z"/><path class="cls-4" d="M42.78,179.6l-11-7.79a4.9,4.9,0,0,1-.49-7.84l27.68-26.43a7.84,7.84,0,0,1,9.51-.78l3.06,2.16A6.14,6.14,0,0,1,73,147.46L51.31,178.13A6.14,6.14,0,0,1,42.78,179.6Z"/><path class="cls-4" d="M68.81,185.31h13.5a4.9,4.9,0,0,0,4.92-6.12l-7.36-37.56a7.84,7.84,0,0,0-7.32-6.12H68.81a6.14,6.14,0,0,0-6.12,6.12v37.56A6.14,6.14,0,0,0,68.81,185.31Z"/><circle class="cls-4" cx="93.46" cy="145" r="2.89"/><path class="cls-2" d="M153.37,174.87l2.84-5.89a3,3,0,0,1,4.06-1.24l4.14,2.2a3,3,0,0,1,1.24,4.06l-2.84,5.89a3,3,0,0,1-4.06,1.24l-4.14-2.2A3,3,0,0,1,153.37,174.87Z"/></g></g></svg>