<svg xmlns="http://www.w3.org/2000/svg" viewBox="0 0 222.53 222.53"><defs><style>.cls-1{fill:#fbb03b;}.cls-2{fill:#00259a;}.cls-3{fill:none;}.cls-4{fill:#fff;}.cls-5{fill:#02b8ef;}</style></defs><title>MADONNA_avatar</title><g id="Layer_2" data-name="Layer 2"><g id="Layer_1-2" data-name="Layer 1"><circle class="cls-1" cx="111.26" cy="111.26" r="111.26"/><polygon class="cls-2" points="143.26 145.41 142.2 141.93 146.03 140.04 148.35 143.18 143.26 145.41"/><path class="cls-2" d="M100.06,91.16a34.9,34.9,0,0,1-7.27-69L93.4,25a32,32,0,0,0,13.33,62.51l.61,2.87A34.92,34.92,0,0,1,100.06,91.16Z"/><path class="cls-2" d="M55.44,148.76v-2.94a32,32,0,1,0,0-63.91V79a34.9,34.9,0,1,1,0,69.79Z"/><path class="cls-3" d="M53.65,70.24a32.1,32.1,0,0,0,4.87,11.41,32.71,32.71,0,0,1,9.58-9.91,31.75,31.75,0,0,1,.23-12.16A31.64,31.64,0,0,0,53.65,70.24Z"/><path class="cls-3" d="M133.18,140.76a26.11,26.11,0,0,1-3,.19c.62.75,1.28,1.48,2,2.18a32.35,32.35,0,0,0,3.95,3.35A36.43,36.43,0,0,0,133.18,140.76Z"/><path class="cls-3" d="M120.75,34.58a32,32,0,0,0-42.24,7.7A31.82,31.82,0,0,1,117.43,40,32.36,32.36,0,0,1,130,43.24,31.89,31.89,0,0,0,120.75,34.58Z"/><path class="cls-3" d="M139.22,139.28a26.78,26.78,0,0,1-2.94.91,44,44,0,0,1,3.65,7.89l.35.92a31.5,31.5,0,0,0,3.84,1.66,52.33,52.33,0,0,1-2.14-5.11A43.55,43.55,0,0,0,139.22,139.28Z"/><path class="cls-3" d="M146.78,142a47.12,47.12,0,0,0-2.27-5.34,29.46,29.46,0,0,1-2.59,1.45,46.92,46.92,0,0,1,2.81,6.41,41.38,41.38,0,0,0,3.32,7.25,32.05,32.05,0,0,0,4,.59A42.9,42.9,0,0,1,146.78,142Z"/><path class="cls-2" d="M179.48,145.2l-2.08-2.08a31.73,31.73,0,0,1-21.72,9.34,40.81,40.81,0,0,1-6.15-11.5,48.2,48.2,0,0,0-2.59-6c.8-.61,1.57-1.28,2.32-2a46.7,46.7,0,0,1,2.32,5.44,44,44,0,0,0,6.75,12.5l2.36-1.75a41,41,0,0,1-6.36-11.78,46.4,46.4,0,0,0-2.92-6.61q1.07-1.18,2-2.47a42.74,42.74,0,0,1,2.92,6.55,44,44,0,0,0,6.75,12.5l2.36-1.75a41,41,0,0,1-6.36-11.78,43.7,43.7,0,0,0-3.82-8.17c.61-.95,1.19-1.93,1.73-2.94a40.15,40.15,0,0,1,4.14,8.58,44,44,0,0,0,6.75,12.5l2.36-1.75a41,41,0,0,1-6.36-11.78,43,43,0,0,0-5.41-10.63q.72-1.65,1.32-3.38A40.8,40.8,0,0,1,166,127.77a44,44,0,0,0,6.75,12.5l2.36-1.75a41,41,0,0,1-6.36-11.78,44,44,0,0,0-6.75-12.5c-.37-.51-.74-1-1.09-1.43q.49-1.84.84-3.76c.84,1,1.73,2.07,2.69,3.38a41,41,0,0,1,6.36,11.78,44,44,0,0,0,6.75,12.5l2.36-1.75a41,41,0,0,1-6.36-11.78,44,44,0,0,0-6.75-12.5,51.52,51.52,0,0,0-4.51-5.38,52.56,52.56,0,0,0,.31-5.61,52,52,0,0,0-.76-8.84A34.63,34.63,0,0,0,174,71.23l-2.87-.64a31.71,31.71,0,0,1-10,17c-2.32-9.6-7.33-17.72-13.92-22.93A32.56,32.56,0,0,0,135.3,46.53,34.91,34.91,0,0,0,69.59,55.2c-.12.33-.23.67-.34,1A34.68,34.68,0,0,0,53.07,66.38a31.84,31.84,0,0,1,.64-9.61l-2.87-.64A34.84,34.84,0,0,0,50.5,69.6a34.81,34.81,0,0,0-5.49,28L47.88,97a31.73,31.73,0,0,1,3.56-23.41,35,35,0,0,0,4,8.88c.46.72.94,1.41,1.45,2.08a32.54,32.54,0,0,0,47.77,41,34.09,34.09,0,0,0,14.33,13,34.89,34.89,0,0,0,50.51,29.73l-1.32-2.63A31.94,31.94,0,0,1,122,139.68a26.3,26.3,0,0,0,4.29,1,34.86,34.86,0,0,0,11.6,10.4,43.4,43.4,0,0,0,6,10.53l2.36-1.75A45,45,0,0,1,142,153a34.43,34.43,0,0,0,4.21,1.36c.71,1.13,1.54,2.35,2.54,3.69l2.36-1.75c-.3-.41-.58-.8-.85-1.18a35.4,35.4,0,0,0,4.57.3A34.67,34.67,0,0,0,179.48,145.2ZM68.09,71.74a32.71,32.71,0,0,0-9.58,9.91,32.1,32.1,0,0,1-4.87-11.41A31.64,31.64,0,0,1,68.32,59.59a31.75,31.75,0,0,0-.23,12.16ZM99.46,34.41a31.71,31.71,0,0,0-20.95,7.87,32,32,0,0,1,51.46,1A32.36,32.36,0,0,0,117.43,40,31.69,31.69,0,0,0,99.46,34.41Zm30.78,106.53a26.11,26.11,0,0,0,3-.19,36.43,36.43,0,0,1,3,5.72,32.35,32.35,0,0,1-3.95-3.35C131.51,142.42,130.85,141.7,130.23,140.95Zm10,8.05-.35-.92a44,44,0,0,0-3.65-7.89,26.78,26.78,0,0,0,2.94-.91,43.55,43.55,0,0,1,2.76,6.27,52.33,52.33,0,0,0,2.14,5.11A31.5,31.5,0,0,1,140.28,149Zm4.46-4.48a46.92,46.92,0,0,0-2.81-6.41,29.46,29.46,0,0,0,2.59-1.45,47.12,47.12,0,0,1,2.27,5.34A42.9,42.9,0,0,0,152,152.36a32.05,32.05,0,0,1-4-.59A41.38,41.38,0,0,1,144.73,144.52Z"/><circle class="cls-4" cx="91.27" cy="199.76" r="2.26"/><circle class="cls-4" cx="98.7" cy="202.02" r="2.26"/><circle class="cls-4" cx="106.3" cy="203.42" r="2.26"/><circle class="cls-4" cx="121.16" cy="202.69" r="2.26"/><circle class="cls-4" cx="113.73" cy="203.42" r="2.26"/><circle class="cls-4" cx="128.02" cy="200.43" r="2.26"/><circle class="cls-4" cx="72.32" cy="179.85" r="2.26"/><circle class="cls-4" cx="74.58" cy="186.29" r="2.26"/><circle class="cls-4" cx="79.1" cy="192.08" r="2.26"/><circle class="cls-4" cx="84.82" cy="196.6" r="2.26"/><circle class="cls-4" cx="134.96" cy="197.69" r="2.26"/><circle class="cls-4" cx="141" cy="193.77" r="2.26"/><circle class="cls-4" cx="145.99" cy="188.55" r="2.26"/><circle class="cls-4" cx="149.2" cy="182.83" r="2.26"/><polygon class="cls-2" points="143.14 152.36 140.13 149.76 141.91 147.31 144.28 148.66 144.28 151.42 143.14 152.36"/><polygon class="cls-2" points="148.52 144.51 148.03 140.76 150.6 138.44 151.46 141.92 151.46 145.41 148.52 144.51"/><rect class="cls-5" x="127.42" y="115.48" width="27.11" height="27.11" rx="8.5" ry="8.5"/><rect class="cls-5" x="66.83" y="115.48" width="27.11" height="27.11" rx="8.5" ry="8.5"/><path class="cls-3" d="M73.06,151.25a15.16,15.16,0,0,0-2.12.17v4H68v-3.32a15.15,15.15,0,1,0,5.06-.89Zm1.06,14H70.93v11.12H68V165.26H64.81v-2.94H68v-4.56h2.94v4.56h3.19Z"/><path class="cls-3" d="M71.59,138.57a2.77,2.77,0,0,1-.65-.58v10.45l.65-.06Z"/><path class="cls-2" d="M74.53,148.39v-9.81a2.77,2.77,0,1,0-3.59-4.12v-3.38a2,2,0,1,0-2.94,0v18a18.14,18.14,0,1,0,6.53-.66ZM70.93,138a2.77,2.77,0,0,0,.65.58v9.81l-.65.06Zm2.12,43.64A15.18,15.18,0,0,1,68,152.14v3.32h2.94v-4a15.18,15.18,0,1,1,2.12,30.21Z"/><polygon class="cls-2" points="70.93 157.76 67.99 157.76 67.99 162.32 64.81 162.32 64.81 165.26 67.99 165.26 67.99 176.38 70.93 176.38 70.93 165.26 74.12 165.26 74.12 162.32 70.93 162.32 70.93 157.76"/><path class="cls-5" d="M145.66,83.69a9.88,9.88,0,0,0-8.83-9.8c-.32,0-.64,0-1,0l-50,0c-.33,0-.65,0-1,0a9.83,9.83,0,0,0-8.83,9.75v46.08c0,26,15.58,47,34.79,47s34.79-21.06,34.79-47V83.69Z"/><path class="cls-3" d="M148.35,143.18l.65-.05V138a2.78,2.78,0,0,1-.65.58Z"/><path class="cls-3" d="M151.95,146.07v9.38H149v-9.38a24.34,24.34,0,1,0,2.94,0Zm3.19,19.18h-3.19v11.12H149V165.26h-3.19v-2.94H149v-4.56h2.94v4.56h3.19Z"/><path class="cls-2" d="M151.95,143.13v-12a2,2,0,1,0-2.94,0v3.38a2.77,2.77,0,1,0-3.59,4.12v5a27.26,27.26,0,1,0,6.53-.44ZM149,138v5.13l-.65.05v-4.6A2.78,2.78,0,0,0,149,138Zm8.77,55.59A24.34,24.34,0,1,1,149,146.07v9.38h2.94v-9.38a24.34,24.34,0,0,1,5.83,47.51Z"/><polygon class="cls-2" points="151.94 157.76 149 157.76 149 162.32 145.82 162.32 145.82 165.26 149 165.26 149 176.38 151.94 176.38 151.94 165.26 155.13 165.26 155.13 162.32 151.94 162.32 151.94 157.76"/><path class="cls-2" d="M62.11,75.86l13.22,39.62s13.32-12.76,20.46-15.64,16.44-9,25.83-18.84c12.86-13.54,1.5-17.77,1.5-17.77L80.39,60.89Z"/><path class="cls-4" d="M146,115.48"/><path class="cls-2" d="M49.8,101.94a44,44,0,0,0,10.1-10,41,41,0,0,1,9.52-9.42A41,41,0,0,1,81.2,76.17a44,44,0,0,0,12.5-6.75,44,44,0,0,0,10.1-10A41,41,0,0,1,113.33,50a40.6,40.6,0,0,1,11.38-6.21l-1.89-2.43a43.26,43.26,0,0,0-11.24,6.27,44,44,0,0,0-10.1,10A41,41,0,0,1,92,67.06a41,41,0,0,1-11.78,6.36,44,44,0,0,0-12.5,6.75,44,44,0,0,0-10.1,10A41,41,0,0,1,48,99.57a41,41,0,0,1-11.78,6.36,44,44,0,0,0-12.5,6.75L25.51,115a41,41,0,0,1,11.78-6.36A44,44,0,0,0,49.8,101.94Z"/><path class="cls-2" d="M53.36,106.74a44,44,0,0,0,10.1-10A41,41,0,0,1,73,87.33,41,41,0,0,1,84.76,81a44,44,0,0,0,12.5-6.75,44,44,0,0,0,10.1-10,41,41,0,0,1,9.52-9.42,40.69,40.69,0,0,1,11.52-6.26l-1.89-2.43a43.26,43.26,0,0,0-11.38,6.33,44,44,0,0,0-10.1,10,41,41,0,0,1-9.52,9.42,41,41,0,0,1-11.78,6.36A44,44,0,0,0,71.23,85a44,44,0,0,0-10.1,10,41,41,0,0,1-9.52,9.42,41,41,0,0,1-11.78,6.36,44,44,0,0,0-12.5,6.75l1.75,2.36a41,41,0,0,1,11.78-6.36A44,44,0,0,0,53.36,106.74Z"/><path class="cls-2" d="M56.91,111.54a44,44,0,0,0,10.1-10,41,41,0,0,1,9.52-9.42,41,41,0,0,1,11.78-6.36A44,44,0,0,0,100.82,79a44,44,0,0,0,10.1-10,41,41,0,0,1,9.52-9.42,40.85,40.85,0,0,1,11.65-6.31l-1.89-2.43a43.3,43.3,0,0,0-11.51,6.38,44,44,0,0,0-10.1,10,41,41,0,0,1-9.52,9.42A41,41,0,0,1,87.29,83a44,44,0,0,0-12.5,6.75,44,44,0,0,0-10.1,10,41,41,0,0,1-9.52,9.42,41,41,0,0,1-11.78,6.36,44,44,0,0,0-12.5,6.75l1.75,2.36a41,41,0,0,1,11.78-6.36A44,44,0,0,0,56.91,111.54Z"/><path class="cls-2" d="M60.47,116.34a44,44,0,0,0,10.1-10,41,41,0,0,1,9.52-9.42,41,41,0,0,1,11.78-6.36,44,44,0,0,0,12.5-6.75,44,44,0,0,0,10.1-10A41,41,0,0,1,124,64.42a41,41,0,0,1,11.78-6.36l-1.89-2.43a43.32,43.32,0,0,0-11.65,6.43,44,44,0,0,0-10.1,10,41,41,0,0,1-9.52,9.42,41,41,0,0,1-11.78,6.36,44,44,0,0,0-12.5,6.75,44,44,0,0,0-10.1,10A41,41,0,0,1,58.72,114a41,41,0,0,1-11.78,6.36,44,44,0,0,0-12.5,6.75l1.75,2.36A41,41,0,0,1,48,123.09,44,44,0,0,0,60.47,116.34Z"/><path class="cls-2" d="M71.14,130.75a44,44,0,0,0,10.1-10,41,41,0,0,1,9.52-9.42A41,41,0,0,1,102.54,105,44,44,0,0,0,115,98.24a44,44,0,0,0,10.1-10,41,41,0,0,1,9.52-9.42,40.5,40.5,0,0,1,9.61-5.52l-1.44-2.59a39.48,39.48,0,0,0-5.93,3c-.26-.6-.71-1.59-1.29-2.75a37.14,37.14,0,0,1,5.83-2.79L140,65.62a39.76,39.76,0,0,0-5.75,2.79c-.49-.88-1-1.75-1.57-2.56a39.56,39.56,0,0,1,5.94-2.71l-1.45-2.6a40.86,40.86,0,0,0-6.36,3,4.18,4.18,0,0,0-1.74-1.13c-2.27-.59-6.39,5.2-9,9.31a47.5,47.5,0,0,0-4.38,5.14,41,41,0,0,1-9.52,9.42A41,41,0,0,1,94.4,92.63a44,44,0,0,0-12.5,6.75,44,44,0,0,0-10.1,10,41,41,0,0,1-9.52,9.42,41,41,0,0,1-11.78,6.36A44,44,0,0,0,38,131.89l1.75,2.36a41,41,0,0,1,11.78-6.36A44,44,0,0,0,64,121.15a44,44,0,0,0,10.1-10,41,41,0,0,1,9.52-9.42,41,41,0,0,1,11.78-6.36,44,44,0,0,0,12.5-6.75,44,44,0,0,0,10.1-10l1.07-1.38L121,79.47c-.61.74-1.16,1.46-1.71,2.18a41,41,0,0,1-9.52,9.42A41,41,0,0,1,98,97.43a44,44,0,0,0-12.5,6.75,44,44,0,0,0-10.1,10,41,41,0,0,1-9.52,9.42A41,41,0,0,1,54,129.95a44,44,0,0,0-12.5,6.75l1.75,2.36a41,41,0,0,1,11.78-6.36,44,44,0,0,0,12.5-6.75,44,44,0,0,0,10.1-10,41,41,0,0,1,9.52-9.42A41,41,0,0,1,99,100.18a44,44,0,0,0,12.5-6.75,44,44,0,0,0,10.1-10c.63-.82,1.25-1.62,1.94-2.45,1.75-2,6.84-7.09,12.59-6.74-1,.64-2,1.36-3.2,2.22a44,44,0,0,0-10.1,10,41,41,0,0,1-9.52,9.42,41,41,0,0,1-11.78,6.36A44,44,0,0,0,89,109a44,44,0,0,0-10.1,10,41,41,0,0,1-9.52,9.42,41,41,0,0,1-11.78,6.36,44,44,0,0,0-12.5,6.75l1.75,2.36a41,41,0,0,1,11.78-6.36A44,44,0,0,0,71.14,130.75Z"/><path class="cls-2" d="M145.68,75.82a44.68,44.68,0,0,0-9.2,5.45,44,44,0,0,0-10.1,10,41,41,0,0,1-9.52,9.42A41,41,0,0,1,105.07,107a44,44,0,0,0-12.5,6.75,44,44,0,0,0-10.1,10,41,41,0,0,1-9.52,9.42,41,41,0,0,1-11.78,6.36,44,44,0,0,0-12.5,6.75l1.75,2.36a41,41,0,0,1,11.78-6.36,44,44,0,0,0,12.5-6.75,44,44,0,0,0,10.1-10,41,41,0,0,1,9.52-9.42,41,41,0,0,1,11.78-6.36A44,44,0,0,0,118.6,103a44,44,0,0,0,10.1-10A47.83,47.83,0,0,1,147.12,78.4Z"/><path class="cls-4" d="M142,46.75l-4.73-10.33a6.27,6.27,0,0,0-.3-.58,6.22,6.22,0,0,0-.24-.6L132,24.91c-1.43-3.12-4.83-3.81-7.56-1.53L104.24,40.25q-.25.21-.49.45a12.18,12.18,0,0,0-14.24,6.52q-.33,0-.66.08l-26,4.24c-3.51.57-5.22,3.6-3.79,6.72l3.14,6.87c-3.69,2.64-8.71,6.9-10.58,11.66-3.86,9.79,5.32,23-3.08,29.84a24.11,24.11,0,0,1,6.83,16.84,31.13,31.13,0,0,1-.35,5.24c11.64-6.58,13.57-13.84,11.62-18.79-7.62-19.35-6.13-26.1.84-33.25l1.56,3.42c1.43,3.12,4.83,3.81,7.56,1.53L96.85,64.75q.25-.21.49-.45a12.18,12.18,0,0,0,14.24-6.52q.33,0,.66-.08l26-4.24C141.71,52.89,143.41,49.87,142,46.75Z"/><path class="cls-4" d="M141.14,67.42a291.19,291.19,0,0,0-12.73-27.5C119.6,23,115.14,52.45,115.14,52.45s2.51.78,6.06,2.24A40.83,40.83,0,0,1,141.14,67.42Z"/><path class="cls-4" d="M155.83,96.63a32.68,32.68,0,0,0-12.74-25.91,70.74,70.74,0,0,1,12.46,30.11A33,33,0,0,0,155.83,96.63Z"/><path class="cls-2" d="M117.14,150.87c-2.34-.66-4.78.41-6.06.51-1.28-.1-3.72-1.17-6.06-.51-2.58.73-6,4-6,4.38s.9.17,1.57.1c1.13,3.29,5.36,5.74,10.42,5.74h0c5.06,0,9.29-2.45,10.42-5.74.67.07,1.53.12,1.57-.1S119.72,151.6,117.14,150.87Z"/><circle class="cls-2" cx="99.51" cy="147.49" r="1.08"/></g></g></svg>