<svg xmlns="http://www.w3.org/2000/svg" viewBox="0 0 222.53 222.53"><defs><style>.cls-1{fill:#fbb03b;}.cls-2{fill:#fff;}.cls-3{fill:#00259a;}.cls-4{fill:#02b8ef;}</style></defs><title>MORRISON_avatar</title><g id="Layer_2" data-name="Layer 2"><g id="Layer_1-2" data-name="Layer 1"><circle class="cls-1" cx="111.26" cy="111.26" r="111.26"/><path class="cls-2" d="M107.07,199.37a48,48,0,0,1-9.21-1.73L99,193.8a43.89,43.89,0,0,0,8.44,1.59Zm9.37-.09-.43-4a43.28,43.28,0,0,0,8.4-1.77l1.21,3.81A47.28,47.28,0,0,1,116.44,199.28Zm-27.28-5.16A47.58,47.58,0,0,1,81.33,189l2.52-3.11A43.63,43.63,0,0,0,91,190.58Zm45.08-.48-1.94-3.5a44,44,0,0,0,7.08-4.87l2.58,3.06A47.94,47.94,0,0,1,134.24,193.65ZM74.66,182.38a47.9,47.9,0,0,1-5.26-7.76l3.52-1.91a43.85,43.85,0,0,0,4.82,7.11Zm73.84-.77-3.13-2.49a43.74,43.74,0,0,0,4.67-7.21l3.56,1.83A47.69,47.69,0,0,1,148.5,181.61ZM65.76,166a47.41,47.41,0,0,1-1.86-9.19l4-.4a43.27,43.27,0,0,0,1.7,8.42ZM157,165l-3.85-1.09a44,44,0,0,0,1.52-8.45l4,.32A48,48,0,0,1,157,165ZM67.87,147.79l-4-.38a47.91,47.91,0,0,1,1.8-9.2l3.83,1.15A44,44,0,0,0,67.87,147.79Zm86.84.41a43.35,43.35,0,0,0-1.57-8.44l3.84-1.12a47.49,47.49,0,0,1,1.72,9.22ZM72.79,131.42l-3.53-1.89a47.59,47.59,0,0,1,5.22-7.79l3.09,2.54A43.55,43.55,0,0,0,72.79,131.42Zm77.13.37a43.93,43.93,0,0,0-4.71-7.19l3.11-2.51a47.86,47.86,0,0,1,5.14,7.84ZM83.66,118.22l-2.53-3.1a47.91,47.91,0,0,1,7.8-5.2l1.88,3.53A43.73,43.73,0,0,0,83.66,118.22Zm55.54.26a43.51,43.51,0,0,0-7.1-4.83l1.91-3.51a47.56,47.56,0,0,1,7.75,5.28Zm-40.45-8.29-1.15-3.83a47.39,47.39,0,0,1,9.21-1.79l.37,4A43.37,43.37,0,0,0,98.75,110.18Zm25.44.12a43.84,43.84,0,0,0-8.42-1.72l.41-4a47.71,47.71,0,0,1,9.19,1.87Z"/><path class="cls-3" d="M144.5,178.62a42.88,42.88,0,0,1-5.88,6l-.77.64,3.85,4.6.77-.64a48.68,48.68,0,0,0,6.7-6.84l.63-.78-4.68-3.76Z"/><path class="cls-3" d="M106.89,103.54l-1,.09.54,6,1-.09a42.28,42.28,0,0,1,8.38.07l1,.11.65-6-1-.11A48.35,48.35,0,0,0,106.89,103.54Z"/><path class="cls-3" d="M131.68,189.34a43,43,0,0,1-7.73,3.28l-1,.3,1.8,5.73,1-.3a49,49,0,0,0,8.81-3.74l.88-.48-2.88-5.26Z"/><path class="cls-3" d="M97.48,105.35A49,49,0,0,0,88.62,109l-.89.47,2.8,5.31.88-.47a42.64,42.64,0,0,1,7.77-3.16l1-.28-1.71-5.75Z"/><path class="cls-3" d="M115.74,194.33a42.38,42.38,0,0,1-8.39.05l-1-.09-.56,6,1,.09q2.23.21,4.49.21a48.18,48.18,0,0,0,5.09-.27l1-.11-.63-6Z"/><path class="cls-3" d="M159.71,147.95l-.08-1-6,.5.08,1a42.45,42.45,0,0,1-.14,8.39l-.12,1,6,.69.12-1A48.5,48.5,0,0,0,159.71,147.95Z"/><path class="cls-3" d="M125.83,105.59l-1-.3-1.8,5.72,1,.3a42.77,42.77,0,0,1,7.72,3.29l.88.48,2.88-5.26-.88-.48A48.75,48.75,0,0,0,125.83,105.59Z"/><path class="cls-3" d="M152.18,163.79a42.94,42.94,0,0,1-3.11,7.8l-.46.89,5.33,2.76.46-.89a49,49,0,0,0,3.54-8.89l.28-1-5.76-1.67Z"/><path class="cls-3" d="M78.4,179.06l-.63-.77-4.63,3.81.63.77a48.61,48.61,0,0,0,6.79,6.76l.77.63,3.79-4.65-.78-.63A42.64,42.64,0,0,1,78.4,179.06Z"/><path class="cls-3" d="M68.86,156.11a42.38,42.38,0,0,1,0-8.39l.1-1-6-.6-.1,1a48.45,48.45,0,0,0,0,9.58l.1,1,6-.59Z"/><path class="cls-3" d="M70.53,139.49a43,43,0,0,1,3.23-7.75l.47-.88L68.94,128l-.47.88a48.93,48.93,0,0,0-3.68,8.83l-.29,1,5.74,1.75Z"/><path class="cls-3" d="M144.54,125.35l.62.78,4.69-3.74-.62-.78a48.61,48.61,0,0,0-6.68-6.86l-.76-.64-3.86,4.59.77.64A42.5,42.5,0,0,1,144.54,125.35Z"/><path class="cls-3" d="M80.63,114.22A48.66,48.66,0,0,0,73.82,121l-.64.77,4.62,3.83.64-.77a42.53,42.53,0,0,1,6-5.9l.78-.63-3.78-4.66Z"/><path class="cls-3" d="M91.34,189.62l-.88-.47-2.8,5.31.88.47a49,49,0,0,0,8.86,3.61l1,.29,1.71-5.75-1-.29A42.9,42.9,0,0,1,91.34,189.62Z"/><path class="cls-3" d="M73.73,172.09a42.83,42.83,0,0,1-3.22-7.75l-.29-1-5.74,1.75.29,1a48.78,48.78,0,0,0,3.68,8.84l.47.88L74.2,173Z"/><path class="cls-3" d="M149.11,132.39a42.84,42.84,0,0,1,3.11,7.8l.28,1,5.76-1.66-.28-1a48.9,48.9,0,0,0-3.54-8.89l-.46-.89-5.33,2.76Z"/><path class="cls-3" d="M193.84,113.28a14.64,14.64,0,0,0-20.63.69,15.67,15.67,0,0,0-11.24.88A26.67,26.67,0,0,0,147,122.32a26.9,26.9,0,0,1,.31-12.7c-.54.46-1.08.94-1.59,1.46a26.74,26.74,0,0,0-6.48,27.32,26.75,26.75,0,0,0,.4,8.4,26.75,26.75,0,0,0,39.48,28.7,26.67,26.67,0,0,1-16.66-7.65,27,27,0,0,0,3.36.22,26.62,26.62,0,0,0,13.29-3.54,26.67,26.67,0,0,1-16.89-7.89A26.74,26.74,0,0,0,190.49,137a26.61,26.61,0,0,1-14.57,6.2,15.8,15.8,0,0,0,2.79-26.33,14.62,14.62,0,0,1,15,17.93c.29-.26.57-.54.84-.83A14.65,14.65,0,0,0,193.84,113.28Z"/><path class="cls-3" d="M76.76,111.08c-.51-.51-1-1-1.59-1.46a26.89,26.89,0,0,1,.31,12.7,26.67,26.67,0,0,0-14.92-7.47A15.67,15.67,0,0,0,49.32,114a14.64,14.64,0,0,0-21.39,20c.27.29.55.57.84.83a14.62,14.62,0,0,1,15-17.93,15.8,15.8,0,0,0,2.79,26.33A26.61,26.61,0,0,1,32,137a26.74,26.74,0,0,0,28.21,19.63,26.67,26.67,0,0,1-16.89,7.89,26.62,26.62,0,0,0,13.29,3.54,27,27,0,0,0,3.36-.22,26.67,26.67,0,0,1-16.66,7.65,26.76,26.76,0,0,0,39.48-28.7,26.75,26.75,0,0,0,.4-8.4A26.74,26.74,0,0,0,76.76,111.08Z"/><path class="cls-4" d="M146.76,88a10.08,10.08,0,0,0-9-10c-.32,0-.65,0-1,0l-51,.05c-.33,0-.66,0-1,0a10,10,0,0,0-9,9.95v37c0,26.51,15.89,48,35.5,48s35.5-21.49,35.5-48V88Z"/><path class="cls-3" d="M173.88,82.87a26.61,26.61,0,0,1,1.72-9.42A26.75,26.75,0,0,0,160.45,34.6a15.07,15.07,0,0,0-17.76-8.13,26.74,26.74,0,0,0-31.43,1.24,26.74,26.74,0,0,0-31.43-1.24A15.07,15.07,0,0,0,62.08,34.6,26.75,26.75,0,0,0,46.92,73.45a26.72,26.72,0,0,1-17.29,35,26.77,26.77,0,0,0,32.56,12,11.49,11.49,0,0,0,16-16.43l0-.11a26.76,26.76,0,0,0,29.34-11.48,14.67,14.67,0,0,0,7.31,0,26.76,26.76,0,0,0,29.34,11.48l0,.11a11.49,11.49,0,0,0,16,16.43,26.77,26.77,0,0,0,32.56-12A26.76,26.76,0,0,1,173.88,82.87Z"/></g></g></svg>