<svg xmlns="http://www.w3.org/2000/svg" viewBox="0 0 222.53 222.53"><defs><style>.cls-1{fill:#fbb03b;}.cls-2{fill:#00259a;}.cls-3{fill:#02b8ef;}.cls-4{fill:#fff;}</style></defs><title>prince_avatar</title><g id="Layer_2" data-name="Layer 2"><g id="Layer_1-2" data-name="Layer 1"><circle class="cls-1" cx="111.26" cy="111.26" r="111.26"/><path class="cls-2" d="M183.76,122.76a24.39,24.39,0,0,0-5.06-14.91,36.5,36.5,0,0,0-67.44-27.7,36.5,36.5,0,0,0-67.44,27.7,24.5,24.5,0,0,0,12.35,38.36A24.5,24.5,0,1,0,98.9,125.87a36.65,36.65,0,0,0,12.36-14.5,36.64,36.64,0,0,0,12.36,14.5,24.5,24.5,0,1,0,42.72,20.35A24.51,24.51,0,0,0,183.76,122.76Z"/><ellipse class="cls-3" cx="111.26" cy="131.26" rx="35.5" ry="48"/><path class="cls-2" d="M146.51,70.29a36.5,36.5,0,0,0-70.5,0c-17.79.33-19.75,4.88-19.75,24,0,19.88,2.12,36,22,36A35.94,35.94,0,0,0,107,116a35.6,35.6,0,0,0,8.62,0,35.94,35.94,0,0,0,28.69,14.26c19.88,0,22-16.12,22-36C166.26,75.16,164.3,70.61,146.51,70.29Z"/><path class="cls-4" d="M129,118.06a14.08,14.08,0,0,0-11.68,6.2H105.16a14.1,14.1,0,1,0,2.12,5h8a14.1,14.1,0,1,0,13.8-11.2Z"/><path class="cls-2" d="M93.37,120c-.29,0-.57,0-.85,0L81.18,131.42c0,.28,0,.56,0,.85a12.16,12.16,0,0,0,1.14,5.13L98.5,121.17A12.16,12.16,0,0,0,93.37,120Z"/><path class="cls-2" d="M100.94,122.67,83.77,139.83a12.27,12.27,0,0,0,3.84,3.23l16.55-16.55A12.27,12.27,0,0,0,100.94,122.67Z"/><path class="cls-2" d="M129.37,120c-.29,0-.57,0-.85,0l-11.34,11.34c0,.28,0,.56,0,.85a12.16,12.16,0,0,0,1.14,5.13l16.22-16.22A12.16,12.16,0,0,0,129.37,120Z"/><path class="cls-2" d="M136.94,122.67l-17.16,17.16a12.27,12.27,0,0,0,3.84,3.23l16.55-16.55A12.27,12.27,0,0,0,136.94,122.67Z"/></g></g></svg>