<svg xmlns="http://www.w3.org/2000/svg" viewBox="0 0 278.16 278.16"><defs><style>.cls-1{fill:#fbb03b;}.cls-2{fill:#00259a;}.cls-3{fill:#02b8ef;}.cls-4{fill:#fff;}</style></defs><title>prince_avatar</title><g id="Layer_2" data-name="Layer 2"><g id="Layer_1-2" data-name="Layer 1"><circle class="cls-1" cx="139.08" cy="139.08" r="139.08"/><path class="cls-2" d="M211.58,150.58a24.39,24.39,0,0,0-5.06-14.91A36.5,36.5,0,0,0,139.08,108a36.5,36.5,0,0,0-67.44,27.7A24.5,24.5,0,0,0,84,174a24.5,24.5,0,1,0,42.72-20.35,36.65,36.65,0,0,0,12.36-14.5,36.64,36.64,0,0,0,12.36,14.5A24.5,24.5,0,1,0,194.17,174,24.51,24.51,0,0,0,211.58,150.58Z"/><ellipse class="cls-3" cx="139.08" cy="159.08" rx="35.5" ry="48"/><path class="cls-2" d="M174.33,98.1a36.5,36.5,0,0,0-70.5,0c-17.79.33-19.75,4.88-19.75,24,0,19.88,2.12,36,22,36a35.94,35.94,0,0,0,28.69-14.26,35.6,35.6,0,0,0,8.62,0,35.94,35.94,0,0,0,28.69,14.26c19.88,0,22-16.12,22-36C194.08,103,192.12,98.43,174.33,98.1Z"/><path class="cls-4" d="M156.86,145.88a14.08,14.08,0,0,0-11.68,6.2H133a14.1,14.1,0,1,0,2.12,5h8a14.1,14.1,0,1,0,13.8-11.2Z"/><path class="cls-2" d="M121.19,147.85c-.29,0-.57,0-.85,0L109,159.23c0,.28,0,.56,0,.85a12.16,12.16,0,0,0,1.14,5.13L126.32,149A12.16,12.16,0,0,0,121.19,147.85Z"/><path class="cls-2" d="M128.75,150.48l-17.16,17.16a12.27,12.27,0,0,0,3.84,3.23L132,154.33A12.27,12.27,0,0,0,128.75,150.48Z"/><path class="cls-2" d="M157.19,147.85c-.29,0-.57,0-.85,0L145,159.23c0,.28,0,.56,0,.85a12.16,12.16,0,0,0,1.14,5.13L162.32,149A12.16,12.16,0,0,0,157.19,147.85Z"/><path class="cls-2" d="M164.75,150.48l-17.16,17.16a12.27,12.27,0,0,0,3.84,3.23L168,154.33A12.27,12.27,0,0,0,164.75,150.48Z"/></g></g></svg>