<svg xmlns="http://www.w3.org/2000/svg" viewBox="0 0 278.16 278.16"><defs><style>.cls-1{fill:#fbb03b;}.cls-2{fill:#00259a;}.cls-3{fill:#02b8ef;}.cls-4,.cls-5{fill:none;stroke:#fff;stroke-miterlimit:10;stroke-width:6px;}.cls-5{stroke-linecap:round;}</style></defs><title>punk_avatar</title><g id="Layer_2" data-name="Layer 2"><g id="Layer_1-2" data-name="Layer 1"><circle class="cls-1" cx="139.08" cy="139.08" r="139.08"/><path class="cls-2" d="M180.62,109.7a13.25,13.25,0,0,1,12.8,9.85,13.26,13.26,0,1,0-25.6,0A13.25,13.25,0,0,1,180.62,109.7Z"/><path class="cls-2" d="M177.76,105.82a13.25,13.25,0,0,1,16.13.9,13.26,13.26,0,1,0-21.13,14.45A13.25,13.25,0,0,1,177.76,105.82Z"/><path class="cls-2" d="M157.85,128.44l30.59-33.51a58,58,0,1,0-46.59,92.55c1.09,0,2.16,0,3.23-.09l-3.23-36.27Z"/><ellipse class="cls-3" cx="137.93" cy="153.9" rx="39.04" ry="52.78"/><path class="cls-3" d="M187.36,169.13H154c-5.5,0-16.1-21.06-16.1-26.56l-11.53-30.15c0-5.5,6-11.3,11.53-11.3h24.66c5.5,0,11.68,5.8,13.72,11.3l17.33,46.71C195.69,164.63,192.86,169.13,187.36,169.13Z"/><circle class="cls-4" cx="131.35" cy="138.62" r="17.61" transform="translate(-28.54 34.2) rotate(-13.39)"/><line class="cls-5" x1="125.33" y1="113.35" x2="123.75" y2="165.68"/><line class="cls-5" x1="125.33" y1="113.35" x2="150.33" y2="159.35"/><line class="cls-5" x1="106.56" y1="145.13" x2="156.41" y2="133.26"/></g></g></svg>