<svg xmlns="http://www.w3.org/2000/svg" viewBox="0 0 222.53 222.53"><defs><style>.cls-1{fill:#fbb03b;}.cls-2{fill:#00259a;}.cls-3{fill:#02b8ef;}.cls-4,.cls-5{fill:none;stroke:#fff;stroke-miterlimit:10;stroke-width:6px;}.cls-5{stroke-linecap:round;}</style></defs><title>punk_avatar</title><g id="Layer_2" data-name="Layer 2"><g id="Layer_1-2" data-name="Layer 1"><circle class="cls-1" cx="111.26" cy="111.26" r="111.26"/><path class="cls-2" d="M152.8,81.88a13.25,13.25,0,0,1,12.8,9.85,13.26,13.26,0,1,0-25.6,0A13.25,13.25,0,0,1,152.8,81.88Z"/><path class="cls-2" d="M149.95,78a13.25,13.25,0,0,1,16.13.9,13.26,13.26,0,1,0-21.13,14.45A13.25,13.25,0,0,1,149.95,78Z"/><path class="cls-2" d="M130,100.63l30.59-33.51A58,58,0,1,0,114,159.66c1.09,0,2.16,0,3.23-.09L114,123.3Z"/><ellipse class="cls-3" cx="110.11" cy="126.09" rx="39.04" ry="52.78"/><path class="cls-3" d="M159.55,141.31H126.21c-5.5,0-16.1-21.06-16.1-26.56L98.58,84.6c0-5.5,6-11.3,11.53-11.3h24.66c5.5,0,11.68,5.8,13.72,11.3l17.33,46.71C167.87,136.81,165,141.31,159.55,141.31Z"/><circle class="cls-4" cx="103.53" cy="110.8" r="17.61" transform="translate(-22.85 27) rotate(-13.39)"/><line class="cls-5" x1="97.52" y1="85.53" x2="95.93" y2="137.87"/><line class="cls-5" x1="97.52" y1="85.53" x2="122.51" y2="131.54"/><line class="cls-5" x1="78.74" y1="117.31" x2="128.6" y2="105.44"/></g></g></svg>