<svg xmlns="http://www.w3.org/2000/svg" viewBox="0 0 222.53 222.53"><defs><style>.cls-1{fill:#fbb03b;}.cls-2{fill:none;}.cls-3{fill:#00259a;}.cls-4{fill:#02b8ef;}.cls-5{fill:#fff;}</style></defs><title>SIOUXIE_avatar</title><g id="Layer_2" data-name="Layer 2"><g id="Layer_1-2" data-name="Layer 1"><circle class="cls-1" cx="111.26" cy="111.26" r="111.26"/><path class="cls-2" d="M37.77,139.82a14.88,14.88,0,0,1,1-5.22,13.82,13.82,0,0,1-1.19-1c-.14.22-.28.44-.42.66A30.6,30.6,0,0,0,37.34,166a19.17,19.17,0,0,1,5.23-10.42,30.79,30.79,0,0,1-1.37-6.27A14.88,14.88,0,0,1,37.77,139.82Z"/><path class="cls-2" d="M131.84,166.58a14.63,14.63,0,0,0,5.58,12.82,53.41,53.41,0,0,0,7-3A18.75,18.75,0,0,1,131.84,166.58Z"/><path class="cls-2" d="M38.13,113.51c.1-1.33.25-2.63.42-3.93a14.67,14.67,0,0,0-11.7,7.8,19.39,19.39,0,0,0,7.35,10.81,13.67,13.67,0,0,1,3.93-14.68Z"/><path class="cls-2" d="M85.11,179.41a14.63,14.63,0,0,0,5.58-12.82,18.75,18.75,0,0,1-12.57,9.8A53.41,53.41,0,0,0,85.11,179.41Z"/><path class="cls-2" d="M43,79.95c.14-.43.32-.84.48-1.26-.21.43-.41.86-.61,1.29Z"/><path class="cls-2" d="M29.88,110.84a14.64,14.64,0,0,1,8.89-2.91,87.83,87.83,0,0,1,2.88-12.58c-.09-.61-.17-1.23-.22-1.85a19.72,19.72,0,0,0-2.72.84c0,.19-.06.37-.09.55,0-.17,0-.34,0-.51a19.35,19.35,0,0,0-12.27,20.26A14.68,14.68,0,0,1,29.88,110.84Z"/><path class="cls-2" d="M41.29,90.56a33.74,33.74,0,0,1,.55-6l-.91.31a50.7,50.7,0,0,0-1.87,7.3,19.71,19.71,0,0,1,2.27-.39C41.31,91.38,41.29,91,41.29,90.56Z"/><path class="cls-2" d="M44.9,152.53c0,.3.09.6.14.9l.23-.16c-.13-.24-.24-.49-.36-.74Z"/><path class="cls-2" d="M180.88,95.34a87.83,87.83,0,0,1,2.88,12.58,14.62,14.62,0,0,1,12.44,6.71,19.35,19.35,0,0,0-12.27-20.26c0,.17,0,.34,0,.51,0-.19-.06-.37-.09-.55a19.72,19.72,0,0,0-2.72-.84C181,94.12,181,94.73,180.88,95.34Z"/><path class="cls-2" d="M181.24,90.56c0,.41,0,.82,0,1.23a19.71,19.71,0,0,1,2.27.39,50.73,50.73,0,0,0-1.87-7.3l-.91-.31A33.74,33.74,0,0,1,181.24,90.56Z"/><path class="cls-2" d="M191.46,112.43a14.62,14.62,0,0,0-7.48-2.85c.17,1.29.31,2.6.42,3.93a13.67,13.67,0,0,1,3.93,14.68,19.39,19.39,0,0,0,7.35-10.81A14.66,14.66,0,0,0,191.46,112.43Z"/><path class="cls-2" d="M177.26,153.28l.23.16c.05-.3.1-.6.14-.9h0C177.5,152.79,177.38,153,177.26,153.28Z"/><path class="cls-2" d="M185,133.55a13.78,13.78,0,0,1-1.19,1,14.87,14.87,0,0,1-2.47,14.75,30.81,30.81,0,0,1-1.37,6.27A19.17,19.17,0,0,1,185.18,166a30.6,30.6,0,0,0,.23-31.82C185.28,134,185.13,133.77,185,133.55Z"/><path class="cls-2" d="M179.52,79.95l.13,0c-.2-.43-.4-.87-.61-1.29C179.2,79.11,179.37,79.52,179.52,79.95Z"/><path class="cls-3" d="M216,97.14c-.2-.78-.41-1.57-.66-2.35A36.1,36.1,0,0,0,179,69.85a51,51,0,0,0-47.31-28.93C119.87,36.17,111.26,36,111.26,36s-8.61.13-20.41,4.88A51,51,0,0,0,43.54,69.85,36.1,36.1,0,0,0,7.17,94.79c-.25.78-.47,1.56-.66,2.35A36.1,36.1,0,0,1,41.6,74.47a50.63,50.63,0,0,0-1.87,6.43,30.62,30.62,0,0,0-19.32,37.27c.19.67.41,1.32.64,2a30.62,30.62,0,0,1,17.87-34.5c-.18,1.51-.32,3-.37,4.57,0,.7,0,1.4,0,2.09A19.41,19.41,0,0,0,25,117.3a14.72,14.72,0,0,0,1.9,14.17c.2.27.41.53.62.78a14.72,14.72,0,0,1-1.59-12.64,19.37,19.37,0,0,0,7.52,8.23c.27.16.55.3.82.45A13.64,13.64,0,0,0,35,130c-.48.68-1,1.37-1.39,2.1a30.64,30.64,0,0,0,3.53,36.24,19.47,19.47,0,0,0,9.46,17.53c.38.23.77.43,1.15.63a19.46,19.46,0,0,1-8.35-15.91,30.75,30.75,0,0,0,4.76,3.52c.6.36,1.2.68,1.81,1A30.49,30.49,0,0,1,39.41,169a19.37,19.37,0,0,1,2.7-8.48,19.56,19.56,0,0,1,1.52-2.15,30.47,30.47,0,0,0,12.29,13.93c.6.36,1.2.68,1.81,1a30.53,30.53,0,0,1-12.08-17.12c.26-.24.54-.46.81-.68A53.94,53.94,0,0,0,58.6,169.94a19.4,19.4,0,0,0,9.22,13.74c.38.23.77.43,1.15.63a19.4,19.4,0,0,1-8-12.51c.74.55,1.49,1.08,2.25,1.59.36.26.74.5,1.12.73A53.36,53.36,0,0,0,82,181.29a14.65,14.65,0,0,1-7.11,1.23c.32.07.65.13,1,.18a14.66,14.66,0,0,0,7.95-1.06,54,54,0,0,0,9.25.81c1.66,0,3.3-.09,4.92-.23A53.45,53.45,0,0,1,86.74,180a14.7,14.7,0,0,0,5.21-16.53,18.64,18.64,0,0,0-6.63-20.19,18.73,18.73,0,0,0,7.53-24.34,33.56,33.56,0,0,0,8-49.54c6-4,10.38-7.1,10.38-7.1s4.42,3.11,10.38,7.1a33.56,33.56,0,0,0,8,49.54,18.73,18.73,0,0,0,7.53,24.34,18.64,18.64,0,0,0-6.63,20.19A14.7,14.7,0,0,0,135.79,180a53.45,53.45,0,0,1-11.22,2.25c1.62.15,3.26.23,4.92.23a54,54,0,0,0,9.25-.81,14.66,14.66,0,0,0,7.95,1.06c.33,0,.66-.11,1-.18a14.65,14.65,0,0,1-7.11-1.23,53.35,53.35,0,0,0,17.63-7.17c.38-.23.76-.47,1.12-.73.76-.51,1.52-1,2.25-1.59a19.4,19.4,0,0,1-8,12.51c.39-.2.77-.41,1.15-.63a19.4,19.4,0,0,0,9.22-13.74,53.94,53.94,0,0,0,12.14-14.47c.27.22.55.44.81.68a30.53,30.53,0,0,1-12.08,17.12c.61-.31,1.22-.64,1.81-1a30.47,30.47,0,0,0,12.29-13.93A19,19,0,0,1,183.12,169a30.48,30.48,0,0,1-6.52,6.12c.61-.31,1.22-.64,1.81-1a30.75,30.75,0,0,0,4.76-3.52,19.46,19.46,0,0,1-8.35,15.91c.39-.2.77-.41,1.15-.63a19.47,19.47,0,0,0,9.46-17.53A30.64,30.64,0,0,0,189,132.09c-.44-.73-.9-1.42-1.39-2.1a13.65,13.65,0,0,0,.72-1.7c.27-.15.55-.29.82-.45a19.37,19.37,0,0,0,7.52-8.23A14.72,14.72,0,0,1,195,132.25c.21-.25.42-.51.62-.78a14.72,14.72,0,0,0,1.9-14.17A19.41,19.41,0,0,0,184,92.3c0-.69,0-1.39,0-2.09-.05-1.55-.18-3.07-.37-4.57a30.62,30.62,0,0,1,17.87,34.5c.23-.65.45-1.3.64-2A30.62,30.62,0,0,0,182.79,80.9a50.63,50.63,0,0,0-1.87-6.43A36.1,36.1,0,0,1,216,97.14ZM40.93,84.87l.91-.31a33.74,33.74,0,0,0-.55,6c0,.41,0,.82,0,1.23a19.71,19.71,0,0,0-2.27.39A50.7,50.7,0,0,1,40.93,84.87ZM29,102.48a19.3,19.3,0,0,1,9.63-8.1c0,.17,0,.34,0,.51,0-.19.06-.37.09-.55a19.72,19.72,0,0,1,2.72-.84c.05.62.14,1.24.22,1.85a87.83,87.83,0,0,0-2.88,12.58,14.62,14.62,0,0,0-12.44,6.71A19.37,19.37,0,0,1,29,102.48Zm4.51,21.32a13.7,13.7,0,0,0,.73,4.39,19.39,19.39,0,0,1-7.35-10.81,14.67,14.67,0,0,1,11.7-7.8c-.17,1.29-.31,2.6-.42,3.93A13.68,13.68,0,0,0,33.47,123.8Zm6.37,35.34a19.4,19.4,0,0,0-2.5,6.89,30.6,30.6,0,0,1-.23-31.82c.14-.23.28-.44.42-.66a13.82,13.82,0,0,0,1.19,1,14.87,14.87,0,0,0,2.47,14.75,30.79,30.79,0,0,0,1.37,6.27A19.48,19.48,0,0,0,39.85,159.14ZM43,79.95l-.13,0c.2-.43.4-.87.61-1.29C43.33,79.11,43.16,79.52,43,79.95Zm2,73.49c-.05-.3-.1-.6-.14-.9h0c.12.25.24.5.36.74Zm45.65,13.14a14.63,14.63,0,0,1-5.58,12.82,53.41,53.41,0,0,1-7-3A18.75,18.75,0,0,0,90.68,166.58Zm46.74,12.82a14.63,14.63,0,0,1-5.58-12.82,18.75,18.75,0,0,0,12.57,9.8A53.41,53.41,0,0,1,137.42,179.41Zm40.07-26-.23-.16c.13-.24.24-.49.36-.74h0C177.59,152.84,177.54,153.14,177.49,153.44Zm2-73.49c-.14-.43-.32-.84-.48-1.26.21.43.41.86.61,1.29ZM185.18,166A19.17,19.17,0,0,0,180,155.61a30.81,30.81,0,0,0,1.37-6.27,14.87,14.87,0,0,0,2.47-14.75,13.78,13.78,0,0,0,1.19-1c.14.22.28.44.42.66A30.6,30.6,0,0,1,185.18,166Zm3.14-37.84a13.67,13.67,0,0,0-3.93-14.68c-.1-1.33-.25-2.63-.42-3.93a14.67,14.67,0,0,1,11.7,7.8A19.39,19.39,0,0,1,188.33,128.19Zm-4.51-33.85c0,.19.06.37.09.55,0-.17,0-.34,0-.51a19.35,19.35,0,0,1,12.27,20.26,14.62,14.62,0,0,0-12.44-6.71,87.83,87.83,0,0,0-2.88-12.58c.09-.61.17-1.23.22-1.85A19.72,19.72,0,0,1,183.82,94.34Zm-2.22-9.47a50.73,50.73,0,0,1,1.87,7.3,19.71,19.71,0,0,0-2.27-.39c0-.41,0-.82,0-1.23a33.74,33.74,0,0,0-.55-6Z"/><path class="cls-4" d="M146.05,100.79a9.88,9.88,0,0,0-8.83-9.8c-.32,0-.64,0-1,0l-50,0c-.33,0-.65,0-1,0a9.83,9.83,0,0,0-8.83,9.75v36.27c0,26,15.58,47,34.79,47s34.79-21.06,34.79-47V100.79Z"/><path class="cls-3" d="M142.37,124.65s-4.52,6.5-11.25,7.63S118,128.72,118,128.72s4.52-6.5,11.25-7.63S142.37,124.65,142.37,124.65Z"/><path class="cls-5" d="M136.08,125.69s-3,4.36-7.54,5.11-8.79-2.38-8.79-2.38,3-4.36,7.54-5.11S136.08,125.69,136.08,125.69Z"/><path class="cls-3" d="M138.78,116.83a24,24,0,0,1,18,8.09V113.56H118v15.18A24.06,24.06,0,0,1,138.78,116.83Z"/><path class="cls-3" d="M121.84,124.7s-1.13,0,.42-1.3-2.51.65-2.51.65l-1.56,3.65-.19,1,1.27,0Z"/><path class="cls-3" d="M133.79,162.75v-14s10,0,20.09-17.87C153.88,130.91,145.67,156.14,133.79,162.75Z"/><path class="cls-3" d="M80.16,124.65s4.52,6.5,11.25,7.63,13.12-3.56,13.12-3.56-4.52-6.5-11.25-7.63S80.16,124.65,80.16,124.65Z"/><path class="cls-5" d="M86.45,125.69s3,4.36,7.54,5.11,8.79-2.38,8.79-2.38-3-4.36-7.54-5.11S86.45,125.69,86.45,125.69Z"/><path class="cls-3" d="M83.75,116.83a24,24,0,0,0-18,8.09V113.56h38.77v15.18A24.06,24.06,0,0,0,83.75,116.83Z"/><path class="cls-3" d="M100.69,124.7s1.13,0-.42-1.3,2.51.65,2.51.65l1.56,3.65.19,1-1.27,0Z"/><path class="cls-3" d="M88.74,162.75v-14s-10,0-20.09-17.87C68.65,130.91,76.86,156.14,88.74,162.75Z"/><path class="cls-3" d="M128.38,163.75l-13.61-6.09-3.51,4.62-3.51-4.62-13.61,6.09h6.42a13.43,13.43,0,0,0,21.39,0Z"/><path class="cls-3" d="M99.05,117.19a30.62,30.62,0,0,1,28.56-30.55c-.68,0-1.37-.08-2.07-.08a30.62,30.62,0,1,0,0,61.25c.7,0,1.38,0,2.07-.08A30.62,30.62,0,0,1,99.05,117.19Z"/><path class="cls-2" d="M80.46,106.91a17.65,17.65,0,0,1-11.33-4.1,30.8,30.8,0,0,0-.44,5.14,30.49,30.49,0,0,0,7.8,20.4,30.47,30.47,0,0,0,7.67-17.63,30.76,30.76,0,0,1-6.08.61c-.7,0-1.38,0-2.07-.08a30.49,30.49,0,0,0,8.24-1.71c0-.53,0-1.06,0-1.59s0-1,0-1.46A17.75,17.75,0,0,1,80.46,106.91Z"/><path class="cls-2" d="M92.59,76.29c.08-.5.17-1,.28-1.47-.56.08-1.11.17-1.67.3A17.78,17.78,0,0,1,92.59,76.29Z"/><path class="cls-2" d="M115.57,97.56a18.85,18.85,0,0,1-2.84.44,13.94,13.94,0,0,0,2.13,2.77A20.18,20.18,0,0,0,115.57,97.56Z"/><path class="cls-2" d="M93.32,73.22A18.86,18.86,0,0,1,98,65.73a36.16,36.16,0,0,0-5-5.63,30.53,30.53,0,0,0-6.86,12.33A17.62,17.62,0,0,1,90,74.25,20.06,20.06,0,0,1,93.32,73.22Z"/><path class="cls-2" d="M102.61,62.36a18.81,18.81,0,0,1,17.31,0,30.79,30.79,0,0,1,5.73-5.83,30.48,30.48,0,0,0-14.39-6.12,30.48,30.48,0,0,0-14.39,6.12A30.8,30.8,0,0,1,102.61,62.36Z"/><path class="cls-2" d="M107.67,100.77A13.94,13.94,0,0,0,109.8,98a18.85,18.85,0,0,1-2.84-.44A20.18,20.18,0,0,0,107.67,100.77Z"/><path class="cls-2" d="M114.43,102a14,14,0,0,1-3.17-3.36A14,14,0,0,1,108.1,102a20,20,0,0,0,3.17,5.44A20,20,0,0,0,114.43,102Z"/><path class="cls-2" d="M88.29,105.06q.12,1.3.13,2.62a30.66,30.66,0,0,0,4.31-2.81c-.6-.47-1.18-.95-1.75-1.46A17.69,17.69,0,0,1,88.29,105.06Z"/><path class="cls-2" d="M131.32,75.12c-.55-.12-1.11-.22-1.67-.3.11.48.2,1,.28,1.47A17.78,17.78,0,0,1,131.32,75.12Z"/><path class="cls-2" d="M124.53,65.73a18.85,18.85,0,0,1,4.68,7.49,20.06,20.06,0,0,1,3.35,1,17.62,17.62,0,0,1,3.79-1.82,30.53,30.53,0,0,0-6.86-12.33A36.15,36.15,0,0,0,124.53,65.73Z"/><path class="cls-2" d="M97.86,92.5a17.66,17.66,0,0,1-4.67,9c.52.56,1.06,1.1,1.62,1.61A30.71,30.71,0,0,0,101,95,19,19,0,0,1,97.86,92.5Z"/><path class="cls-2" d="M146.51,111.25c-.68,0-1.37.08-2.07.08a30.76,30.76,0,0,1-6.08-.61A30.48,30.48,0,0,0,146,128.35a30.49,30.49,0,0,0,7.8-20.4,30.8,30.8,0,0,0-.44-5.14,17.65,17.65,0,0,1-15.13,3.68c0,.48,0,1,0,1.46s0,1.06,0,1.59A30.49,30.49,0,0,0,146.51,111.25Z"/><path class="cls-2" d="M129.8,104.87a30.65,30.65,0,0,0,4.31,2.81q0-1.33.13-2.62a17.68,17.68,0,0,1-2.7-1.65C131,103.92,130.39,104.41,129.8,104.87Z"/><path class="cls-2" d="M118.33,96.7c-.33.13-.67.26-1,.37a20.1,20.1,0,0,1-1.55,4.53,13.85,13.85,0,0,0,8,3.26c-.31,0-.62,0-.94,0a13.84,13.84,0,0,1-7.59-2.26,20.15,20.15,0,0,1-3.72,4.84l-.16.15c.21.25.41.51.63.76-.25-.21-.5-.44-.74-.66-.24.22-.49.45-.74.66.22-.25.42-.51.63-.76l-.16-.15a20.15,20.15,0,0,1-3.72-4.84,13.84,13.84,0,0,1-7.59,2.26c-.32,0-.63,0-.94,0a13.85,13.85,0,0,0,8-3.26,20.11,20.11,0,0,1-1.55-4.53c-.34-.12-.68-.24-1-.37a30.78,30.78,0,0,1-7.32,8.18A30.48,30.48,0,0,0,111.26,111a30.48,30.48,0,0,0,14.39-6.12A30.77,30.77,0,0,1,118.33,96.7Z"/><path class="cls-2" d="M121.52,95a30.71,30.71,0,0,0,6.2,8.07c.56-.52,1.1-1.06,1.62-1.61a17.66,17.66,0,0,1-4.67-9A19,19,0,0,1,121.52,95Z"/><path class="cls-3" d="M153.84,44A35.85,35.85,0,0,0,128.2,54.76l-.48.29a30.44,30.44,0,0,0-14.37-4.87l.24,0c-.68,0-1.37-.08-2.07-.08H111c-.7,0-1.38,0-2.07.08l.24,0A30.44,30.44,0,0,0,94.8,55l-.48-.29A36,36,0,0,0,32.72,80c0,1.11.06,2.21.16,3.29A36,36,0,0,1,90.78,58.19a30.6,30.6,0,0,0-8.49,13.37,17.92,17.92,0,0,0-1.84-.1,17.67,17.67,0,0,0-14.14,7.07,30.62,30.62,0,0,0-8.51-1.21c-.7,0-1.38,0-2.07.08a30.47,30.47,0,0,1,9.77,2.3,17.66,17.66,0,0,0,.33,19.49,30.62,30.62,0,0,0,8.59,31.26,30.51,30.51,0,0,1-18.68,8c.68,0,1.37.08,2.07.08a30.48,30.48,0,0,0,18.69-6.37,30.48,30.48,0,0,0,18.69,6.37c.7,0,1.38,0,2.07-.08a30.51,30.51,0,0,1-18.68-8,30.54,30.54,0,0,0,9.82-20.91,30.5,30.5,0,0,0,6.42-3.19,30.44,30.44,0,0,0,14.37,4.87l-.24,0c.68,0,1.37.08,2.07.08h.52c.7,0,1.38,0,2.07-.08l-.24,0a30.44,30.44,0,0,0,14.37-4.87,30.5,30.5,0,0,0,6.42,3.19A30.54,30.54,0,0,0,144,130.45a30.51,30.51,0,0,1-18.68,8c.68,0,1.37.08,2.07.08A30.48,30.48,0,0,0,146,132.2a30.48,30.48,0,0,0,18.69,6.37c.7,0,1.38,0,2.07-.08a30.51,30.51,0,0,1-18.68-8,30.62,30.62,0,0,0,8.59-31.26A17.66,17.66,0,0,0,157,79.7a30.47,30.47,0,0,1,9.77-2.3c-.68,0-1.37-.08-2.07-.08a30.62,30.62,0,0,0-8.51,1.21,17.68,17.68,0,0,0-14.14-7.07,17.92,17.92,0,0,0-1.84.1,30.6,30.6,0,0,0-8.49-13.37,36,36,0,0,1,57.91,25.08c.1-1.08.16-2.18.16-3.29A36,36,0,0,0,153.84,44Zm-42.57,6.39a30.48,30.48,0,0,1,14.39,6.12,30.79,30.79,0,0,0-5.73,5.83,18.81,18.81,0,0,0-17.31,0,30.8,30.8,0,0,0-5.73-5.83A30.48,30.48,0,0,1,111.26,50.41Zm0,48.27a14,14,0,0,0,3.17,3.36,20,20,0,0,1-3.17,5.44A20,20,0,0,1,108.1,102,14,14,0,0,0,111.26,98.68Zm-3.6,2.09a20.18,20.18,0,0,1-.71-3.2,18.85,18.85,0,0,0,2.84.44A13.94,13.94,0,0,1,107.67,100.77ZM112.73,98a18.85,18.85,0,0,0,2.84-.44,20.18,20.18,0,0,1-.71,3.2A13.94,13.94,0,0,1,112.73,98ZM84.25,109.53A30.49,30.49,0,0,1,76,111.25c.68,0,1.37.08,2.07.08a30.76,30.76,0,0,0,6.08-.61,30.47,30.47,0,0,1-7.67,17.63,30.49,30.49,0,0,1-7.8-20.4,30.8,30.8,0,0,1,.44-5.14,17.65,17.65,0,0,0,15.13,3.68q0,.73,0,1.46C84.29,108.48,84.28,109,84.25,109.53ZM93,60.09a36.16,36.16,0,0,1,5,5.63,18.86,18.86,0,0,0-4.68,7.49,20.06,20.06,0,0,0-3.35,1,17.62,17.62,0,0,0-3.79-1.82A30.53,30.53,0,0,1,93,60.09Zm-4.61,47.59q0-1.33-.13-2.62a17.69,17.69,0,0,0,2.7-1.65c.56.51,1.15,1,1.75,1.46A30.66,30.66,0,0,1,88.42,107.69Zm4.17-31.39a17.78,17.78,0,0,0-1.39-1.18c.55-.12,1.11-.22,1.67-.3C92.76,75.3,92.67,75.8,92.59,76.29Zm.6,25.2a17.66,17.66,0,0,0,4.67-9A19,19,0,0,0,101,95a30.71,30.71,0,0,1-6.2,8.07C94.25,102.59,93.71,102.05,93.19,101.49Zm18.08,9.5a30.48,30.48,0,0,1-14.39-6.12,30.78,30.78,0,0,0,7.32-8.18c.33.13.67.26,1,.37a20.11,20.11,0,0,0,1.55,4.53,13.85,13.85,0,0,1-8,3.26c.31,0,.62,0,.94,0a13.84,13.84,0,0,0,7.59-2.26,20.15,20.15,0,0,0,3.72,4.84l.16.15c-.21.25-.41.51-.63.76.25-.21.5-.44.74-.66.24.22.49.45.74.66-.22-.25-.42-.51-.63-.76l.16-.15a20.15,20.15,0,0,0,3.72-4.84,13.84,13.84,0,0,0,7.59,2.26c.32,0,.63,0,.94,0a13.85,13.85,0,0,1-8-3.26,20.1,20.1,0,0,0,1.55-4.53c.34-.12.68-.24,1-.37a30.77,30.77,0,0,0,7.32,8.18A30.48,30.48,0,0,1,111.26,111Zm16.46-7.89a30.71,30.71,0,0,1-6.2-8.07,19,19,0,0,0,3.15-2.54,17.66,17.66,0,0,0,4.67,9C128.82,102.05,128.28,102.59,127.72,103.11Zm6.38,4.58a30.65,30.65,0,0,1-4.31-2.81c.6-.47,1.18-.95,1.75-1.46a17.68,17.68,0,0,0,2.7,1.65Q134.12,106.36,134.11,107.69Zm-4.45-32.87c.56.08,1.12.17,1.67.3a17.78,17.78,0,0,0-1.39,1.18C129.86,75.8,129.77,75.3,129.66,74.82Zm8.61,31.67a17.65,17.65,0,0,0,15.13-3.68,30.8,30.8,0,0,1,.44,5.14,30.49,30.49,0,0,1-7.8,20.4,30.48,30.48,0,0,1-7.67-17.63,30.76,30.76,0,0,0,6.08.61c.7,0,1.38,0,2.07-.08a30.49,30.49,0,0,1-8.24-1.71c0-.53,0-1.06,0-1.59S138.25,107,138.27,106.49Zm-1.92-34.06a17.62,17.62,0,0,0-3.79,1.82,20.06,20.06,0,0,0-3.35-1,18.85,18.85,0,0,0-4.68-7.49,36.15,36.15,0,0,1,5-5.63A30.53,30.53,0,0,1,136.35,72.42Z"/></g></g></svg>