<svg xmlns="http://www.w3.org/2000/svg" viewBox="0 0 278.16 278.16"><defs><style>.cls-1{fill:#fbb03b;}.cls-2{fill:#00259a;}.cls-3{fill:#02b8ef;}.cls-4{fill:#fff;}.cls-5{fill:none;}</style></defs><title>supremes_avatar</title><g id="Layer_2" data-name="Layer 2"><g id="Layer_1-2" data-name="Layer 1"><circle class="cls-1" cx="139.08" cy="139.08" r="139.08"/><path class="cls-2" d="M162.58,103.08s0,.1,0,.15h0S162.58,103.13,162.58,103.08Z"/><path class="cls-3" d="M177.21,133.69c-6.38,8.48-18.52,14.39-29.62,14.39a32.94,32.94,0,0,1-26.11-12.83,35,35,0,0,0,23.11,41.06,35,35,0,0,1-25.81-1.51,5,5,0,0,1-4.19,2.29c-.14,0-.28,0-.42,0a50,50,0,0,0,10.41,19.15c6.13,6.8,14,10.89,22.52,10.89,13.34,0,25-10,31-24.66a61.38,61.38,0,0,0,4.48-23.34A60.74,60.74,0,0,0,177.21,133.69Z"/><path class="cls-2" d="M161,113.06c-.08.25-.16.49-.25.74C160.82,113.56,160.9,113.31,161,113.06Z"/><path class="cls-2" d="M161.43,111.58c-.07.26-.14.52-.22.78C161.29,112.1,161.36,111.84,161.43,111.58Z"/><path class="cls-2" d="M161.81,110.06c-.06.27-.12.54-.19.81C161.69,110.61,161.75,110.33,161.81,110.06Z"/><path class="cls-2" d="M162.5,105.22c0,.35,0,.7-.08,1.05C162.46,105.92,162.48,105.57,162.5,105.22Z"/><path class="cls-2" d="M160.43,114.61l0-.09,0,.09Z"/><path class="cls-2" d="M162.58,103.23h0c0,.49,0,1,0,1.46C162.56,104.2,162.57,103.72,162.58,103.23Z"/><path class="cls-2" d="M162.35,106.9c0,.31-.07.62-.12.93C162.27,107.52,162.31,107.21,162.35,106.9Z"/><path class="cls-2" d="M162.11,108.5c0,.29-.1.58-.15.87C162,109.08,162.06,108.79,162.11,108.5Z"/><path class="cls-2" d="M160.19,115.22l.24-.61h0Z"/><path class="cls-2" d="M137.86,134.24l-.07,0Z"/><path class="cls-2" d="M143.47,132.37h0Z"/><path class="cls-2" d="M154.11,124.76l-.13.13Z"/><path class="cls-2" d="M140.74,133.42l-.06,0Z"/><path class="cls-2" d="M136.38,134.55h0Z"/><path class="cls-2" d="M142.13,132.92l0,0Z"/><path class="cls-2" d="M139.32,133.86l-.07,0Z"/><path class="cls-2" d="M134.86,134.79h0Z"/><path class="cls-2" d="M155.11,123.63l-.24.28Z"/><path class="cls-2" d="M159.24,117.32l-.32.62Z"/><path class="cls-2" d="M158.53,118.66l-.33.57Z"/><path class="cls-2" d="M157.76,120l-.33.51Z"/><path class="cls-2" d="M159.89,115.93l-.3.66Z"/><path class="cls-2" d="M156,122.45l-.3.38Z"/><path class="cls-2" d="M156.93,121.23l-.32.45Z"/><path class="cls-4" d="M162.58,103.23c.9.4,1.8.78,2.7,1.16a10.31,10.31,0,0,0-2.71-1.76c0,.15,0,.31,0,.46S162.58,103.18,162.58,103.23Z"/><path class="cls-4" d="M169.21,111.77a13.25,13.25,0,0,0-3.93-7.38c-.9-.38-1.8-.76-2.7-1.16,0,.49,0,1,0,1.46,0,.18,0,.36,0,.53,0,.35,0,.7-.08,1.05s-.05.42-.08.63-.07.62-.12.93-.08.45-.11.67-.1.58-.15.87-.1.46-.15.69-.12.54-.19.81-.12.47-.19.71-.14.52-.22.78-.15.47-.23.71-.16.49-.25.74-.18.48-.27.71l0,.09-.24.61-.31.72-.3.66-.35.72-.32.62-.39.73-.33.57-.44.74-.33.51-.5.75-.32.45-.56.77-.3.38c-.21.27-.42.54-.64.8l-.24.28c-.25.29-.49.57-.75.85l-.13.13a32.07,32.07,0,0,1-10.51,7.48h0q-.66.29-1.34.55l0,0q-.67.26-1.35.48l-.06,0q-.67.22-1.36.42l-.07,0q-.69.19-1.39.36l-.07,0q-.7.16-1.42.29h-.06q-.72.13-1.45.23h0q-.75.1-1.5.16a27.23,27.23,0,0,0,10.58,2.12c11.39,0,21.36-7.41,24.54-16.34A17,17,0,0,0,169.21,111.77Z"/><path class="cls-4" d="M162.58,103.08c0-.15,0-.31,0-.46h0C162.57,102.77,162.58,102.93,162.58,103.08Z"/><path class="cls-4" d="M161.21,112.36c-.07.24-.15.47-.23.71C161.06,112.83,161.14,112.59,161.21,112.36Z"/><path class="cls-4" d="M161.62,110.87c-.06.24-.12.47-.19.71C161.5,111.35,161.56,111.11,161.62,110.87Z"/><path class="cls-4" d="M160.73,113.8c-.09.24-.18.48-.27.71C160.56,114.28,160.65,114,160.73,113.8Z"/><path class="cls-4" d="M162,109.37c0,.23-.1.46-.15.69C161.86,109.83,161.91,109.6,162,109.37Z"/><path class="cls-4" d="M162.42,106.27c0,.21-.05.42-.08.63C162.37,106.69,162.4,106.48,162.42,106.27Z"/><path class="cls-4" d="M162.54,104.69c0,.18,0,.36,0,.53C162.51,105,162.53,104.86,162.54,104.69Z"/><path class="cls-4" d="M162.23,107.83c0,.23-.08.45-.11.67C162.15,108.28,162.19,108.06,162.23,107.83Z"/><path class="cls-4" d="M157.43,120.48l-.5.75Z"/><path class="cls-4" d="M137.79,134.25q-.7.16-1.42.29Q137.09,134.42,137.79,134.25Z"/><path class="cls-4" d="M158.2,119.23l-.44.74Z"/><path class="cls-4" d="M160.19,115.22l-.31.72Z"/><path class="cls-4" d="M159.59,116.6l-.35.72Z"/><path class="cls-4" d="M158.92,117.93l-.39.73Z"/><path class="cls-4" d="M143.47,132.37q-.66.29-1.34.55Q142.81,132.66,143.47,132.37Z"/><path class="cls-4" d="M133.32,135h0q.76-.06,1.5-.16Q134.07,134.89,133.32,135Z"/><path class="cls-4" d="M143.47,132.37A32.07,32.07,0,0,0,154,124.89,32.08,32.08,0,0,1,143.47,132.37Z"/><path class="cls-4" d="M139.25,133.88q-.69.19-1.39.36Q138.56,134.08,139.25,133.88Z"/><path class="cls-4" d="M140.68,133.44q-.67.22-1.36.42Q140,133.67,140.68,133.44Z"/><path class="cls-4" d="M154.87,123.91c-.25.29-.49.57-.75.85C154.37,124.48,154.62,124.19,154.87,123.91Z"/><path class="cls-4" d="M136.31,134.56q-.72.13-1.45.23Q135.59,134.69,136.31,134.56Z"/><path class="cls-4" d="M142.09,132.94q-.67.26-1.35.48Q141.42,133.19,142.09,132.94Z"/><path class="cls-4" d="M155.75,122.83c-.21.27-.42.54-.64.8C155.33,123.37,155.54,123.1,155.75,122.83Z"/><path class="cls-4" d="M156.61,121.68c-.19.26-.37.52-.56.77Z"/><path class="cls-5" d="M165.28,104.38a10.31,10.31,0,0,0-2.71-1.76c0,.15,0,.31,0,.46s0,.1,0,.15c0,.49,0,1,0,1.46,0,.18,0,.36,0,.53,0,.35,0,.7-.08,1.05s-.05.42-.08.63-.07.62-.12.93-.08.45-.11.67-.1.58-.15.87-.1.46-.15.69-.12.54-.19.81-.12.47-.19.71-.14.52-.22.78-.15.47-.23.71-.16.49-.25.74-.18.48-.27.71l0,.09-.24.61-.31.72-.3.66-.35.72-.32.62-.39.73-.33.57-.44.74-.33.51-.5.75-.32.45c-.19.26-.37.52-.56.77l-.3.38c-.21.27-.42.54-.64.8l-.24.28c-.25.29-.49.57-.75.85l-.13.13a32.08,32.08,0,0,1-10.51,7.48h0q-.66.29-1.34.55l0,0q-.67.26-1.35.48l-.06,0q-.67.22-1.36.42l-.07,0q-.69.19-1.39.36l-.07,0q-.7.16-1.42.29h-.06q-.72.13-1.45.23h0q-.75.1-1.5.16a27.23,27.23,0,0,0,10.58,2.12c11.39,0,21.36-7.41,24.54-16.34a17,17,0,0,0,.77-9A13.25,13.25,0,0,0,165.28,104.38Z"/><path class="cls-2" d="M195.58,141.58a56.51,56.51,0,0,0-36.37-52.79A32,32,0,0,0,98.6,102.18a56.49,56.49,0,0,0,26,94A50,50,0,0,1,114.16,177a5,5,0,1,1,4.61-2.24,35,35,0,0,0,25.81,1.51,35,35,0,0,1-23.11-41.06,32.94,32.94,0,0,0,26.11,12.83c11.11,0,23.25-5.9,29.63-14.39a60.74,60.74,0,0,1,5.38,25.39,61.38,61.38,0,0,1-4.48,23.34A56.32,56.32,0,0,0,195.58,141.58Zm-27.15-20.84c-3.18,8.93-13.15,16.34-24.54,16.34A27.23,27.23,0,0,1,133.32,135q.76-.06,1.5-.16h0q.73-.1,1.45-.23h.06q.71-.13,1.42-.29l.07,0q.7-.16,1.39-.36l.07,0q.69-.19,1.36-.42l.06,0q.68-.23,1.35-.48l0,0q.68-.26,1.34-.55h0A32.08,32.08,0,0,0,154,124.89l.13-.13c.26-.28.5-.56.75-.85l.24-.28c.22-.26.43-.53.64-.8l.3-.38c.19-.25.38-.51.56-.77l.32-.45.5-.75.33-.51.44-.74.33-.57.39-.73.32-.62.35-.72.3-.66.31-.72.24-.61,0-.09c.09-.24.18-.48.27-.71s.17-.49.25-.74.15-.47.23-.71.15-.52.22-.78.13-.47.19-.71.13-.54.19-.81.11-.46.15-.69.1-.58.15-.87.08-.45.11-.67.08-.62.12-.93.06-.42.08-.63.06-.7.08-1.05c0-.18,0-.35,0-.53,0-.48,0-1,0-1.46,0,0,0-.1,0-.15s0-.31,0-.46a10.31,10.31,0,0,1,2.71,1.76,13.25,13.25,0,0,1,3.93,7.38A17,17,0,0,1,168.44,120.74Z"/><path class="cls-4" d="M110.42,169.31a5,5,0,0,0,3.74,7.73,60.05,60.05,0,0,1-1.44-5.85C111.93,170.59,111.16,170,110.42,169.31Z"/><path class="cls-4" d="M114.16,177c.14,0,.28,0,.42,0a5,5,0,0,0,4.19-2.29,35,35,0,0,1-6.05-3.61A60.05,60.05,0,0,0,114.16,177Z"/><path class="cls-4" d="M112.17,167.73a5,5,0,0,0-1.75,1.58c.74.65,1.51,1.28,2.3,1.87C112.5,170,112.32,168.89,112.17,167.73Z"/><path class="cls-4" d="M114.58,167.08a4.94,4.94,0,0,0-2.41.65c.16,1.17.34,2.32.55,3.46a35,35,0,0,0,6.05,3.61,5,5,0,0,0-4.19-7.71Z"/><rect class="cls-4" x="108.58" y="166.08" width="12" height="12" rx="6" ry="6"/></g></g></svg>