<svg xmlns="http://www.w3.org/2000/svg" viewBox="0 0 222.53 222.53"><defs><style>.cls-1{fill:#fbb03b;}.cls-2{fill:#00259a;}.cls-3{fill:#02b8ef;}.cls-4{fill:#fff;}.cls-5{fill:none;}</style></defs><title>supremes_avatar</title><g id="Layer_2" data-name="Layer 2"><g id="Layer_1-2" data-name="Layer 1"><circle class="cls-1" cx="111.26" cy="111.26" r="111.26"/><path class="cls-2" d="M134.76,75.26s0,.1,0,.15h0S134.76,75.31,134.76,75.26Z"/><path class="cls-3" d="M149.39,105.88c-6.38,8.48-18.52,14.39-29.63,14.39a32.94,32.94,0,0,1-26.11-12.83,35,35,0,0,0,23.11,41.06A35,35,0,0,1,91,147a5,5,0,0,1-4.19,2.29c-.14,0-.28,0-.42,0a50,50,0,0,0,10.41,19.15c6.13,6.8,14,10.89,22.52,10.89,13.34,0,25-10,31-24.66a61.38,61.38,0,0,0,4.48-23.34A60.74,60.74,0,0,0,149.39,105.88Z"/><path class="cls-2" d="M133.17,85.25c-.08.25-.16.49-.25.74C133,85.74,133.09,85.5,133.17,85.25Z"/><path class="cls-2" d="M133.61,83.76c-.07.26-.14.52-.22.78C133.47,84.28,133.54,84,133.61,83.76Z"/><path class="cls-2" d="M134,82.24c-.06.27-.12.54-.19.81C133.87,82.79,133.93,82.52,134,82.24Z"/><path class="cls-2" d="M134.69,77.4c0,.35,0,.7-.08,1.05C134.64,78.11,134.66,77.75,134.69,77.4Z"/><path class="cls-2" d="M132.62,86.79l0-.09,0,.09Z"/><path class="cls-2" d="M134.76,75.41h0c0,.49,0,1,0,1.46C134.75,76.39,134.76,75.9,134.76,75.41Z"/><path class="cls-2" d="M134.53,79.09c0,.31-.07.62-.12.93C134.46,79.71,134.49,79.4,134.53,79.09Z"/><path class="cls-2" d="M134.3,80.69c0,.29-.1.58-.15.87C134.2,81.26,134.25,81,134.3,80.69Z"/><path class="cls-2" d="M132.38,87.4l.24-.61h0Z"/><path class="cls-2" d="M110,106.42l-.07,0Z"/><path class="cls-2" d="M115.66,104.55h0Z"/><path class="cls-2" d="M126.3,96.94l-.13.13Z"/><path class="cls-2" d="M112.93,105.61l-.06,0Z"/><path class="cls-2" d="M108.56,106.73h0Z"/><path class="cls-2" d="M114.31,105.11l0,0Z"/><path class="cls-2" d="M111.5,106l-.07,0Z"/><path class="cls-2" d="M107,107h0Z"/><path class="cls-2" d="M127.29,95.81l-.24.28Z"/><path class="cls-2" d="M131.42,89.5l-.32.62Z"/><path class="cls-2" d="M130.71,90.85l-.33.57Z"/><path class="cls-2" d="M129.94,92.15l-.33.51Z"/><path class="cls-2" d="M132.07,88.12l-.3.66Z"/><path class="cls-2" d="M128.23,94.64l-.3.38Z"/><path class="cls-2" d="M129.12,93.42l-.32.45Z"/><path class="cls-4" d="M134.76,75.41c.9.4,1.8.78,2.7,1.16a10.31,10.31,0,0,0-2.71-1.76c0,.15,0,.31,0,.46S134.76,75.36,134.76,75.41Z"/><path class="cls-4" d="M141.39,84a13.25,13.25,0,0,0-3.93-7.38c-.9-.38-1.8-.76-2.7-1.16,0,.49,0,1,0,1.46,0,.18,0,.36,0,.53,0,.35,0,.7-.08,1.05s-.05.42-.08.63-.07.62-.12.93-.08.45-.11.67-.1.58-.15.87-.1.46-.15.69-.12.54-.19.81-.12.47-.19.71-.14.52-.22.78-.15.47-.23.71-.16.49-.25.74-.18.48-.27.71l0,.09-.24.61-.31.72-.3.66-.35.72-.32.62-.39.73-.33.57-.44.74-.33.51-.5.75-.32.45-.56.77-.3.38c-.21.27-.42.54-.64.8l-.24.28c-.25.29-.49.57-.75.85l-.13.13a32.07,32.07,0,0,1-10.51,7.48h0q-.66.29-1.34.55l0,0q-.67.26-1.35.48l-.06,0q-.67.22-1.36.42l-.07,0q-.69.19-1.39.36l-.07,0q-.7.16-1.42.29h-.06q-.72.13-1.45.23h0q-.75.1-1.5.16a27.23,27.23,0,0,0,10.58,2.12c11.39,0,21.36-7.41,24.54-16.34A17,17,0,0,0,141.39,84Z"/><path class="cls-4" d="M134.76,75.26c0-.15,0-.31,0-.46h0C134.76,75,134.76,75.11,134.76,75.26Z"/><path class="cls-4" d="M133.39,84.54c-.07.24-.15.47-.23.71C133.25,85,133.32,84.78,133.39,84.54Z"/><path class="cls-4" d="M133.8,83.06c-.06.24-.12.47-.19.71C133.68,83.53,133.74,83.3,133.8,83.06Z"/><path class="cls-4" d="M132.92,86c-.09.24-.18.48-.27.71C132.74,86.46,132.83,86.23,132.92,86Z"/><path class="cls-4" d="M134.14,81.55c0,.23-.1.46-.15.69C134,82,134.1,81.78,134.14,81.55Z"/><path class="cls-4" d="M134.61,78.45c0,.21-.05.42-.08.63C134.55,78.87,134.58,78.67,134.61,78.45Z"/><path class="cls-4" d="M134.72,76.87c0,.18,0,.36,0,.53C134.7,77.23,134.72,77,134.72,76.87Z"/><path class="cls-4" d="M134.41,80c0,.23-.08.45-.11.67C134.34,80.46,134.38,80.24,134.41,80Z"/><path class="cls-4" d="M129.61,92.66l-.5.75Z"/><path class="cls-4" d="M110,106.44q-.7.16-1.42.29Q109.27,106.6,110,106.44Z"/><path class="cls-4" d="M130.39,91.41l-.44.74Z"/><path class="cls-4" d="M132.38,87.4l-.31.72Z"/><path class="cls-4" d="M131.77,88.78l-.35.72Z"/><path class="cls-4" d="M131.11,90.12l-.39.73Z"/><path class="cls-4" d="M115.65,104.55q-.66.29-1.34.55Q115,104.84,115.65,104.55Z"/><path class="cls-4" d="M105.5,107.14h0q.76-.06,1.5-.16Q106.26,107.08,105.5,107.14Z"/><path class="cls-4" d="M115.66,104.55a32.07,32.07,0,0,0,10.51-7.48A32.08,32.08,0,0,1,115.66,104.55Z"/><path class="cls-4" d="M111.43,106.07q-.69.19-1.39.36Q110.75,106.26,111.43,106.07Z"/><path class="cls-4" d="M112.87,105.63q-.67.22-1.36.42Q112.19,105.85,112.87,105.63Z"/><path class="cls-4" d="M127,96.09c-.25.29-.49.57-.75.85C126.55,96.66,126.8,96.38,127,96.09Z"/><path class="cls-4" d="M108.5,106.74q-.72.13-1.45.23Q107.78,106.87,108.5,106.74Z"/><path class="cls-4" d="M114.28,105.12q-.67.26-1.35.48Q113.61,105.38,114.28,105.12Z"/><path class="cls-4" d="M127.93,95c-.21.27-.42.54-.64.8C127.51,95.55,127.72,95.28,127.93,95Z"/><path class="cls-4" d="M128.79,93.87c-.19.26-.37.52-.56.77Z"/><path class="cls-5" d="M137.46,76.57a10.31,10.31,0,0,0-2.71-1.76c0,.15,0,.31,0,.46s0,.1,0,.15c0,.49,0,1,0,1.46,0,.18,0,.36,0,.53,0,.35,0,.7-.08,1.05s-.05.42-.08.63-.07.62-.12.93-.08.45-.11.67-.1.58-.15.87-.1.46-.15.69-.12.54-.19.81-.12.47-.19.71-.14.52-.22.78-.15.47-.23.71-.16.49-.25.74-.18.48-.27.71l0,.09-.24.61-.31.72-.3.66-.35.72-.32.62-.39.73-.33.57-.44.74-.33.51-.5.75-.32.45c-.19.26-.37.52-.56.77l-.3.38c-.21.27-.42.54-.64.8l-.24.28c-.25.29-.49.57-.75.85l-.13.13a32.08,32.08,0,0,1-10.51,7.48h0q-.66.29-1.34.55l0,0q-.67.26-1.35.48l-.06,0q-.67.22-1.36.42l-.07,0q-.69.19-1.39.36l-.07,0q-.7.16-1.42.29h-.06q-.72.13-1.45.23h0q-.75.1-1.5.16a27.23,27.23,0,0,0,10.58,2.12c11.39,0,21.36-7.41,24.54-16.34a17,17,0,0,0,.77-9A13.25,13.25,0,0,0,137.46,76.57Z"/><path class="cls-2" d="M167.76,113.76A56.51,56.51,0,0,0,131.39,61,32,32,0,0,0,70.79,74.36a56.49,56.49,0,0,0,26,94,50,50,0,0,1-10.41-19.15A5,5,0,1,1,91,147a35,35,0,0,0,25.81,1.51,35,35,0,0,1-23.11-41.06,32.94,32.94,0,0,0,26.11,12.83c11.11,0,23.25-5.9,29.63-14.39a60.74,60.74,0,0,1,5.38,25.39,61.38,61.38,0,0,1-4.48,23.34A56.32,56.32,0,0,0,167.76,113.76ZM140.62,92.92c-3.18,8.93-13.15,16.34-24.54,16.34a27.23,27.23,0,0,1-10.58-2.12q.76-.06,1.5-.16h0q.73-.1,1.45-.23h.06q.71-.13,1.42-.29l.07,0q.7-.16,1.39-.36l.07,0q.69-.19,1.36-.42l.06,0q.68-.23,1.35-.48l0,0q.68-.26,1.34-.55h0a32.08,32.08,0,0,0,10.51-7.48l.13-.13c.26-.28.5-.56.75-.85l.24-.28c.22-.26.43-.53.64-.8l.3-.38c.19-.25.38-.51.56-.77l.32-.45.5-.75.33-.51.44-.74.33-.57.39-.73.32-.62.35-.72.3-.66.31-.72.24-.61,0-.09c.09-.24.18-.48.27-.71s.17-.49.25-.74.15-.47.23-.71.15-.52.22-.78.13-.47.19-.71.13-.54.19-.81.11-.46.15-.69.1-.58.15-.87.08-.45.11-.67.08-.62.12-.93.06-.42.08-.63.06-.7.08-1.05c0-.18,0-.35,0-.53,0-.48,0-1,0-1.46,0,0,0-.1,0-.15s0-.31,0-.46a10.31,10.31,0,0,1,2.71,1.76A13.25,13.25,0,0,1,141.39,84,17,17,0,0,1,140.62,92.92Z"/><path class="cls-4" d="M82.6,141.5a5,5,0,0,0,3.74,7.73,60.05,60.05,0,0,1-1.44-5.85C84.11,142.78,83.35,142.15,82.6,141.5Z"/><path class="cls-4" d="M86.34,149.22c.14,0,.28,0,.42,0A5,5,0,0,0,91,147a35,35,0,0,1-6.05-3.61A60.05,60.05,0,0,0,86.34,149.22Z"/><path class="cls-4" d="M84.35,139.91a5,5,0,0,0-1.75,1.58c.74.65,1.51,1.28,2.3,1.87C84.69,142.23,84.51,141.08,84.35,139.91Z"/><path class="cls-4" d="M86.76,139.26a4.94,4.94,0,0,0-2.41.65c.16,1.17.34,2.32.55,3.46A35,35,0,0,0,91,147a5,5,0,0,0-4.19-7.71Z"/><rect class="cls-4" x="80.76" y="138.26" width="12" height="12" rx="6" ry="6"/></g></g></svg>